<svg width="21" height="18" viewBox="0 0 21 18" fill="none" xmlns="http://www.w3.org/2000/svg">
<path d="M7.84744 0C6.65399 0 5.50931 0.474196 4.6656 1.31819C3.82166 2.16198 3.34744 3.30669 3.34744 4.50012C3.34744 5.69361 3.82163 6.83807 4.6656 7.68204C5.50937 8.52601 6.65405 9 7.84744 9C9.04084 9 10.1856 8.52603 11.0293 7.68204C11.8732 6.83807 12.3474 5.69355 12.3474 4.50012C12.3456 3.3071 11.8709 2.16352 11.0275 1.32003C10.1839 0.476473 9.04043 0.00183304 7.84744 0V0Z" fill="white"/>
<path d="M16.3636 17.1605V16.8583C16.3617 15.0333 15.5927 13.2836 14.2257 11.9933C12.8585 10.7028 11.0047 9.97696 9.07114 9.9751H7.2925C5.35899 9.97697 3.5052 10.7028 2.13793 11.9933C0.770915 13.2836 0.00196921 15.0333 0 16.8583V17.1605C0 17.3832 0.0937985 17.5968 0.260546 17.7542C0.427294 17.9116 0.653594 17.9999 0.889321 17.9999H15.4742C15.7099 17.9999 15.9362 17.9116 16.103 17.7542C16.2697 17.5968 16.3635 17.3832 16.3635 17.1605H16.3636Z" fill="white"/>
<circle cx="15.5454" cy="13.0907" r="4.90909" fill="#1976D2"/>
<path d="M18.8183 13.0906C18.8183 14.8865 17.3616 16.3633 15.5456 16.3633C13.7496 16.3633 12.2729 14.9066 12.2729 13.0906C12.2729 11.2947 13.7296 9.81787 15.5456 9.81787C17.3616 9.81787 18.8183 11.2945 18.8183 13.0906ZM17.2019 12.2324C17.2019 12.1326 17.162 12.0328 17.0822 11.9531C16.9226 11.7934 16.6832 11.7934 16.5235 11.9531L15.1065 13.37L14.5677 12.8311C14.408 12.6715 14.1686 12.6715 14.009 12.8311C13.9292 12.9109 13.8892 13.0107 13.8892 13.1105C13.8892 13.2103 13.9292 13.3101 14.009 13.3899L14.8272 14.2081C14.9868 14.3678 15.2262 14.3678 15.3859 14.2081L17.0822 12.5118C17.162 12.452 17.2019 12.3521 17.2019 12.2324Z" fill="white"/>
<rect x="14.7273" y="5.72705" width="4.90909" height="1.63636" rx="0.818182" fill="white"/>
<rect x="14.7273" y="2.45459" width="4.90909" height="1.63636" rx="0.818182" fill="white"/>
</svg>
