<svg width="20" height="20" viewBox="0 0 24 24" fill="none" xmlns="http://www.w3.org/2000/svg">
<path d="M12 20C10.4178 20 8.87104 19.5308 7.55544 18.6518C6.23985 17.7727 5.21447 16.5233 4.60897 15.0615C4.00347 13.5997 3.84504 11.9911 4.15372 10.4393C4.4624 8.88743 5.22433 7.46197 6.34315 6.34315C7.46197 5.22433 8.88743 4.4624 10.4393 4.15372C11.9911 3.84504 13.5997 4.00347 15.0615 4.60897C16.5233 5.21447 17.7727 6.23985 18.6518 7.55544C19.5308 8.87104 20 10.4178 20 12C20 12.2652 20.1054 12.5196 20.2929 12.7071C20.4804 12.8946 20.7348 13 21 13C21.2652 13 21.5196 12.8946 21.7071 12.7071C21.8946 12.5196 22 12.2652 22 12C22 10.0222 21.4135 8.08879 20.3147 6.4443C19.2159 4.79981 17.6541 3.51809 15.8268 2.76121C13.9996 2.00433 11.9889 1.8063 10.0491 2.19215C8.10929 2.578 6.32746 3.53041 4.92894 4.92894C3.53041 6.32746 2.578 8.10929 2.19215 10.0491C1.8063 11.9889 2.00433 13.9996 2.76121 15.8268C3.51809 17.6541 4.79981 19.2159 6.4443 20.3147C8.08879 21.4135 10.0222 22 12 22C12.2652 22 12.5196 21.8946 12.7071 21.7071C12.8946 21.5196 13 21.2652 13 21C13 20.7348 12.8946 20.4804 12.7071 20.2929C12.5196 20.1054 12.2652 20 12 20Z" fill="#124EB0"/>
<path d="M12.0019 6C11.7367 6 11.4823 6.10536 11.2948 6.29289C11.1072 6.48043 11.0019 6.73478 11.0019 7V11.59L8.29189 14.29C8.19816 14.383 8.12377 14.4936 8.073 14.6154C8.02223 14.7373 7.99609 14.868 7.99609 15C7.99609 15.132 8.02223 15.2627 8.073 15.3846C8.12377 15.5064 8.19816 15.617 8.29189 15.71C8.38486 15.8037 8.49546 15.8781 8.61732 15.9289C8.73917 15.9797 8.86988 16.0058 9.00189 16.0058C9.1339 16.0058 9.26461 15.9797 9.38647 15.9289C9.50833 15.8781 9.61893 15.8037 9.71189 15.71L12.7119 12.71C12.8046 12.6166 12.8779 12.5057 12.9277 12.3839C12.9774 12.2621 13.0027 12.1316 13.0019 12V7C13.0019 6.73478 12.8965 6.48043 12.709 6.29289C12.5215 6.10536 12.2671 6 12.0019 6Z" fill="#124EB0"/>
<path d="M21 17H19V15C19 14.7348 18.8946 14.4804 18.7071 14.2929C18.5196 14.1054 18.2652 14 18 14C17.7348 14 17.4804 14.1054 17.2929 14.2929C17.1054 14.4804 17 14.7348 17 15V17H15C14.7348 17 14.4804 17.1054 14.2929 17.2929C14.1054 17.4804 14 17.7348 14 18C14 18.2652 14.1054 18.5196 14.2929 18.7071C14.4804 18.8946 14.7348 19 15 19H17V21C17 21.2652 17.1054 21.5196 17.2929 21.7071C17.4804 21.8946 17.7348 22 18 22C18.2652 22 18.5196 21.8946 18.7071 21.7071C18.8946 21.5196 19 21.2652 19 21V19H21C21.2652 19 21.5196 18.8946 21.7071 18.7071C21.8946 18.5196 22 18.2652 22 18C22 17.7348 21.8946 17.4804 21.7071 17.2929C21.5196 17.1054 21.2652 17 21 17Z" fill="#124EB0"/>
</svg>
