<svg width="30" height="30" viewBox="0 0 30 30" fill="none" xmlns="http://www.w3.org/2000/svg">
<path fill-rule="evenodd" clip-rule="evenodd" d="M16.5849 1.643C16.5849 1.6722 19.874 4.19267 25.6447 4.74957H25.6447C26.9004 4.86669 27.8574 5.89257 27.8574 7.15291C27.8574 23.4773 16.4654 28.5182 15.9869 28.7234C15.6879 28.87 15.3291 28.9287 15.0002 28.9287C14.6713 28.9287 14.3126 28.87 14.0135 28.7234C13.5351 28.5183 2.14307 23.4773 2.14307 7.15291C2.14307 5.89257 3.09993 4.86671 4.35574 4.74957C10.1264 4.19272 13.3857 1.67223 13.4155 1.643C14.3424 0.881046 15.6879 0.881046 16.5849 1.643ZM20.7113 21.6894L20.5918 20.6344C20.4422 19.169 19.4555 17.9673 18.1398 17.3812C17.2428 17.9086 16.1664 18.231 15.0303 18.231C13.894 18.231 12.8476 17.9086 11.9208 17.3812C10.6051 17.9673 9.64841 19.169 9.46885 20.6344L9.34934 21.7187C6.95726 18.7587 4.71473 14.1573 4.65488 7.26998C11.2927 6.62521 15.0004 3.69443 14.9705 3.60651C15.1499 3.75309 18.8275 6.59596 25.316 7.24073C25.2559 14.128 23.0435 18.7293 20.7113 21.6894ZM15.0002 16.1501C17.1634 16.1501 18.9171 14.4313 18.9171 12.3109C18.9171 10.1905 17.1634 8.47161 15.0002 8.47161C12.837 8.47161 11.0833 10.1905 11.0833 12.3109C11.0833 14.4312 12.837 16.1501 15.0002 16.1501Z" fill="#545E6D"/>
</svg>
