<svg width="20" height="20" viewBox="0 0 20 20" fill="none" xmlns="http://www.w3.org/2000/svg">
<path fill-rule="evenodd" clip-rule="evenodd" d="M5.80764 10.1822C5.8657 10.124 5.93467 10.0778 6.0106 10.0463C6.08653 10.0148 6.16793 9.99856 6.25014 9.99856C6.33235 9.99856 6.41375 10.0148 6.48968 10.0463C6.56561 10.0778 6.63458 10.124 6.69264 10.1822L10.0001 13.4909L13.3076 10.1822C13.3657 10.1241 13.4347 10.078 13.5107 10.0465C13.5866 10.0151 13.668 9.99889 13.7501 9.99889C13.8323 9.99889 13.9137 10.0151 13.9896 10.0465C14.0655 10.078 14.1345 10.1241 14.1926 10.1822C14.2507 10.2403 14.2968 10.3093 14.3283 10.3852C14.3597 10.4611 14.3759 10.5425 14.3759 10.6247C14.3759 10.7069 14.3597 10.7882 14.3283 10.8642C14.2968 10.9401 14.2507 11.0091 14.1926 11.0672L10.4426 14.8172C10.3846 14.8754 10.3156 14.9216 10.2397 14.9531C10.1638 14.9846 10.0823 15.0008 10.0001 15.0008C9.91793 15.0008 9.83653 14.9846 9.7606 14.9531C9.68467 14.9216 9.6157 14.8754 9.55764 14.8172L5.80764 11.0672C5.74944 11.0091 5.70326 10.9401 5.67175 10.8642C5.64024 10.7883 5.62402 10.7069 5.62402 10.6247C5.62402 10.5425 5.64024 10.4611 5.67175 10.3851C5.70326 10.3092 5.74944 10.2402 5.80764 10.1822V10.1822Z" fill="#EB5757"/>
<path fill-rule="evenodd" clip-rule="evenodd" d="M10 14.375C9.83424 14.375 9.67527 14.3092 9.55806 14.1919C9.44085 14.0747 9.375 13.9158 9.375 13.75V5.625C9.375 5.45924 9.44085 5.30027 9.55806 5.18306C9.67527 5.06585 9.83424 5 10 5C10.1658 5 10.3247 5.06585 10.4419 5.18306C10.5592 5.30027 10.625 5.45924 10.625 5.625V13.75C10.625 13.9158 10.5592 14.0747 10.4419 14.1919C10.3247 14.3092 10.1658 14.375 10 14.375Z" fill="#EB5757"/>
</svg>
