<svg width="20" height="20" viewBox="0 0 20 20" fill="none" xmlns="http://www.w3.org/2000/svg">
<path fill-rule="evenodd" clip-rule="evenodd" d="M14.1924 9.81782C14.1343 9.87603 14.0653 9.92221 13.9894 9.95371C13.9135 9.98522 13.8321 10.0014 13.7499 10.0014C13.6677 10.0014 13.5862 9.98522 13.5103 9.95371C13.4344 9.92221 13.3654 9.87603 13.3074 9.81782L9.99986 6.50907L6.69236 9.81782C6.63425 9.87593 6.56526 9.92203 6.48934 9.95348C6.41342 9.98493 6.33204 10.0011 6.24986 10.0011C6.16768 10.0011 6.08631 9.98493 6.01038 9.95348C5.93446 9.92203 5.86547 9.87593 5.80736 9.81782C5.74925 9.75971 5.70315 9.69073 5.67171 9.6148C5.64026 9.53888 5.62407 9.4575 5.62407 9.37532C5.62407 9.29314 5.64026 9.21177 5.67171 9.13584C5.70315 9.05992 5.74925 8.99093 5.80736 8.93282L9.55736 5.18282C9.61542 5.12462 9.68439 5.07844 9.76032 5.04693C9.83625 5.01542 9.91765 4.99921 9.99986 4.99921C10.0821 4.99921 10.1635 5.01542 10.2394 5.04693C10.3153 5.07844 10.3843 5.12462 10.4424 5.18282L14.1924 8.93282C14.2506 8.99088 14.2967 9.05985 14.3283 9.13578C14.3598 9.21171 14.376 9.29311 14.376 9.37532C14.376 9.45753 14.3598 9.53893 14.3283 9.61487C14.2967 9.6908 14.2506 9.75977 14.1924 9.81782V9.81782Z" fill="#1AAF8B"/>
<path fill-rule="evenodd" clip-rule="evenodd" d="M10 5.625C10.1658 5.625 10.3247 5.69085 10.4419 5.80806C10.5592 5.92527 10.625 6.08424 10.625 6.25V14.375C10.625 14.5408 10.5592 14.6997 10.4419 14.8169C10.3247 14.9342 10.1658 15 10 15C9.83424 15 9.67527 14.9342 9.55806 14.8169C9.44085 14.6997 9.375 14.5408 9.375 14.375V6.25C9.375 6.08424 9.44085 5.92527 9.55806 5.80806C9.67527 5.69085 9.83424 5.625 10 5.625Z" fill="#1AAF8B"/>
</svg>
