<svg width="14" height="12" viewBox="0 0 14 12" fill="none" xmlns="http://www.w3.org/2000/svg">
<path d="M0.128568 9.73161L2.31563 11.8745C2.48647 12.0419 2.7636 12.0418 2.93434 11.8745L5.12132 9.73161C5.39667 9.46188 5.20059 8.99999 4.81195 8.99999H3.5L3.5 0.428571C3.5 0.191866 3.30414 0 3.0625 0H2.1875C1.94586 0 1.75 0.191866 1.75 0.428571L1.75 8.99999H0.437935C0.0485329 8.99999 -0.146209 9.46242 0.128568 9.73161ZM6.5625 10.2857L13.5625 10.2857C13.8041 10.2857 14 10.4776 14 10.7143V11.5714C14 11.8081 13.8041 12 13.5625 12L6.5625 12C6.32086 12 6.125 11.8081 6.125 11.5714V10.7143C6.125 10.4776 6.32086 10.2857 6.5625 10.2857ZM6.125 7.28571V8.14285C6.125 8.37955 6.32086 8.57142 6.5625 8.57142L11.8125 8.57142C12.0541 8.57142 12.25 8.37955 12.25 8.14285V7.28571C12.25 7.049 12.0541 6.85713 11.8125 6.85713L6.5625 6.85713C6.32086 6.85713 6.125 7.049 6.125 7.28571ZM6.125 0.428571L6.125 1.28571C6.125 1.52242 6.32086 1.71428 6.5625 1.71428L8.3125 1.71428C8.55414 1.71428 8.75 1.52242 8.75 1.28571V0.428571C8.75 0.191866 8.55414 0 8.3125 0L6.5625 0C6.32086 0 6.125 0.191866 6.125 0.428571ZM6.125 3.85714V4.71428C6.125 4.95099 6.32086 5.14285 6.5625 5.14285H10.0625C10.3041 5.14285 10.5 4.95099 10.5 4.71428V3.85714C10.5 3.62043 10.3041 3.42857 10.0625 3.42857L6.5625 3.42857C6.32086 3.42857 6.125 3.62043 6.125 3.85714Z" fill="#124EB0"/>
</svg>
