<svg width="169" height="32" viewBox="0 0 169 32" fill="none" xmlns="http://www.w3.org/2000/svg">
<g clip-path="url(#clip0_15127_47353)">
<path d="M4.04328 21.0334H11.2918C12.1659 21.0334 12.7487 20.8321 12.7487 20.0638C12.7487 19.1673 12.1659 18.966 11.2918 18.966H4.04328V21.0334ZM4.04328 16.2216H11.2007C11.9475 16.2216 12.3845 15.9472 12.3845 15.197C12.3845 14.4286 11.9475 14.154 11.2007 14.154H4.04328V16.2216ZM0 10.9706H11.6378C14.8614 10.9706 16.4278 11.8489 16.4278 14.4467C16.4278 16.7155 15.6083 17.1547 14.479 17.484V17.5388C16.2455 17.7584 16.9013 18.7098 16.9013 20.7041C16.9013 23.6131 15.1893 24.2169 12.8764 24.2169H0V10.9706V10.9706ZM19.3443 10.9706H23.3876V18.6183C23.3876 20.3016 23.9883 20.9602 25.6458 20.9602H29.6526C31.3099 20.9602 31.911 20.3016 31.911 18.6183V10.9706H35.9542V19.4966C35.9542 22.7898 34.2605 24.3633 30.545 24.3633H24.7533C21.038 24.3633 19.3443 22.7898 19.3443 19.4966V10.9706V10.9706ZM38.0512 21.0334L47.5035 14.1908V14.154H38.3062V10.9706H53.4774V14.154L44.0433 20.9967V21.0334H53.696V24.2169H38.0512V21.0334V21.0334ZM55.1551 21.0334L64.6074 14.1908V14.154H55.4102V10.9706H70.581V14.154L61.1469 20.9967V21.0334H70.7996V24.2169H55.1551V21.0334V21.0334ZM71.6576 10.9706H75.61L78.4144 20.7041H78.4512L81.8021 10.9706H85.5541L88.905 20.7041H88.9417L91.7462 10.9706H95.6985L91.4183 24.2169H86.7745L83.6965 15.4713H83.6597L80.5817 24.2169H75.9378L71.6576 10.9706V10.9706ZM121.494 17.484H128.178C129.271 17.484 129.671 17.0449 129.671 16.0934V15.6544C129.671 14.4835 129.088 14.2638 127.813 14.2638H121.494V17.484ZM117.45 10.9706H129.653C132.767 10.9706 133.605 12.5257 133.605 14.9042V15.7459C133.605 17.5205 133.204 18.5635 131.347 19.0026V19.0391C132.549 19.2588 133.55 19.7893 133.55 21.9665V24.2169H129.507V22.6253C129.507 21.2347 129.106 20.7772 127.85 20.7772H121.494V24.2169H117.45V10.9706V10.9706ZM136.339 10.9706H140.382V20.8139H149.471V24.2169H136.339V10.9706ZM155.373 20.8139H162.549C164.279 20.8139 164.953 20.3199 164.953 18.4353V16.6423C164.953 14.7578 164.279 14.2638 162.549 14.2638H155.373V20.8139ZM151.33 10.9706H163.532C167.576 10.9706 168.996 12.3061 168.996 15.5811V19.6063C168.996 22.8813 167.576 24.2169 163.532 24.2169H151.33V10.9706" fill="white"/>
<path d="M109.312 30.3282L109.353 30.3867C109.353 30.3867 109.339 30.3641 109.312 30.3282Z" fill="#100F0D"/>
<path d="M114.791 19.6395C114.465 19.4604 114.762 19.1618 114.762 19.1618L116.01 19.3108L114.477 18.5999C114.53 18.6235 114.763 18.7177 115.178 18.7436C115.654 18.7733 116.1 18.684 116.1 18.684C116.1 18.684 115.684 18.5346 115.327 18.5346C114.97 18.5346 114.881 18.2362 114.881 18.2362L116.07 18.1466C116.07 18.1466 115.921 17.9377 115 17.9676C114.078 17.9972 114.227 17.6389 114.227 17.6389C114.227 17.6389 114.554 17.4598 114.822 17.3704C115.089 17.2808 115.267 16.8926 115.267 16.8926C115.267 16.8926 114.822 17.0121 114.316 17.0121C113.811 17.0121 113.781 16.594 113.781 16.594C113.781 16.594 114.138 16.4746 114.405 16.206C114.673 15.9373 115.149 16.206 115.149 16.206C115.149 16.206 114.851 15.9669 114.554 15.9074C114.257 15.8476 113.722 15.9074 113.722 15.9074L114.791 15.3698C114.791 15.3698 114.376 15.4594 114.049 15.6388C113.722 15.8177 113.425 15.579 113.425 15.579L113.781 15.1908C113.781 15.1908 113.068 15.1312 112.682 15.1908C112.295 15.2506 111.82 15.3999 112.206 15.1609C112.592 14.922 113.009 13.9369 113.009 13.9369C113.009 13.9369 112.712 14.3249 112.325 14.6534C111.939 14.9818 111.404 14.8025 111.404 14.8025C111.404 14.8025 111.731 14.2952 111.969 13.8771C112.206 13.4592 111.79 13.1904 111.79 13.1904C111.79 13.1904 111.523 13.8175 111.196 14.2652C110.869 14.7132 110.572 14.1757 110.572 14.1757C110.572 14.1757 110.69 13.7873 110.869 13.6085C111.047 13.4292 111.463 13.2798 111.463 13.2798C111.463 13.2798 111.017 13.2798 110.72 13.3696C110.423 13.4592 110.185 13.8474 110.185 13.8474C110.185 13.8474 110.482 12.6532 110.364 13.0411C110.245 13.4292 109.532 13.5787 109.532 13.5787C109.532 13.5787 109.65 12.5934 109.561 12.8918C109.472 13.1904 108.759 13.3398 108.937 12.8321C109.115 12.3248 108.937 11.6976 108.937 11.6976C108.937 11.6976 108.788 11.9961 108.342 12.3843C107.897 12.7723 107.689 12.5934 107.57 12.3248C107.451 12.0559 106.916 11.3691 106.945 11.6378C106.976 11.9065 106.589 12.6532 106.5 12.4738C106.411 12.2947 105.906 11.9067 105.965 12.2052C106.009 12.4243 105.862 12.8473 105.782 13.0572C105.637 12.1987 105.561 11.2964 105.561 10.5881C105.561 10.0816 105.788 9.4066 106.052 8.62488C106.509 7.26912 107.077 5.58156 106.689 3.9668C106.11 1.56227 104.225 0.648371 104.043 0.565196C103.964 0.47733 103.453 -0.0475739 102.562 0.00336262C102.379 0.0136431 102.208 0.0183346 102.022 0.0183346C101.936 0.0183346 101.857 0.0174033 101.78 0.016505C101.709 0.0156067 101.641 0.0148073 101.573 0.0148073C101.394 0.0148073 101.19 0.0198663 100.916 0.056663C100.539 0.106967 100.338 0.191573 100.16 0.266165C100.049 0.312676 99.9446 0.356626 99.8081 0.387035C99.6025 0.433014 99.3799 0.583261 99.0978 0.7734C98.856 0.936623 98.5814 1.12171 98.2466 1.28985C97.7724 1.5282 97.6859 1.598 97.5551 1.7038C97.4829 1.76239 97.4008 1.82869 97.2309 1.94228C96.8156 2.22065 96.9328 2.74219 97.0564 2.98832C97.0467 2.99351 97.0368 2.99874 97.0272 3.00406C96.8487 3.10191 96.4566 3.56456 96.5821 3.47503C96.5927 3.46748 96.6049 3.46153 96.6182 3.45594C96.6139 3.46256 96.6093 3.46944 96.6049 3.47633C96.4847 3.50348 96.3612 3.54211 96.2625 3.59783C95.9714 3.76212 95.0808 5.00363 95.2812 6.20851C95.4812 7.41338 96.4986 8.18016 96.4986 8.18016C96.4986 8.18016 96.6622 8.25319 96.8623 8.14363C97.062 8.0342 96.7169 7.41338 96.7169 7.41338C96.7169 7.41338 96.4986 7.28576 96.5894 7.04831C96.6805 6.81103 96.8258 6.88379 96.8258 6.88379C96.8258 6.88379 96.8371 6.83598 96.8745 6.76229L98.1059 6.87391C98.1059 6.87391 98.1499 6.84453 98.289 6.8591C98.4281 6.87391 98.6109 7.13864 98.6695 7.13864C98.6825 7.13864 98.7262 7.14526 98.7894 7.15438L98.7924 7.158C98.696 7.14423 98.6311 7.13331 98.6311 7.13331L98.9259 7.58895L99.2713 8.03434L99.2547 8.05982C99.2415 8.07968 98.9355 8.54989 98.9782 8.97319C98.9924 9.11888 99.1451 9.42663 99.3564 9.85248C99.7681 10.6828 100.39 11.9377 100.471 12.984C100.526 13.7139 100.306 14.5467 100.045 15.5067L99.6343 15.6985L99.3673 16.0567L98.8918 16.0269L99.2186 16.2357L98.8321 16.385L99.4564 16.833C99.4564 16.833 99.159 16.833 98.7725 16.7135C98.3864 16.594 98.089 16.8926 98.089 16.8926C98.089 16.8926 98.446 17.0121 98.7431 17.1016C99.0401 17.1912 99.1888 17.5196 99.1888 17.5196C99.1888 17.5196 98.8918 17.3704 98.5947 17.2807C98.2973 17.1912 98.0297 17.2807 98.0297 17.2807L98.2675 17.5196L97.4352 17.7287C97.4352 17.7287 97.9111 17.9079 98.5053 18.057C99.0994 18.2063 98.8023 18.5645 98.8023 18.5645L97.6137 18.6543C97.6137 18.6543 98.089 18.7436 98.446 18.7733C98.8023 18.8035 98.8616 19.2215 98.8616 19.2215L98.1188 18.8934L97.7621 18.9827L98.2973 19.3108H97.1676L97.3167 19.6097L97.2869 19.9081C97.2869 19.9081 97.9999 19.9977 98.1486 20.0873C98.2973 20.1772 97.7919 20.2667 97.7919 20.2667C97.7919 20.2667 97.4054 20.1772 96.9596 20.2367C96.5139 20.2965 96.2764 20.5053 96.2764 20.5053C96.2764 20.5053 96.5139 20.7144 96.8113 20.7144C97.1083 20.7144 97.4352 20.8635 97.4352 20.8635L97.4948 21.3113L96.5437 21.2814L97.0193 21.5502H96.5139L97.4948 22.0279L96.5139 22.207C96.5139 22.207 96.9596 22.3266 97.4054 22.4758C97.7068 22.5766 98.0072 22.514 98.1711 22.4627L97.1676 22.8342L98.3864 22.6251C98.3864 22.6251 98.2377 22.7447 97.9704 22.894C97.7028 23.0433 96.6924 23.1028 96.6924 23.1028L96.5437 23.3715C96.5437 23.3715 97.1676 23.6105 97.7323 23.6703C98.2973 23.73 98.7431 24.3271 98.7431 24.3271H97.9704L98.2082 24.5357L98.951 24.6552L98.1784 25.0135L99.3077 24.9838C99.3077 24.9838 99.8131 25.0433 99.9317 25.2822C100.051 25.5209 99.6644 25.3717 99.6644 25.3717C99.6644 25.3717 99.1888 25.1629 98.5947 25.2524C97.9999 25.3417 97.7323 25.4913 97.7323 25.4913C97.7323 25.4913 98.2377 25.4913 98.6838 25.4613C99.1295 25.4315 99.5452 25.7299 99.5452 25.7299L97.465 26.4764L99.8426 25.9094L97.8124 27.0322C97.9406 26.962 98.7172 26.5532 99.6939 26.4168C100.764 26.2678 100.496 26.6555 100.496 26.6555C100.496 26.6555 100.407 26.8647 99.9022 26.8943C99.3965 26.9245 98.446 27.9392 98.446 27.9392C98.446 27.9392 99.2186 27.5513 100.169 27.1929C101.121 26.8345 101.299 27.2527 101.299 27.2527L100.318 28.3873L102.012 27.5215L100.734 29.462L102.993 27.432C102.993 27.432 102.666 27.7604 102.934 27.7006C103.201 27.6408 103.528 26.7452 103.528 26.7452V27.3422C103.528 27.7004 103.795 27.999 103.795 27.999L104.212 28.0289C104.212 28.0289 103.825 28.3576 103.825 28.8948C103.825 29.4322 104.212 29.9397 104.212 29.9397C104.212 29.9397 104.301 29.4917 104.241 29.0441C104.182 28.5965 104.835 28.5066 104.835 28.5066L105.103 30.2083C105.103 30.2083 105.133 29.8802 105.074 29.6708C105.014 29.462 105.638 28.6857 105.638 28.6857C105.638 28.6857 105.549 28.9844 105.459 29.3727C105.371 29.7609 105.43 29.6708 105.608 30.298C105.786 30.9253 105.846 31.1937 105.846 31.1937L106.054 30.6264C106.054 30.6264 106.114 30.8355 106.203 31.1342C106.292 31.4326 106.768 32 106.768 32C106.768 32 106.5 31.3133 106.411 30.8656C106.321 30.4176 106.559 30.089 106.559 30.089C106.559 30.089 106.648 30.3578 106.768 30.746C106.886 31.1342 107.689 31.7912 107.689 31.7912C107.689 31.7912 107.332 31.2535 107.183 30.8355C107.035 30.4176 107.154 30.0593 107.154 30.0593C107.154 30.0593 107.659 30.746 107.956 31.0744C108.253 31.403 108.67 31.7013 108.67 31.7013C108.67 31.7013 108.105 31.0744 107.867 30.7162C107.675 30.427 107.774 29.9435 107.819 29.7678C107.808 29.8624 107.843 30.0425 108.194 30.2083C108.699 30.4479 108.848 30.5967 108.848 30.5967L108.253 29.8802C108.253 29.8802 107.808 29.7011 108.402 29.7609C108.879 29.8087 109.203 30.1832 109.312 30.3291L108.848 29.6708C108.848 29.6708 109.086 29.8204 109.412 29.9698C109.739 30.1191 109.977 30.4771 109.977 30.4771L109.799 29.91L110.69 30.4176L109.383 29.462C109.383 29.462 109.294 29.3129 109.829 29.3129C110.364 29.3129 110.928 29.6113 110.928 29.6113L109.858 28.7155L111.761 29.3429C111.761 29.3429 111.433 29.0442 110.809 28.835C110.185 28.6259 110.364 28.3873 110.364 28.3873C110.364 28.3873 110.453 28.238 110.898 28.4469C111.345 28.656 112.058 29.2829 112.058 29.2829L111.671 28.4171L112.355 28.9246L112.087 28.2082L112.771 28.8053C112.771 28.8053 112.801 28.5366 112.533 28.0588C112.266 27.5811 112.058 27.2229 112.058 27.2229C112.058 27.2229 112.295 27.3124 112.563 27.5215C112.831 27.7304 113.098 28.1782 113.098 28.1782C113.098 28.1782 113.068 27.3722 112.949 26.954C112.831 26.5359 112.266 25.7898 112.266 25.7898L113.128 26.5957C113.128 26.5957 112.087 24.894 112.206 25.0733C112.325 25.2524 112.949 25.4613 112.949 25.4613L114.257 26.2973L112.771 24.6552C112.771 24.6552 114.791 25.3717 114.227 25.0433C113.662 24.7151 113.128 24.1775 112.771 23.9687C112.415 23.7598 111.701 22.9535 111.701 22.9535L113.484 23.9389L112.087 22.6551C112.087 22.6551 112.712 23.0431 113.276 23.3715C113.841 23.7 114.822 24.6253 114.822 24.6253C114.822 24.6253 114.643 24.118 114.079 23.6703C113.514 23.2224 113.068 22.5953 113.068 22.5953L114.257 22.7149C114.257 22.7149 113.395 22.416 112.89 22.207C112.384 21.9984 112.533 21.4011 112.533 21.4011L112.563 21.0428L113.009 21.2216L113.425 22.0279L113.336 21.3414L114.673 22.8042C114.673 22.8042 113.99 21.8191 113.841 21.3414C113.692 20.8637 113.87 20.834 113.87 20.834L115.297 21.1621L114.376 20.356H116.1C116.1 20.356 115.119 19.8186 114.791 19.6395" fill="white"/>
<path d="M97.8125 27.0314C97.8002 27.0382 97.7919 27.043 97.7919 27.043L97.8125 27.0314Z" fill="#100F0D"/>
<path d="M116.394 7.70386C114.967 5.96147 110.538 7.21844 105.525 10.4932C105.522 10.5365 105.512 10.5854 105.512 10.6264C105.512 10.7719 105.517 10.93 105.524 11.0899C109.361 8.8895 112.782 8.28415 114.059 9.86109C114.958 10.9707 114.618 12.9417 113.351 15.2077C112.155 17.3448 110.134 19.7443 107.539 21.934C105.01 24.0674 102.396 25.6096 100.153 26.4246C99.3339 26.7223 98.5662 26.9219 97.8698 27.0155C97.8671 27.0159 97.8645 27.0161 97.8615 27.0165C96.4374 27.2063 95.3124 26.9615 94.6951 26.199C93.4107 24.6133 94.6527 21.2695 97.526 17.8167C97.5555 17.7809 97.585 17.7453 97.6148 17.7096C97.8184 17.4681 98.0262 17.2302 98.238 16.996C98.3185 16.9068 98.398 16.8177 98.4808 16.7285C98.6527 16.5431 98.8309 16.3578 99.0117 16.1729C99.0415 16.1424 99.072 16.112 99.1021 16.0814C99.4267 15.7521 99.7645 15.4245 100.116 15.0997C100.166 14.9074 100.214 14.7197 100.255 14.538C93.9767 20.1057 90.3781 26.2197 92.1701 28.4079C93.3528 29.852 96.599 29.2344 100.53 27.1167C102.763 25.9135 105.216 24.2278 107.64 22.1565C110.12 20.0369 112.218 17.8143 113.783 15.7404C116.44 12.22 117.561 9.12901 116.394 7.70386V7.70386ZM109.305 30.4258C109.305 30.4258 109.29 30.4033 109.263 30.3674L109.305 30.4258Z" fill="#1E88E5"/>
</g>
<defs>
<clipPath id="clip0_15127_47353">
<rect width="169" height="32" fill="white"/>
</clipPath>
</defs>
</svg>
