<svg width="20" height="18" viewBox="0 0 20 18" fill="none" xmlns="http://www.w3.org/2000/svg">
<path fill-rule="evenodd" clip-rule="evenodd" d="M2.7999 3.0001C1.47442 3.0001 0.399902 4.07461 0.399902 5.4001V15.0001C0.399902 16.3256 1.47442 17.4001 2.7999 17.4001H17.1999C18.5254 17.4001 19.5999 16.3256 19.5999 15.0001V5.4001C19.5999 4.07461 18.5254 3.0001 17.1999 3.0001H15.297C14.9787 3.0001 14.6735 2.87367 14.4484 2.64863L13.1028 1.30304C12.6528 0.852954 12.0423 0.600098 11.4058 0.600098H8.59402C7.9575 0.600098 7.34705 0.852953 6.89696 1.30304L5.55137 2.64863C5.32633 2.87367 5.02111 3.0001 4.70285 3.0001H2.7999ZM9.9999 13.8001C11.9881 13.8001 13.5999 12.1883 13.5999 10.2001C13.5999 8.21187 11.9881 6.6001 9.9999 6.6001C8.01168 6.6001 6.3999 8.21187 6.3999 10.2001C6.3999 12.1883 8.01168 13.8001 9.9999 13.8001Z" fill="white"/>
</svg>
