<svg width="8" height="12" viewBox="0 0 8 12" fill="none" xmlns="http://www.w3.org/2000/svg">
<path fill-rule="evenodd" clip-rule="evenodd" d="M7.24658 0.351344C7.47155 0.576377 7.59793 0.881547 7.59793 1.19974C7.59793 1.51794 7.47155 1.82311 7.24658 2.04814L3.29498 5.99974L7.24658 9.95134C7.46517 10.1777 7.58612 10.4808 7.58339 10.7954C7.58066 11.1101 7.45445 11.411 7.23196 11.6335C7.00947 11.856 6.7085 11.9822 6.39386 11.985C6.07923 11.9877 5.7761 11.8667 5.54978 11.6481L0.749781 6.84814C0.524816 6.62311 0.398438 6.31794 0.398438 5.99974C0.398438 5.68155 0.524816 5.37638 0.749781 5.15134L5.54978 0.351344C5.77482 0.126379 6.07998 0 6.39818 0C6.71638 0 7.02155 0.126379 7.24658 0.351344Z" fill="#124eb0"/>
</svg>
