<svg width="24" height="24" viewBox="0 0 24 24" fill="none" xmlns="http://www.w3.org/2000/svg">
<rect y="3.05176e-05" width="24" height="24" rx="4" fill="none"/>
<path d="M13.4103 12L13.0568 12.3536L9.10522 16.3051C9.1052 16.3051 9.10518 16.3052 9.10517 16.3052C8.97397 16.4364 8.90027 16.6144 8.90027 16.8C8.90027 16.9856 8.97395 17.1636 9.10511 17.2948C9.10515 17.2949 9.10518 17.2949 9.10522 17.2949M13.4103 12L9.10522 17.2949M13.4103 12L13.0568 11.6465L9.10865 7.69836C8.98278 7.56663 8.9132 7.39097 8.91478 7.20869C8.91638 7.02515 8.99 6.84958 9.11978 6.7198C9.24957 6.59001 9.42514 6.51639 9.60868 6.5148C9.79096 6.51321 9.96662 6.5828 10.0983 6.70866L14.8948 11.5051C15.026 11.6364 15.0998 11.8144 15.0998 12C15.0998 12.1856 15.026 12.3637 14.8948 12.4949L10.0949 17.2948M13.4103 12L10.0949 17.2948M9.10522 17.2949C9.23648 17.4261 9.41445 17.4998 9.60001 17.4998C9.7856 17.4998 9.96359 17.4261 10.0949 17.2949M9.10522 17.2949L10.0949 17.2949M10.0949 17.2949C10.0949 17.2949 10.0949 17.2948 10.0949 17.2948M10.0949 17.2949L10.0949 17.2948" fill="#101426" stroke="#134c85"/>
</svg>
