<svg width="24" height="24" viewBox="0 0 24 24" fill="none" xmlns="http://www.w3.org/2000/svg">
<circle cx="11.5" cy="11.5" r="8.5" fill="white"/>
<path fill-rule="evenodd" clip-rule="evenodd" d="M12 22C17.5228 22 22 17.5228 22 12C22 6.47715 17.5228 2 12 2C6.47715 2 2 6.47715 2 12C2 17.5228 6.47715 22 12 22ZM7.8212 8.18317C7.77854 8.07948 7.80237 7.96031 7.88166 7.88102C7.96105 7.80174 8.07999 7.77808 8.1837 7.82086L17.6283 11.7096C17.7329 11.7527 17.8003 11.8545 17.8003 11.9664C17.8003 11.9731 17.8001 11.9798 17.7996 11.9867C17.7909 12.1063 17.7064 12.2069 17.59 12.236L13.3072 13.3067L12.2365 17.5895C12.2074 17.7058 12.1069 17.7903 11.9872 17.7991C11.8676 17.8078 11.7559 17.7387 11.7102 17.6278L7.8212 8.18317Z" fill="#1976D2"/>
</svg>
