<svg width="24" height="24" viewBox="0 0 24 24" fill="none" xmlns="http://www.w3.org/2000/svg">
<path d="M9.61357 20.9991C9.43527 20.9554 9.25989 20.9046 9.10951 20.7938C8.78874 20.5576 8.63086 20.2393 8.63086 19.8415C8.63128 19.0733 8.63086 18.3051 8.63086 17.5365C8.63086 16.7317 8.63086 15.9265 8.63086 15.1216V15.0066H9.75396V19.8694H19.3061V10.8771H19.2007C18.1264 10.8771 17.052 10.8779 15.9777 10.8771C15.5844 10.8771 15.2832 10.6413 15.2078 10.2747C15.1932 10.2035 15.1932 10.1289 15.1932 10.0556C15.1924 8.99332 15.1928 7.93146 15.1928 6.86918C15.1928 6.83335 15.1928 6.79711 15.1928 6.75545H9.75812V11.2445H8.63877V5.62527H8.7425C11.1116 5.62527 13.4807 5.62527 15.8498 5.62402C15.9156 5.62402 15.9627 5.64069 16.0102 5.68859C17.4648 7.14704 18.9212 8.60382 20.3788 10.0598C20.4288 10.1098 20.4467 10.1593 20.4467 10.2285C20.4455 13.7761 20.4455 17.3237 20.4455 20.8713C20.4455 20.9142 20.448 20.9571 20.4492 21H9.61357V20.9991ZM15.9502 10.1202H19.0424C18.0072 9.0733 16.9854 8.03977 15.9502 6.9929V10.1202Z" fill="#124EB0"/>
<path d="M3 3C6.49177 3 9.98396 3 13.4757 3C14.0631 3 14.5201 3.38659 14.6176 3.96313C14.6197 3.97521 14.623 3.98729 14.623 3.99937C14.623 4.28681 14.623 4.57384 14.623 4.86794H13.5078V4.13185H4.13476V17.2454H7.87607V18.3739H7.76984C6.5855 18.3739 5.40117 18.3739 4.21683 18.3739C3.5528 18.3739 3.13206 18.0223 3.0125 17.3678C3.01083 17.3595 3.00458 17.352 3 17.3441C3 12.5626 3 7.7815 3 3Z" fill="#124EB0"/>
<path d="M10.6925 14.2397H8.63672V12.001H10.6921C10.6921 11.9235 10.6909 11.8543 10.6921 11.7852C10.6975 11.5498 10.6809 11.3115 10.7146 11.0803C10.7675 10.7175 11.0641 10.5717 11.3886 10.7454C11.9435 11.0424 12.4905 11.3549 13.0404 11.6615C13.6465 11.9993 14.2522 12.3372 14.8567 12.6779C14.9383 12.7242 15.02 12.7771 15.0866 12.8425C15.257 13.0091 15.2574 13.2261 15.0875 13.3944C15.0233 13.4582 14.945 13.5111 14.8658 13.5552C13.7352 14.1889 12.6038 14.8208 11.4715 15.4511C11.4003 15.4907 11.3228 15.5244 11.2441 15.5444C11.0246 15.6006 10.8358 15.5098 10.755 15.2982C10.7159 15.1949 10.6984 15.0791 10.6946 14.9679C10.6859 14.73 10.6917 14.4913 10.6917 14.2393L10.6925 14.2397Z" fill="#124EB0"/>
<path d="M5.07227 11.4446H7.49676V12.1798H5.07227V11.4446Z" fill="#124EB0"/>
<path d="M7.49759 14.057H5.07227V13.3188H7.49759V14.057Z" fill="#124EB0"/>
<path d="M5.07422 9.37646H7.49413V10.1196H5.07422V9.37646Z" fill="#124EB0"/>
<path d="M5.07129 15.929V15.1946H7.49412V15.929H5.07129Z" fill="#124EB0"/>
<path d="M15.9473 10.1204V6.99316C16.9829 8.04045 18.0043 9.07356 19.0395 10.1204H15.9473Z" fill="#124EB0"/>
</svg>
