<svg width="16" height="16" viewBox="0 0 16 16" fill="none" xmlns="http://www.w3.org/2000/svg">
<path fill-rule="evenodd" clip-rule="evenodd" d="M3.4344 3.43417C3.58442 3.2842 3.78787 3.19994 4 3.19994C4.21213 3.19994 4.41558 3.2842 4.5656 3.43417L8 6.86857L11.4344 3.43417C11.5082 3.35776 11.5965 3.29682 11.6941 3.25489C11.7917 3.21296 11.8967 3.19089 12.0029 3.18997C12.1091 3.18905 12.2144 3.20929 12.3128 3.24951C12.4111 3.28974 12.5004 3.34914 12.5755 3.42426C12.6506 3.49937 12.71 3.58869 12.7503 3.68701C12.7905 3.78533 12.8107 3.89067 12.8098 3.99689C12.8089 4.10312 12.7868 4.20809 12.7449 4.3057C12.703 4.4033 12.642 4.49157 12.5656 4.56537L9.1312 7.99977L12.5656 11.4342C12.7113 11.5851 12.792 11.7871 12.7901 11.9969C12.7883 12.2067 12.7042 12.4073 12.5559 12.5556C12.4075 12.704 12.2069 12.7881 11.9971 12.7899C11.7874 12.7917 11.5853 12.7111 11.4344 12.5654L8 9.13097L4.5656 12.5654C4.41472 12.7111 4.21264 12.7917 4.00288 12.7899C3.79312 12.7881 3.59247 12.704 3.44415 12.5556C3.29582 12.4073 3.21168 12.2067 3.20986 11.9969C3.20804 11.7871 3.28868 11.5851 3.4344 11.4342L6.8688 7.99977L3.4344 4.56537C3.28442 4.41535 3.20017 4.2119 3.20017 3.99977C3.20017 3.78764 3.28442 3.58419 3.4344 3.43417V3.43417Z" fill="#1976D2"/>
</svg>
