<svg width="30" height="30" viewBox="0 0 30 30" fill="none" xmlns="http://www.w3.org/2000/svg">
<path d="M23.7246 2.14282H6.27558C5.4637 2.14282 4.68516 2.45797 4.11097 3.01858C3.53699 3.57943 3.21436 4.33986 3.21436 5.13286V24.8671C3.21436 25.6601 3.537 26.4205 4.11097 26.9813C4.68516 27.542 5.4637 27.8571 6.27558 27.8571H23.7246C24.5364 27.8571 25.315 27.542 25.8892 26.9813C26.4632 26.4205 26.7858 25.6601 26.7858 24.8671V5.13286C26.7858 4.33986 26.4631 3.57943 25.8892 3.01858C25.315 2.45795 24.5364 2.14282 23.7246 2.14282ZM7.50007 26.6611H6.27547C5.7884 26.6611 5.32119 26.4721 4.97675 26.1357C4.63231 25.7993 4.43886 25.3429 4.43886 24.8672V5.13297C4.43886 4.65723 4.63232 4.20088 4.97675 3.86445C5.32118 3.52803 5.78841 3.33907 6.27547 3.33907H7.49985L7.50007 26.6611ZM16.6837 8.90318C17.5678 8.90318 18.4157 9.24627 19.0409 9.85694C19.6662 10.4674 20.0174 11.2956 20.0174 12.1593C20.0174 13.0228 19.6662 13.851 19.0409 14.4617C18.4157 15.0724 17.5678 15.4155 16.6837 15.4155C15.7995 15.4155 14.9515 15.0724 14.3265 14.4617C13.7013 13.851 13.3501 13.0228 13.3501 12.1593C13.3509 11.2958 13.7024 10.4682 14.3274 9.8578C14.9525 9.2473 15.7998 8.90403 16.6837 8.90318ZM22.329 21.2219L11.0391 21.2221V19.3623C11.0386 19.2735 11.0585 19.1857 11.0974 19.1051C11.6391 18.1268 12.4482 17.3142 13.4345 16.7579C14.4206 16.2015 15.5455 15.9232 16.684 15.9537C17.8224 15.9233 18.9473 16.2015 19.9336 16.7579C20.9199 17.3142 21.7288 18.1268 22.2707 19.1051C22.3094 19.1857 22.3292 19.2735 22.3288 19.3623L22.329 21.2219Z" fill="#731475"/>
</svg>
