<svg width="40" height="40" viewBox="0 0 40 40" fill="none" xmlns="http://www.w3.org/2000/svg">
<path d="M0 4C0 1.79086 1.79086 0 4 0H36C38.2091 0 40 1.79086 40 4V36C40 38.2091 38.2091 40 36 40H4C1.79086 40 0 38.2091 0 36V4Z" fill="#00A67E"/>
<circle cx="20" cy="20" r="14" fill="white"/>
<path d="M24.4071 22.9772C23.7314 22.3014 22.7635 22.19 22.2786 22.7323L20.8984 24.2757L20.8966 24.2755H20.8963C18.6191 23.2084 16.7881 21.3762 15.7227 19.098L17.2648 17.7176C17.8066 17.2326 17.6952 16.2648 17.0196 15.5893L15.0889 13.6585C14.3411 12.9107 13.2506 12.861 12.8451 13.5696C12.1205 14.8358 11.8255 16.4361 12.095 18.2346C12.773 22.7597 16.8959 27.006 21.4375 27.8473C23.3673 28.2047 25.0838 27.9193 26.426 27.1527C27.1353 26.7477 27.086 25.6565 26.338 24.9084L24.4071 22.9772Z" fill="#00A67E"/>
<path d="M19.3223 12V12.9638C21.3673 12.9638 23.3286 13.7761 24.7746 15.2222C26.2206 16.6683 27.0331 18.6295 27.0331 20.6746H27.9968C27.9968 19.1517 27.596 17.656 26.8348 16.3374C26.0734 15.0187 24.9783 13.9236 23.6595 13.1622C22.3409 12.401 20.8451 12.0002 19.3224 12.0002L19.3223 12Z" fill="#00A67E"/>
<path d="M24.5274 20.6742H25.4911H25.491C25.4893 19.0387 24.8387 17.4708 23.6824 16.3143C22.5259 15.1577 20.9579 14.5072 19.3224 14.5054L19.3223 15.4693C20.7022 15.4709 22.0251 16.0197 23.001 16.9954C23.9767 17.9712 24.5256 19.2941 24.5273 20.6741L24.5274 20.6742Z" fill="#00A67E"/>
<path d="M19.3223 17.9756C20.0378 17.9765 20.7238 18.2611 21.2297 18.767C21.7357 19.273 22.0203 19.959 22.0212 20.6745L22.9851 20.6744C22.9838 19.7034 22.5976 18.7725 21.9109 18.0859C21.2243 17.3992 20.2935 17.013 19.3224 17.0117L19.3223 17.9756Z" fill="#00A67E"/>
</svg>
