<svg width="32" height="32" viewBox="0 0 32 32" fill="none" xmlns="http://www.w3.org/2000/svg">
<path d="M27.6029 7.50618H27.8302C28.1052 7.52524 28.3757 7.42907 28.5772 7.24056C28.7787 7.05204 28.893 6.78833 28.893 6.51209C28.893 6.23585 28.7787 5.97217 28.5772 5.78362C28.3758 5.5951 28.1052 5.49894 27.8302 5.518H25.3538L25.0743 5.58918L24.8234 5.74105C24.7968 5.75778 24.7727 5.77854 24.7524 5.80269C24.7262 5.82557 24.7023 5.85098 24.6814 5.87873L24.5725 6.04014L24.5347 6.12084L24.4778 6.31529V6.31508C24.4759 6.33245 24.4759 6.35003 24.4778 6.3674V6.41484C24.4753 6.4464 24.4753 6.47818 24.4778 6.50974V8.92002C24.4761 9.23668 24.6256 9.53515 24.8799 9.72321C25.1341 9.91109 25.4627 9.96616 25.7641 9.87127C26.0657 9.77616 26.3038 9.54274 26.405 9.24258C27.9356 11.5995 28.6222 14.4076 28.3517 17.2067C28.0813 20.0057 26.8701 22.6293 24.9165 24.6481C22.9629 26.6669 20.3829 27.9607 17.5997 28.3179C14.816 28.6748 11.9939 28.0738 9.59613 26.6131C9.37016 26.4765 9.09938 26.4356 8.84318 26.4992C8.58508 26.5703 8.36545 26.7408 8.23228 26.9736C8.09658 27.2003 8.05578 27.4714 8.11877 27.7281C8.18958 27.9868 8.35996 28.2068 8.59227 28.3401C11.3225 29.9711 14.5102 30.6627 17.6694 30.3091C20.8967 29.9526 23.9045 28.4991 26.1925 26.1907C28.6225 23.7622 30.1016 20.5404 30.3605 17.1106C30.6195 13.6813 29.6412 10.2728 27.6035 7.50564L27.6029 7.50618Z" fill="#4E586D"/>
<path d="M6.51948 22.0702C6.31148 22.0678 6.10813 22.1312 5.93797 22.2513C5.76802 22.3714 5.64013 22.5421 5.57249 22.7393C4.03996 20.382 3.35233 17.5728 3.62247 14.7725C3.89241 11.9722 5.10429 9.3472 7.05917 7.32783C9.01384 5.30836 11.5955 4.01453 14.3803 3.65849C17.1653 3.30263 19.9882 3.90568 22.3866 5.36871C22.692 5.55194 23.0717 5.55787 23.3826 5.38439C23.6933 5.21091 23.8882 4.88449 23.8939 4.528C23.8994 4.17151 23.7147 3.83896 23.4094 3.65594C20.6823 2.02131 17.4936 1.3327 14.3371 1.69639C11.1099 2.05288 8.10207 3.50639 5.81411 5.81478C3.38681 8.23883 1.9071 11.4548 1.64394 14.8786C1.38055 18.3027 2.35122 21.7078 4.37948 24.4755H4.15225C3.81403 24.499 3.5111 24.6934 3.34854 24.9912C3.18577 25.2893 3.18577 25.6498 3.34854 25.9478C3.51109 26.2456 3.81401 26.4401 4.15225 26.4636H6.65228L6.83217 26.4257L7.10211 26.3024L7.14481 26.274L7.18265 26.2408L7.25832 26.1791V26.1789C7.29109 26.1448 7.32131 26.1084 7.34837 26.0698L7.46675 25.861L7.53777 25.5763C7.5401 25.543 7.5401 25.5098 7.53777 25.4767V23.0616C7.5365 22.7941 7.42807 22.5382 7.23655 22.3516C7.04503 22.1652 6.78672 22.0635 6.51975 22.0698L6.51948 22.0702Z" fill="#4E586D"/>
<path d="M15.4653 24.3571C15.6247 24.4506 15.8061 24.4997 15.9908 24.4995C16.1756 24.5001 16.3572 24.451 16.5163 24.3571L22.956 20.6325C23.1164 20.5397 23.2494 20.4063 23.3418 20.2455C23.4339 20.0847 23.4823 19.9023 23.4817 19.7168V12.2673C23.4823 12.0817 23.4339 11.8993 23.3418 11.7386C23.2494 11.5778 23.1164 11.4444 22.956 11.3516L16.5163 7.62693C16.357 7.53351 16.1756 7.48438 15.9908 7.48438C15.8061 7.48438 15.6247 7.53352 15.4653 7.62693L9.02572 11.3516C8.86528 11.4444 8.73231 11.5778 8.63994 11.7386C8.54778 11.8993 8.49937 12.0817 8.50001 12.2673V19.7168C8.49937 19.9023 8.54778 20.0847 8.63994 20.2455C8.73231 20.4063 8.86528 20.5397 9.02572 20.6325L15.4653 24.3571ZM10.6071 14.0944L14.935 16.5996V21.6101L10.6071 19.1049V14.0944ZM17.0467 21.6052V16.6043L21.3746 14.0943V19.1046L17.0467 21.6052ZM15.9909 9.76718L20.3188 12.2677L15.9909 14.7729L11.6629 12.2677L15.9909 9.76718Z" fill="#4E586D"/>
</svg>
