<svg width="30" height="26" viewBox="0 0 30 26" fill="none" xmlns="http://www.w3.org/2000/svg">
<path d="M19.4134 0.200378H10.5865C9.87777 0.200378 9.29802 0.754124 9.29802 1.43106V3.92336H3.49933C1.88858 3.92336 0.600098 5.15404 0.600098 6.69253V11.3387C0.600098 11.7388 0.857846 12.0772 1.24434 12.2003L1.56658 12.2926V23.0312C1.56658 24.5697 2.85506 25.8004 4.46581 25.8004H25.5344C27.1451 25.8004 28.4336 24.5697 28.4336 23.0312V12.3233L28.7559 12.231C29.1424 12.108 29.4001 11.7696 29.4001 11.3695V6.69242C29.4001 5.15393 28.1116 3.92325 26.5009 3.92325H20.7022V1.43095C20.7022 0.754014 20.1221 0.200378 19.4134 0.200378ZM11.1986 2.04667H18.7691V3.92363H11.2308L11.1986 2.04667ZM26.5007 23.0317C26.5007 23.5547 26.0818 23.9548 25.5342 23.9548H4.4656C3.91798 23.9548 3.4991 23.5547 3.4991 23.0317V12.9392L11.8106 15.6161V18.5394C11.8106 19.0624 12.2294 19.4625 12.7771 19.4625H17.2228C17.7704 19.4625 18.1893 19.0625 18.1893 18.5394V15.6163L26.5007 12.9394L26.5007 23.0317ZM13.7436 17.6162V13.1237H16.2563V17.6162H13.7436ZM27.4671 6.69297V10.6622L18.1892 13.6468V12.2006C18.1892 11.6776 17.7704 11.2775 17.2227 11.2775L12.7772 11.2777C12.2296 11.2777 11.8107 11.6778 11.8107 12.2009V13.647L2.53282 10.6624L2.53305 6.69296C2.53305 6.1699 2.95191 5.76981 3.49955 5.76981H26.501C27.0486 5.76981 27.4671 6.16989 27.4671 6.69297Z" fill="#4E586D"/>
</svg>
