<svg width="14" height="14" viewBox="0 0 14 14" fill="none" xmlns="http://www.w3.org/2000/svg">
<path d="M5.66406 6.33333V10.3333M8.33073 6.33333V10.3333M1.66406 3.66667H12.3307M11.6641 3.66667L11.0861 11.7613C11.0621 12.0977 10.9116 12.4125 10.6648 12.6424C10.418 12.8722 10.0933 13 9.75606 13H4.23873C3.90149 13 3.57677 12.8722 3.32999 12.6424C3.0832 12.4125 2.93267 12.0977 2.90873 11.7613L2.33073 3.66667H11.6641ZM8.9974 3.66667V1.66667C8.9974 1.48986 8.92716 1.32029 8.80213 1.19526C8.67711 1.07024 8.50754 1 8.33073 1H5.66406C5.48725 1 5.31768 1.07024 5.19266 1.19526C5.06763 1.32029 4.9974 1.48986 4.9974 1.66667V3.66667H8.9974Z" stroke="#124eb0" stroke-width="2" stroke-linecap="round" stroke-linejoin="round"/>
</svg>
