<svg width="30" height="30" viewBox="0 0 30 30" fill="none" xmlns="http://www.w3.org/2000/svg">
<path fill-rule="evenodd" clip-rule="evenodd" d="M26.5017 11.9179C26.6379 12.307 26.8293 12.6745 27.0695 13.0091C27.5164 13.5841 27.7895 14.2749 27.8574 15C27.7895 15.7251 27.5162 16.4158 27.0693 16.9908C26.8289 17.3257 26.6378 17.6932 26.5015 18.0822C26.4205 18.504 26.4001 18.9351 26.4407 19.3624C26.5387 20.0667 26.4328 20.7844 26.1356 21.4304C25.7205 22.0165 25.1456 22.4706 24.4796 22.7391C24.095 22.9136 23.7374 23.1421 23.4177 23.4183C23.1415 23.7378 22.913 24.0956 22.7387 24.4804C22.4704 25.1462 22.0164 25.721 21.4307 26.136C20.7846 26.4328 20.0672 26.5384 19.3631 26.4408C18.9354 26.3994 18.5038 26.42 18.082 26.5021C17.693 26.6381 17.3254 26.8295 16.9906 27.0699C16.4156 27.5163 15.7251 27.7895 15.0002 27.8571C14.2753 27.7895 13.5846 27.5163 13.0094 27.0697C12.6747 26.829 12.3072 26.6379 11.9179 26.5018C11.4959 26.4204 11.0646 26.3998 10.6369 26.4406C9.93285 26.5384 9.21557 26.4325 8.56975 26.1358C7.98385 25.7206 7.52957 25.146 7.26107 24.4799C7.08673 24.0951 6.8582 23.7374 6.58227 23.4176C6.26233 23.1415 5.90436 22.913 5.51958 22.7384C4.85379 22.4701 4.27915 22.0159 3.86418 21.4302C3.5672 20.7842 3.46133 20.0667 3.55934 19.3626C3.60015 18.9351 3.57953 18.504 3.49811 18.0822C3.36225 17.693 3.17092 17.3254 2.93028 16.9908C2.48384 16.4156 2.21067 15.7249 2.14307 15C2.21066 14.2751 2.48385 13.5843 2.93049 13.0091C3.17116 12.6745 3.36227 12.3069 3.49833 11.9177C3.57975 11.4959 3.60037 11.0644 3.55955 10.6367C3.46177 9.9326 3.56742 9.21533 3.8644 8.5695C4.27958 7.9836 4.85422 7.52932 5.52023 7.26083C5.90505 7.08649 6.26282 6.85796 6.58254 6.58203C6.85867 6.26208 7.08719 5.90411 7.26172 5.51934C7.53002 4.85354 7.98428 4.2789 8.56997 3.86394C9.21622 3.56759 9.93345 3.46172 10.6376 3.55909C11.065 3.60012 11.4964 3.5795 11.9179 3.49787C12.3072 3.362 12.6748 3.17068 13.0094 2.93003C13.5846 2.48359 14.2753 2.21042 15.0002 2.14282C15.7253 2.21041 16.4158 2.48361 16.9911 2.93025C17.3259 3.17071 17.6935 3.36203 18.0825 3.49808C18.5043 3.5795 18.9358 3.60034 19.3635 3.55931C20.0674 3.46174 20.7846 3.5676 21.4304 3.86416C22.0166 4.27912 22.4708 4.85398 22.7391 5.52021C22.9135 5.9048 23.142 6.26257 23.4179 6.5823C23.7379 6.85842 24.0956 7.08716 24.4806 7.26148C25.1464 7.52978 25.7213 7.98382 26.136 8.56972C26.433 9.21576 26.5387 9.9332 26.4409 10.6373C26.4 11.0648 26.4205 11.4961 26.5017 11.9179ZM8.26628 21.7341C10.0521 23.5202 12.4745 24.5236 15.0004 24.5236L15.0005 24.5235C17.5254 24.5206 19.9461 23.5163 21.7314 21.7308C23.5169 19.9457 24.5211 17.525 24.5241 15C24.5241 12.4741 23.5207 10.0517 21.7345 8.26583C19.9488 6.47971 17.5262 5.47629 15.0004 5.47629C12.4746 5.47629 10.0522 6.47971 8.26628 8.26583C6.48017 10.0516 5.47674 12.4741 5.47674 15C5.47674 17.5258 6.48017 19.9482 8.26628 21.7341ZM8.93948 8.93886C10.547 7.33152 12.7271 6.42845 15.0004 6.42845L15.0001 6.42818C17.2728 6.43073 19.4517 7.33468 21.0584 8.94159C22.6653 10.5485 23.5692 12.7273 23.5718 14.9998C23.5718 17.2731 22.6687 19.4532 21.0614 21.0607C19.4538 22.6681 17.2737 23.5712 15.0004 23.5712C12.7271 23.5712 10.547 22.6681 8.93948 21.0607C7.33214 19.4532 6.42907 17.2731 6.42907 14.9998C6.42907 12.7265 7.33214 10.5464 8.93948 8.93886ZM10.2385 11.6665V12.6189C10.2385 13.2993 10.6016 13.9282 11.1909 14.2685C11.7802 14.6087 12.5064 14.6087 13.0957 14.2685C13.6849 13.9282 14.048 13.2994 14.048 12.6189V11.6665C14.048 10.9861 13.6849 10.3572 13.0957 10.0169C12.5064 9.67677 11.7802 9.67677 11.1909 10.0169C10.6016 10.3572 10.2385 10.986 10.2385 11.6665ZM12.8759 19.7878C13.1163 19.8943 13.3978 19.7861 13.5045 19.5457L17.3669 10.8404C17.4737 10.6 17.3652 10.3185 17.125 10.2118C16.8846 10.1053 16.6031 10.2135 16.4964 10.4539L12.6339 19.1592C12.5272 19.3996 12.6356 19.6811 12.8759 19.7878ZM18.81 19.9828C19.3993 19.6425 19.7624 19.0136 19.7624 18.3331V17.3807C19.7624 16.7003 19.3993 16.0715 18.81 15.7311C18.2208 15.391 17.4946 15.391 16.9053 15.7311C16.316 16.0714 15.9529 16.7003 15.9529 17.3807V18.3331C15.9529 19.0136 16.316 19.6424 16.9053 19.9828C17.4946 20.3229 18.2208 20.3229 18.81 19.9828ZM17.1845 16.7078C17.3631 16.5292 17.605 16.4286 17.8576 16.4284C18.1101 16.4286 18.352 16.5292 18.5306 16.7078C18.7092 16.8863 18.8097 17.1282 18.8099 17.3808V18.3332C18.8099 18.6735 18.6284 18.9879 18.3338 19.158C18.0391 19.3281 17.676 19.3281 17.3814 19.158C17.0867 18.9879 16.9052 18.6735 16.9052 18.3332V17.3808C16.9054 17.1283 17.006 16.8863 17.1845 16.7078ZM12.1433 10.7142C11.8907 10.7144 11.6486 10.8149 11.47 10.9933C11.2917 11.1718 11.1911 11.414 11.1909 11.6665V12.6189C11.1909 12.9593 11.3725 13.2737 11.6671 13.4437C11.9617 13.6138 12.3248 13.6138 12.6195 13.4437C12.9141 13.2737 13.0957 12.9592 13.0957 12.6189V11.6665C13.0955 11.414 12.9949 11.1718 12.8165 10.9933C12.638 10.8149 12.3958 10.7144 12.1433 10.7142Z" fill="#3F1475"/>
</svg>
