<svg width="40" height="40" viewBox="0 0 40 40" fill="none" xmlns="http://www.w3.org/2000/svg">
<path d="M0 4C0 1.79086 1.79086 0 4 0H36C38.2091 0 40 1.79086 40 4V36C40 38.2091 38.2091 40 36 40H4C1.79086 40 0 38.2091 0 36V4Z" fill="#E36F69"/>
<path fill-rule="evenodd" clip-rule="evenodd" d="M17.0336 31.8967C16.5523 32.1386 15.9743 31.942 15.7208 31.4501L14.1581 28.4183L10.9211 27.7991C10.3959 27.6987 10.0387 27.184 10.1097 26.6299L10.5475 23.2155L8.27639 20.7226C7.90787 20.3181 7.90787 19.6819 8.27639 19.2774L10.5475 16.7845L10.1097 13.3701C10.0387 12.816 10.3959 12.3013 10.9211 12.2009L14.1581 11.5817L15.7208 8.54994C15.9743 8.058 16.5523 7.8614 17.0336 8.10334L20 9.59441L22.9664 8.10334C23.4477 7.8614 24.0257 8.058 24.2792 8.54994L25.8419 11.5817L29.0789 12.2009C29.6041 12.3013 29.9613 12.816 29.8903 13.3701L29.4525 16.7845L31.7236 19.2774C32.0921 19.6819 32.0921 20.3181 31.7236 20.7226L29.4525 23.2155L29.8903 26.6299C29.9613 27.184 29.6041 27.6987 29.0789 27.7991L25.8419 28.4183L24.2792 31.4501C24.0257 31.942 23.4477 32.1386 22.9664 31.8967L20 30.4056L17.0336 31.8967ZM18.2071 23.3578C17.8166 23.7667 17.1834 23.7667 16.7929 23.3578C16.4024 22.949 16.4024 22.2861 16.7929 21.8772L21.7929 16.6424C22.1834 16.2336 22.8166 16.2336 23.2071 16.6424C23.5976 17.0513 23.5976 17.7142 23.2071 18.123L18.2071 23.3578ZM17.5 18.9532C16.6716 18.9532 16 18.2501 16 17.3827C16 16.5154 16.6716 15.8123 17.5 15.8123C18.3284 15.8123 19 16.5154 19 17.3827C19 18.2501 18.3284 18.9532 17.5 18.9532ZM22.5 24.1879C21.6716 24.1879 21 23.4848 21 22.6175C21 21.7502 21.6716 21.0471 22.5 21.0471C23.3284 21.0471 24 21.7502 24 22.6175C24 23.4848 23.3284 24.1879 22.5 24.1879Z" fill="white"/>
</svg>
