<svg width="11" height="7" viewBox="0 0 11 7" fill="none" xmlns="http://www.w3.org/2000/svg">
<path fill-rule="evenodd" clip-rule="evenodd" d="M0.293031 1.29357C0.480558 1.1061 0.734866 1.00078 1.00003 1.00078C1.26519 1.00078 1.5195 1.1061 1.70703 1.29357L5.00003 4.58657L8.29303 1.29357C8.38528 1.19806 8.49562 1.12188 8.61763 1.06947C8.73963 1.01706 8.87085 0.989473 9.00363 0.988319C9.13641 0.987165 9.26809 1.01247 9.39098 1.06275C9.51388 1.11303 9.62553 1.18728 9.71943 1.28117C9.81332 1.37507 9.88757 1.48672 9.93785 1.60962C9.98813 1.73251 10.0134 1.86419 10.0123 1.99697C10.0111 2.12975 9.98354 2.26097 9.93113 2.38297C9.87872 2.50498 9.80254 2.61532 9.70703 2.70757L5.70703 6.70757C5.5195 6.89504 5.26519 7.00036 5.00003 7.00036C4.73487 7.00036 4.48056 6.89504 4.29303 6.70757L0.293031 2.70757C0.10556 2.52004 0.000244141 2.26573 0.000244141 2.00057C0.000244141 1.73541 0.10556 1.4811 0.293031 1.29357V1.29357Z" fill="#4E586D"/>
</svg>
