<svg width="24" height="24" viewBox="0 0 24 24" fill="none" xmlns="http://www.w3.org/2000/svg">
<path d="M6.99959 16C6.0146 16.0011 5.06384 15.6388 4.32945 14.9823C3.59507 14.3259 3.1287 13.4216 3.0197 12.4427C2.91069 11.4638 3.16672 10.479 3.73872 9.67714C4.31072 8.87526 5.15848 8.31263 6.11959 8.09703C5.84151 6.80012 6.09001 5.44586 6.81043 4.33218C7.53085 3.21849 8.66418 2.43661 9.96109 2.15853C11.258 1.88045 12.6123 2.12895 13.7259 2.84937C14.8396 3.56979 15.6215 4.70312 15.8996 6.00003H15.9996C17.2395 5.99878 18.4357 6.45831 19.3559 7.2894C20.2761 8.12049 20.8547 9.26386 20.9793 10.4975C21.1039 11.7312 20.7657 12.9672 20.0303 13.9655C19.2949 14.9638 18.2147 15.6533 16.9996 15.9M8.99959 19L11.9996 22M11.9996 22L14.9996 19M11.9996 22V10" stroke="#124EB0" stroke-width="2" stroke-linecap="round" stroke-linejoin="round"/>
</svg>
