<svg width="14" height="14" viewBox="0 0 14 14" fill="none" xmlns="http://www.w3.org/2000/svg">
<path d="M10.2274 1.22725C10.3934 1.05533 10.5921 0.918207 10.8117 0.823871C11.0313 0.729534 11.2675 0.679879 11.5065 0.677802C11.7455 0.675725 11.9825 0.721269 12.2037 0.811774C12.4249 0.90228 12.6259 1.03594 12.7949 1.20494C12.9639 1.37395 13.0976 1.57492 13.1881 1.79614C13.2786 2.01735 13.3241 2.25437 13.322 2.49338C13.32 2.73238 13.2703 2.96857 13.176 3.18818C13.0816 3.40779 12.9445 3.60641 12.7726 3.77245L12.0589 4.48615L9.5137 1.94095L10.2274 1.22725ZM8.2411 3.21355L0.699997 10.7547V13.2999H3.2452L10.7872 5.75875L8.2402 3.21355H8.2411Z" fill="#1976D2"/>
</svg>
