<svg width="40" height="40" viewBox="0 0 40 40" fill="none" xmlns="http://www.w3.org/2000/svg">
<rect x="2" y="2" width="36" height="36" rx="4" fill="#1976D2"/>
<path d="M4 6C4 4.89543 4.89543 4 6 4H34C35.1046 4 36 4.89543 36 6V34C36 35.1046 35.1046 36 34 36H6C4.89543 36 4 35.1046 4 34V6Z" fill="white"/>
<path d="M7 18C7 17.4477 7.44772 17 8 17H12C12.5523 17 13 17.4477 13 18V22C13 22.5523 12.5523 23 12 23H8C7.44772 23 7 22.5523 7 22V18Z" fill="#1976D2"/>
<path d="M7 27C7 26.4477 7.44772 26 8 26H12C12.5523 26 13 26.4477 13 27V31C13 31.5523 12.5523 32 12 32H8C7.44772 32 7 31.5523 7 31V27Z" fill="#1976D2"/>
<path d="M15 18.5C15 18.2239 15.2239 18 15.5 18L32.5 18C32.7761 18 33 18.2239 33 18.5C33 18.7761 32.7761 19 32.5 19H15.5C15.2239 19 15 18.7761 15 18.5Z" fill="#1976D2"/>
<path d="M15 27.5C15 27.2239 15.2239 27 15.5 27L32.5 27C32.7761 27 33 27.2239 33 27.5C33 27.7761 32.7761 28 32.5 28H15.5C15.2239 28 15 27.7761 15 27.5Z" fill="#1976D2"/>
<path d="M15 21.5C15 21.2239 15.2239 21 15.5 21L32.5 21C32.7761 21 33 21.2239 33 21.5C33 21.7761 32.7761 22 32.5 22H15.5C15.2239 22 15 21.7761 15 21.5Z" fill="#1976D2"/>
<path d="M15 30.5C15 30.2239 15.2239 30 15.5 30L32.5 30C32.7761 30 33 30.2239 33 30.5C33 30.7761 32.7761 31 32.5 31H15.5C15.2239 31 15 30.7761 15 30.5Z" fill="#1976D2"/>
<path d="M7 9C7 8.44772 7.44772 8 8 8H32C32.5523 8 33 8.44772 33 9V13C33 13.5523 32.5523 14 32 14H8C7.44772 14 7 13.5523 7 13L7 9Z" fill="#1976D2"/>
</svg>
