<svg width="16" height="22" viewBox="0 0 16 22" fill="none" xmlns="http://www.w3.org/2000/svg">
<path fill-rule="evenodd" clip-rule="evenodd" d="M14.2678 0.717259H5.10793C5.07662 0.713306 5.04514 0.713306 5.01383 0.717259H4.97283L4.92456 0.733428L4.8763 0.762892C4.86339 0.767923 4.85128 0.775109 4.8403 0.784272C4.81318 0.803495 4.78817 0.825953 4.76557 0.851284L0.426524 5.63602C0.403764 5.66117 0.383586 5.68902 0.366317 5.7192C0.358246 5.73196 0.350982 5.74543 0.344687 5.75945L0.320636 5.81317L0.306108 5.86689C0.30062 5.88162 0.296584 5.89671 0.294002 5.91234C0.286415 5.95384 0.283994 5.99624 0.286738 6.03846V19.676C0.286738 20.103 0.439117 20.5125 0.710463 20.8143C0.981644 21.1161 1.34952 21.2857 1.73304 21.2857H14.2679C14.6514 21.2857 15.0193 21.1161 15.2905 20.8143C15.5618 20.5125 15.7142 20.103 15.7142 19.676V2.32711C15.7142 1.90006 15.5618 1.49059 15.2905 1.18878C15.0193 0.886955 14.6513 0.717259 14.2678 0.717259ZM1.93329 5.50181L4.62586 2.54962V5.50181H1.93329ZM3.28564 13.5714H12.7142C12.8279 13.5714 12.9369 13.5263 13.0173 13.4459C13.0976 13.3655 13.1428 13.2565 13.1428 13.1429C13.1428 13.0292 13.0976 12.9202 13.0173 12.8398C12.9369 12.7594 12.8279 12.7143 12.7142 12.7143H3.28564C3.17198 12.7143 3.06297 12.7594 2.9826 12.8398C2.90223 12.9202 2.85707 13.0292 2.85707 13.1429C2.85707 13.2565 2.90223 13.3655 2.9826 13.4459C3.06297 13.5263 3.17198 13.5714 3.28564 13.5714ZM12.7142 11.8572H3.28564C3.17198 11.8572 3.06297 11.812 2.9826 11.7316C2.90223 11.6513 2.85707 11.5422 2.85707 11.4286C2.85707 11.3149 2.90223 11.2059 2.9826 11.1255C3.06297 11.0452 3.17198 11 3.28564 11H12.7142C12.8279 11 12.9369 11.0452 13.0173 11.1255C13.0976 11.2059 13.1428 11.3149 13.1428 11.4286C13.1428 11.5422 13.0976 11.6513 13.0173 11.7316C12.9369 11.812 12.8279 11.8572 12.7142 11.8572ZM3.28564 17H12.7142C12.8279 17 12.9369 16.9549 13.0173 16.8745C13.0976 16.7941 13.1428 16.6851 13.1428 16.5714C13.1428 16.4578 13.0976 16.3488 13.0173 16.2684C12.9369 16.188 12.8279 16.1429 12.7142 16.1429H3.28564C3.17198 16.1429 3.06297 16.188 2.9826 16.2684C2.90223 16.3488 2.85707 16.4578 2.85707 16.5714C2.85707 16.6851 2.90223 16.7941 2.9826 16.8745C3.06297 16.9549 3.17198 17 3.28564 17ZM12.7142 15.2857H3.28564C3.17198 15.2857 3.06297 15.2406 2.9826 15.1602C2.90223 15.0798 2.85707 14.9708 2.85707 14.8572C2.85707 14.7435 2.90223 14.6345 2.9826 14.5541C3.06297 14.4737 3.17198 14.4286 3.28564 14.4286H12.7142C12.8279 14.4286 12.9369 14.4737 13.0173 14.5541C13.0976 14.6345 13.1428 14.7435 13.1428 14.8572C13.1428 14.9708 13.0976 15.0798 13.0173 15.1602C12.9369 15.2406 12.8279 15.2857 12.7142 15.2857Z" fill="#D0DAEC"/>
</svg>
