<svg width="24" height="24" viewBox="0 0 24 24" fill="none" xmlns="http://www.w3.org/2000/svg">
<path d="M20.9962 3.99997C20.9962 3.44772 20.5485 3 19.9962 3H13.9962C13.4438 3 12.9962 3.44769 12.9962 3.99997C12.9962 4.55236 13.4438 5.00008 13.9962 5.00008H17.7779L12.7069 10.071C12.3164 10.4616 12.3164 11.0947 12.7069 11.4853C13.0975 11.8759 13.7306 11.8759 14.1212 11.4853L18.9961 6.61046V10.0001C18.9961 10.5524 19.4438 11.0001 19.9961 11.0001C20.5483 11.0001 20.9961 10.5524 20.9961 10.0001L20.9962 3.99997Z" fill="#124EB0"/>
<path d="M10.0002 3.99997C10.0002 3.44772 9.55249 3 9.00006 3H4.99994C3.89539 3 3 3.89541 3 5.00005V18.9999C3 20.1046 3.89542 21 4.99994 21H19.0001C20.1046 21 21 20.1046 21 18.9999V14.9999C21 14.4477 20.5523 13.9999 20 13.9999C19.4477 13.9999 19 14.4476 19 14.9999V18.9999H4.99991V5.00005H9.00002C9.55242 5.00005 10.0002 4.5524 10.0002 3.99997Z" fill="#124EB0"/>
</svg>
