<svg width="24" height="24" viewBox="0 0 24 24" fill="none" xmlns="http://www.w3.org/2000/svg">
<path d="M20.9964 3.99997C20.9964 3.44772 20.5487 3 19.9964 3H13.9964C13.444 3 12.9964 3.44769 12.9964 3.99997C12.9964 4.55236 13.444 5.00008 13.9964 5.00008H17.7781L12.7071 10.071C12.3166 10.4616 12.3166 11.0947 12.7071 11.4853C13.0977 11.8759 13.7308 11.8759 14.1214 11.4853L18.9963 6.61046V10.0001C18.9963 10.5524 19.444 11.0001 19.9963 11.0001C20.5485 11.0001 20.9962 10.5524 20.9962 10.0001L20.9964 3.99997Z" fill="#134C85"/>
<path d="M11.0002 3.99997C11.0002 3.44772 10.5525 3 10.0001 3H4.99994C3.89539 3 3 3.89541 3 5.00005V18.9999C3 20.1046 3.89542 21 4.99994 21H19.0001C20.1046 21 21 20.1046 21 18.9999V13.9999C21 13.4477 20.5523 12.9999 20 12.9999C19.4477 12.9999 19 13.4476 19 13.9999V18.9999H4.99991V5.00005H10C10.5524 5.00005 11.0001 4.55236 11.0001 3.99994L11.0002 3.99997Z" fill="#134C85"/>
</svg>
