<svg width="22" height="14" viewBox="0 0 22 14" fill="none" xmlns="http://www.w3.org/2000/svg">
<path d="M21.4132 6.68669C19.1665 2.53335 15.2265 0.0200195 10.8665 0.0200195C6.50648 0.0200195 2.55982 2.53335 0.333151 6.68669L0.146484 7.00002L0.319818 7.32002C2.56648 11.4734 6.50648 13.9867 10.8665 13.9867C15.2265 13.9867 19.1732 11.5067 21.4132 7.32002L21.5865 7.00002L21.4132 6.68669ZM10.8665 12.62C7.11315 12.62 3.66648 10.5267 1.66648 7.00002C3.66648 3.47335 7.11315 1.38002 10.8665 1.38002C14.6198 1.38002 18.0265 3.48002 20.0598 7.00002C18.0265 10.5267 14.6132 12.62 10.8665 12.62Z" fill="#134C85"/>
<path d="M11.0598 11.5934C13.5856 11.5934 15.6332 9.5458 15.6332 7.02002C15.6332 4.49424 13.5856 2.44669 11.0598 2.44669C8.53404 2.44669 6.48648 4.49424 6.48648 7.02002C6.48648 9.5458 8.53404 11.5934 11.0598 11.5934Z" fill="#134C85"/>
</svg>
