<svg width="24" height="24" viewBox="0 0 24 24" fill="none" xmlns="http://www.w3.org/2000/svg">
<path fill-rule="evenodd" clip-rule="evenodd" d="M12.0043 17C9.13728 17 6.55344 15.5651 4.27609 12.7563C3.91366 12.3093 3.91367 11.6906 4.27611 11.2437C6.55346 8.43488 9.13729 7 12.0043 7C14.8713 7 17.4551 8.43489 19.7325 11.2437C20.0949 11.6907 20.0949 12.3094 19.7324 12.7563C17.4551 15.5651 14.8713 17 12.0043 17ZM12.0043 15.75C14.4129 15.75 16.6272 14.5204 18.6706 12C16.6272 9.47973 14.4129 8.25004 12.0043 8.25004C9.5958 8.25004 7.38148 9.47972 5.33801 12.0001C7.38147 14.5204 9.59579 15.75 12.0043 15.75ZM12.0036 14.5001C10.5304 14.5001 9.33618 13.3808 9.33618 12.0001C9.33618 10.6194 10.5304 9.50009 12.0036 9.50009C13.4767 9.50009 14.671 10.6194 14.671 12.0001C14.671 13.3808 13.4767 14.5001 12.0036 14.5001ZM12.0036 13.2499C12.7402 13.2499 13.3373 12.6903 13.3373 11.9999C13.3373 11.3095 12.7402 10.7499 12.0036 10.7499C11.267 10.7499 10.6699 11.3095 10.6699 11.9999C10.6699 12.6903 11.267 13.2499 12.0036 13.2499Z" fill="#4E586D"/>
</svg>
