<svg width="32" height="32" viewBox="0 0 32 32" fill="none" xmlns="http://www.w3.org/2000/svg">
<rect width="32" height="32" fill="white"/>
<rect width="32" height="32" fill="#2F6EB6"/>
<path d="M26.0314 19.4121C25.72 19.2442 26.0036 18.9642 26.0036 18.9642L27.1947 19.104L25.7311 18.4375C25.7813 18.4595 26.0042 18.5479 26.4003 18.5721C26.8542 18.6 27.28 18.5163 27.28 18.5163C27.28 18.5163 26.883 18.3762 26.5422 18.3762C26.2018 18.3762 26.1171 18.0965 26.1171 18.0965L27.2516 18.0125C27.2516 18.0125 27.1096 17.8166 26.2305 17.8446C25.3508 17.8724 25.4927 17.5365 25.4927 17.5365C25.4927 17.5365 25.805 17.3686 26.0601 17.2848C26.3156 17.2008 26.4856 16.8369 26.4856 16.8369C26.4856 16.8369 26.0601 16.9489 25.5778 16.9489C25.0954 16.9489 25.0672 16.5569 25.0672 16.5569C25.0672 16.5569 25.4077 16.445 25.6628 16.1932C25.9182 15.9413 26.3722 16.1932 26.3722 16.1932C26.3722 16.1932 26.0886 15.969 25.805 15.9132C25.5212 15.8572 25.0103 15.9132 25.0103 15.9132L26.0314 15.4092C26.0314 15.4092 25.6347 15.4933 25.3227 15.6614C25.0103 15.8292 24.7268 15.6054 24.7268 15.6054L25.0672 15.2414C25.0672 15.2414 24.3866 15.1855 24.0174 15.2414C23.6488 15.2975 23.1949 15.4375 23.5638 15.2134C23.9324 14.9894 24.3297 14.0659 24.3297 14.0659C24.3297 14.0659 24.0462 14.4296 23.6773 14.7376C23.3084 15.0455 22.7975 14.8774 22.7975 14.8774C22.7975 14.8774 23.1099 14.4018 23.3368 14.0099C23.5638 13.6181 23.1667 13.3661 23.1667 13.3661C23.1667 13.3661 22.9113 13.9539 22.599 14.3737C22.287 14.7937 22.0034 14.2897 22.0034 14.2897C22.0034 14.2897 22.1169 13.9257 22.287 13.758C22.4574 13.5899 22.8547 13.4499 22.8547 13.4499C22.8547 13.4499 22.4289 13.4499 22.1451 13.5341C21.8615 13.6181 21.6345 13.982 21.6345 13.982C21.6345 13.982 21.9181 12.8624 21.8049 13.2261C21.6914 13.5899 21.0108 13.7301 21.0108 13.7301C21.0108 13.7301 21.124 12.8064 21.0387 13.0861C20.9539 13.3661 20.273 13.5061 20.4431 13.0302C20.6135 12.5545 20.4431 11.9665 20.4431 11.9665C20.4431 11.9665 20.3015 12.2464 19.8757 12.6103C19.4502 12.9741 19.252 12.8063 19.1382 12.5545C19.025 12.3024 18.5145 11.6586 18.5423 11.9105C18.5711 12.1625 18.2022 12.8624 18.1171 12.6943C18.0318 12.5264 17.5497 12.1626 17.6063 12.4424C17.648 12.6478 17.5086 13.0444 17.4315 13.2412C17.2933 12.4363 17.2206 11.5904 17.2206 10.9264C17.2206 10.4516 17.4378 9.81876 17.6894 9.0859C18.1253 7.81488 18.6681 6.2328 18.2973 4.71896C17.7444 2.46472 15.9461 1.60795 15.7719 1.52997C15.6966 1.4476 15.2086 0.955502 14.3579 1.00325C14.184 1.01289 14.0206 1.01729 13.8429 1.01729C13.7611 1.01729 13.6852 1.01642 13.6122 1.01558C13.5445 1.01473 13.4794 1.01398 13.4146 1.01398C13.2436 1.01398 13.0489 1.01873 12.7871 1.05322C12.4274 1.10038 12.2352 1.1797 12.0654 1.24963C11.9598 1.29324 11.86 1.33444 11.7297 1.36295C11.5334 1.40605 11.321 1.54691 11.0516 1.72516C10.8209 1.87818 10.5588 2.0517 10.2392 2.20933C9.78656 2.43278 9.70405 2.49822 9.57918 2.59741C9.51027 2.65234 9.43188 2.7145 9.26971 2.82098C8.8733 3.08195 8.98521 3.5709 9.10312 3.80165C9.09395 3.80651 9.08446 3.81141 9.0753 3.8164C8.90491 3.90813 8.53063 4.34187 8.65044 4.25794C8.66056 4.25085 8.67226 4.24527 8.6849 4.24003C8.68079 4.24624 8.67636 4.2527 8.67225 4.25915C8.5575 4.2846 8.43959 4.32081 8.34539 4.37306C8.06752 4.52708 7.21749 5.69099 7.40874 6.82056C7.59967 7.95012 8.57078 8.66898 8.57078 8.66898C8.57078 8.66898 8.72694 8.73744 8.91787 8.63473C9.10849 8.53214 8.7791 7.95013 8.7791 7.95013C8.7791 7.95013 8.57078 7.83048 8.65739 7.60787C8.74433 7.38542 8.8831 7.45363 8.8831 7.45363C8.8831 7.45363 8.89385 7.40881 8.92957 7.33972L10.1049 7.44437C10.1049 7.44437 10.1469 7.41683 10.2797 7.43049C10.4125 7.44437 10.587 7.69255 10.6429 7.69255C10.6552 7.69255 10.697 7.69876 10.7573 7.70731L10.7602 7.71071C10.6682 7.69779 10.6062 7.68756 10.6062 7.68756L10.8876 8.11472L11.2173 8.53227L11.2015 8.55616C11.1888 8.57478 10.8967 9.0156 10.9375 9.41244C10.9511 9.54902 11.0969 9.83753 11.2985 10.2368C11.6915 11.0152 12.2854 12.1917 12.3619 13.1726C12.4154 13.8569 12.2045 14.6376 11.9561 15.5376L11.5638 15.7174L11.309 16.0532L10.855 16.0252L11.167 16.221L10.7981 16.361L11.394 16.781C11.394 16.781 11.1101 16.781 10.7412 16.669C10.3726 16.5569 10.0888 16.8369 10.0888 16.8369C10.0888 16.8369 10.4295 16.9489 10.7131 17.0328C10.9966 17.1168 11.1386 17.4247 11.1386 17.4247C11.1386 17.4247 10.855 17.2848 10.5715 17.2007C10.2876 17.1168 10.0322 17.2007 10.0322 17.2007L10.2591 17.4247L9.46475 17.6207C9.46475 17.6207 9.91901 17.7887 10.4861 17.9284C11.0532 18.0684 10.7697 18.4042 10.7697 18.4042L9.63514 18.4884C9.63514 18.4884 10.0888 18.5721 10.4295 18.6C10.7697 18.6283 10.8263 19.0202 10.8263 19.0202L10.1172 18.7126L9.77675 18.7963L10.2876 19.104H9.20933L9.35158 19.3842L9.32313 19.6639C9.32313 19.6639 10.0037 19.7479 10.1457 19.8319C10.2876 19.9161 9.80521 20.0001 9.80521 20.0001C9.80521 20.0001 9.4363 19.9161 9.01081 19.9719C8.58532 20.028 8.35867 20.2238 8.35867 20.2238C8.35867 20.2238 8.58532 20.4198 8.86919 20.4198C9.15274 20.4198 9.46475 20.5596 9.46475 20.5596L9.52165 20.9794L8.61377 20.9514L9.06771 21.2033H8.58532L9.52165 21.6512L8.58532 21.8191C8.58532 21.8191 9.01081 21.9312 9.4363 22.0711C9.72396 22.1656 10.0107 22.1069 10.1672 22.0588L9.20933 22.4071L10.3726 22.2111C10.3726 22.2111 10.2307 22.3231 9.97559 22.4632C9.72017 22.6031 8.75571 22.6589 8.75571 22.6589L8.61377 22.9108C8.61377 22.9108 9.20933 23.1348 9.74831 23.1909C10.2876 23.2469 10.7131 23.8067 10.7131 23.8067H9.97559L10.2026 24.0022L10.9116 24.1143L10.1741 24.4502L11.2521 24.4223C11.2521 24.4223 11.7345 24.4781 11.8476 24.7021C11.9611 24.9259 11.5925 24.786 11.5925 24.786C11.5925 24.786 11.1386 24.5902 10.5715 24.6741C10.0037 24.7579 9.74831 24.8981 9.74831 24.8981C9.74831 24.8981 10.2307 24.8981 10.6565 24.8699C11.082 24.842 11.4787 25.1218 11.4787 25.1218L9.4932 25.8216L11.7626 25.2901L9.8248 26.3427C9.94714 26.2769 10.6884 25.8936 11.6207 25.7658C12.6423 25.6261 12.3866 25.9895 12.3866 25.9895C12.3866 25.9895 12.3016 26.1857 11.8195 26.2135C11.3368 26.2417 10.4295 27.193 10.4295 27.193C10.4295 27.193 11.167 26.8293 12.0746 26.4933C12.9825 26.1574 13.1525 26.5494 13.1525 26.5494L12.2165 27.6131L13.8335 26.8015L12.6136 28.6206L14.7695 26.7175C14.7695 26.7175 14.4578 27.0254 14.7129 26.9693C14.9683 26.9133 15.2803 26.0736 15.2803 26.0736V26.6333C15.2803 26.9691 15.5354 27.2491 15.5354 27.2491L15.9328 27.2771C15.9328 27.2771 15.5639 27.5852 15.5639 28.0889C15.5639 28.5927 15.9328 29.0685 15.9328 29.0685C15.9328 29.0685 16.0181 28.6485 15.9609 28.2289C15.9043 27.8092 16.5283 27.725 16.5283 27.725L16.7838 29.3203C16.7838 29.3203 16.8122 29.0127 16.7556 28.8164C16.6987 28.6206 17.2943 27.8929 17.2943 27.8929C17.2943 27.8929 17.2093 28.1729 17.1239 28.5369C17.0392 28.9008 17.0958 28.8164 17.2658 29.4044C17.4359 29.9925 17.4931 30.2441 17.4931 30.2441L17.6916 29.7123C17.6916 29.7123 17.7482 29.9083 17.8333 30.1883C17.9186 30.468 18.3726 31 18.3726 31C18.3726 31 18.1171 30.3562 18.0318 29.9365C17.9464 29.5165 18.1737 29.2085 18.1737 29.2085C18.1737 29.2085 18.2588 29.4605 18.3726 29.8244C18.4857 30.1883 19.252 30.8042 19.252 30.8042C19.252 30.8042 18.9112 30.3002 18.7693 29.9083C18.6277 29.5165 18.7411 29.1806 18.7411 29.1806C18.7411 29.1806 19.2235 29.8244 19.5068 30.1323C19.7903 30.4403 20.188 30.72 20.188 30.72C20.188 30.72 19.6487 30.1323 19.4217 29.7965C19.2387 29.5253 19.3329 29.072 19.3759 28.9073C19.3652 28.996 19.399 29.1649 19.7341 29.3203C20.2161 29.5449 20.3581 29.6844 20.3581 29.6844L19.7906 29.0127C19.7906 29.0127 19.3651 28.8448 19.9326 28.9008C20.3881 28.9457 20.6969 29.2967 20.8009 29.4335L20.3581 28.8164C20.3581 28.8164 20.585 28.9566 20.897 29.0967C21.209 29.2366 21.4363 29.5723 21.4363 29.5723L21.266 29.0406L22.1169 29.5165L20.8689 28.6206C20.8689 28.6206 20.7839 28.4809 21.2944 28.4809C21.8049 28.4809 22.3439 28.7606 22.3439 28.7606L21.3225 27.9208L23.1383 28.509C23.1383 28.509 22.826 28.2289 22.2304 28.0329C21.6345 27.8368 21.8049 27.6131 21.8049 27.6131C21.8049 27.6131 21.89 27.4732 22.3155 27.6689C22.7413 27.865 23.4219 28.4527 23.4219 28.4527L23.0533 27.6411L23.7054 28.1168L23.4503 27.4452L24.1031 28.005C24.1031 28.005 24.1312 27.7531 23.8758 27.3051C23.6204 26.8573 23.4219 26.5215 23.4219 26.5215C23.4219 26.5215 23.6488 26.6054 23.9042 26.8015C24.1597 26.9972 24.4148 27.4171 24.4148 27.4171C24.4148 27.4171 24.3866 26.6614 24.2728 26.2694C24.1597 25.8774 23.6204 25.178 23.6204 25.178L24.4432 25.9335C24.4432 25.9335 23.4503 24.3381 23.5638 24.5063C23.6773 24.6741 24.2728 24.8699 24.2728 24.8699L25.5212 25.6537L24.1031 24.1143C24.1031 24.1143 26.0314 24.786 25.4927 24.4781C24.9537 24.1705 24.4432 23.6664 24.1031 23.4706C23.7626 23.2748 23.0814 22.519 23.0814 22.519L24.7837 23.4427L23.4503 22.2392C23.4503 22.2392 24.0462 22.6029 24.5852 22.9108C25.1241 23.2188 26.0601 24.0863 26.0601 24.0863C26.0601 24.0863 25.8898 23.6106 25.3511 23.1909C24.8118 22.771 24.3866 22.1832 24.3866 22.1832L25.5212 22.2953C25.5212 22.2953 24.6983 22.015 24.2162 21.8191C23.7339 21.6236 23.8758 21.0636 23.8758 21.0636L23.9042 20.7277L24.3297 20.8953L24.7268 21.6512L24.6421 21.0076L25.9182 22.379C25.9182 22.379 25.2661 21.4554 25.1241 21.0076C24.9819 20.5598 25.1523 20.5319 25.1523 20.5319L26.5141 20.8395L25.6347 20.0838H27.28C27.28 20.0838 26.3437 19.58 26.0314 19.4121" fill="white"/>
<path d="M27.5611 8.22414C26.1993 6.59065 21.9715 7.76907 17.1865 10.8392C17.184 10.8797 17.1745 10.9256 17.1745 10.964C17.1745 11.1004 17.1792 11.2487 17.1856 11.3985C20.8477 9.33568 24.1135 8.76817 25.3325 10.2465C26.1901 11.2868 25.8661 13.1346 24.656 15.259C23.5148 17.2625 21.5859 19.512 19.1085 21.5648C16.6949 23.5649 14.1998 25.0107 12.0591 25.7747C11.277 26.0539 10.5443 26.241 9.8795 26.3287C9.87697 26.3291 9.87444 26.3293 9.8716 26.3297C8.5123 26.5076 7.43846 26.2781 6.84922 25.5633C5.62333 24.0766 6.80876 20.9419 9.55137 17.7049C9.57951 17.6714 9.60764 17.638 9.63609 17.6045C9.83043 17.3781 10.0288 17.155 10.231 16.9355C10.3078 16.8519 10.3837 16.7683 10.4627 16.6847C10.6268 16.5109 10.7969 16.3372 10.9695 16.1639C10.9979 16.1352 11.027 16.1067 11.0558 16.0781C11.3656 15.7693 11.688 15.4622 12.0231 15.1577C12.0714 14.9774 12.1166 14.8015 12.1565 14.6311C6.16357 19.8508 2.72867 25.5827 4.43916 27.6341C5.56801 28.988 8.66657 28.409 12.4185 26.4236C14.5501 25.2956 16.8919 23.7153 19.2052 21.7734C21.5723 19.7863 23.5745 17.7027 25.0688 15.7584C27.6053 12.458 28.6751 9.56022 27.5611 8.22414V8.22414ZM20.794 29.5259C20.794 29.5259 20.7801 29.5048 20.7545 29.4712L20.794 29.5259Z" fill="#1E88E5"/>
</svg>
