<svg width="30" height="30" viewBox="0 0 30 30" fill="none" xmlns="http://www.w3.org/2000/svg">
<path d="M15 29.3996C7.04706 29.3996 0.599976 22.9525 0.599976 14.9996C0.599976 7.0467 7.04706 0.599609 15 0.599609C22.9529 0.599609 29.4 7.0467 29.4 14.9996C29.4 22.9525 22.9529 29.3996 15 29.3996ZM15 26.9995C21.6276 26.9995 26.9998 21.6273 26.9998 14.9997C26.9998 8.37211 21.6276 2.99988 15 2.99988C8.37238 2.99988 3.00015 8.37211 3.00015 14.9997C3.00015 21.6273 8.37238 26.9995 15 26.9995ZM8.9998 11.9999C8.00579 11.9999 7.1998 11.1939 7.1998 10.1999C7.1998 9.20567 8.00579 8.39988 8.9998 8.39988C9.99402 8.39988 10.7998 9.20567 10.7998 10.1999C10.7998 11.1939 9.99402 11.9999 8.9998 11.9999ZM11.9999 10.1999C11.9999 9.53712 12.5355 8.99975 13.1968 8.99975H21.6028C22.264 8.99975 22.7999 9.53249 22.7999 10.1999C22.7999 10.8626 22.2644 11.3998 21.6028 11.3998H13.1968C12.5357 11.3998 11.9999 10.8673 11.9999 10.1999ZM8.9998 16.7997C8.00579 16.7997 7.1998 15.9937 7.1998 14.9997C7.1998 14.0057 8.00579 13.1997 8.9998 13.1997C9.99402 13.1997 10.7998 14.0057 10.7998 14.9997C10.7998 15.9937 9.99402 16.7997 8.9998 16.7997ZM11.9999 14.9997C11.9999 14.337 12.5355 13.7998 13.1968 13.7998H21.6028C22.264 13.7998 22.7999 14.3323 22.7999 14.9997C22.7999 15.6625 22.2644 16.1996 21.6028 16.1996H13.1968C12.5357 16.1996 11.9999 15.6671 11.9999 14.9997ZM8.9998 21.5995C8.00579 21.5995 7.1998 20.7938 7.1998 19.7995C7.1998 18.8055 8.00579 17.9995 8.9998 17.9995C9.99402 17.9995 10.7998 18.8055 10.7998 19.7995C10.7998 20.7938 9.99402 21.5995 8.9998 21.5995ZM11.9999 19.7995C11.9999 19.1368 12.5355 18.5996 13.1968 18.5996H21.6028C22.264 18.5996 22.7999 19.1322 22.7999 19.7995C22.7999 20.4623 22.2644 20.9997 21.6028 20.9997H13.1968C12.5357 20.9997 11.9999 20.4669 11.9999 19.7995Z" fill="#2E374A"/>
</svg>
