<svg width="40" height="40" viewBox="0 0 40 40" fill="none" xmlns="http://www.w3.org/2000/svg">
<path d="M0 4C0 1.79086 1.79086 0 4 0H36C38.2091 0 40 1.79086 40 4V36C40 38.2091 38.2091 40 36 40H4C1.79086 40 0 38.2091 0 36V4Z" fill="#1976D2"/>
<path fill-rule="evenodd" clip-rule="evenodd" d="M17.5 10C20.5376 10 23 12.4624 23 15.5C23 18.5376 20.5376 21 17.5 21C14.4624 21 12 18.5376 12 15.5C12 12.4624 14.4624 10 17.5 10ZM8.94997 30C8.42531 30 8 29.613 8 29.1357V27.3215C8 24.9348 10.1266 23 12.7498 23H22.2502C24.8734 23 27 24.9348 27 27.3215V29.1357C27 29.613 26.5747 30 26.05 30H8.94997ZM28.4581 15.0816L31.4427 16.3607C31.9138 16.5626 32.2064 17.0809 32.0807 17.6195C31.908 18.3594 31.5503 19.4726 31.0011 20.5503C30.4672 21.598 29.6849 22.7468 28.5974 23.4077C28.4372 23.5089 28.2512 23.5625 28.0625 23.5626C27.8738 23.5625 27.6878 23.5089 27.5276 23.4077C26.4401 22.7468 25.6578 21.598 25.1239 20.5503C24.5747 19.4726 24.217 18.3594 24.0443 17.6195C23.9186 17.0809 24.2112 16.5626 24.6823 16.3607L27.6669 15.0816L27.6773 15.0772C27.8032 15.0246 27.9339 14.9997 28.0625 14.9997C28.1911 14.9997 28.3218 15.0246 28.4477 15.0772L28.4581 15.0816ZM28.0625 21.3011C28.4845 20.8911 28.8772 20.3132 29.2191 19.6422C29.5265 19.0391 29.7647 18.4168 29.9318 17.8891L28.0625 17.088V21.3011Z" fill="white"/>
<path d="M31.4427 16.3607L31.423 16.4066L31.4427 16.3607ZM28.4581 15.0816L28.4778 15.0356L28.4776 15.0355L28.4581 15.0816ZM32.0807 17.6195L32.1294 17.6309L32.0807 17.6195ZM31.0011 20.5503L30.9565 20.5276L31.0011 20.5503ZM28.5974 23.4077L28.5714 23.3649L28.5707 23.3654L28.5974 23.4077ZM28.0625 23.5626L28.0625 23.6126H28.0625L28.0625 23.5626ZM27.5276 23.4077L27.5543 23.3654L27.5536 23.3649L27.5276 23.4077ZM25.1239 20.5503L25.1685 20.5276L25.1239 20.5503ZM24.0443 17.6195L23.9956 17.6309L24.0443 17.6195ZM24.6823 16.3607L24.702 16.4066L24.6823 16.3607ZM27.6669 15.0816L27.6474 15.0355L27.6472 15.0356L27.6669 15.0816ZM27.6773 15.0772L27.658 15.031L27.6577 15.0311L27.6773 15.0772ZM28.0625 14.9997L28.0625 15.0497H28.0625L28.0625 14.9997ZM28.4477 15.0772L28.4673 15.0311L28.467 15.031L28.4477 15.0772ZM29.2191 19.6422L29.1746 19.6195L29.2191 19.6422ZM28.0625 21.3011H28.0125V21.4194L28.0973 21.337L28.0625 21.3011ZM29.9318 17.8891L29.9795 17.9042L29.9931 17.861L29.9515 17.8431L29.9318 17.8891ZM28.0625 17.088L28.0822 17.042L28.0125 17.0121V17.088H28.0625ZM23.05 15.5C23.05 12.4348 20.5652 9.95 17.5 9.95V10.05C20.51 10.05 22.95 12.49 22.95 15.5H23.05ZM17.5 21.05C20.5652 21.05 23.05 18.5652 23.05 15.5H22.95C22.95 18.51 20.51 20.95 17.5 20.95V21.05ZM11.95 15.5C11.95 18.5652 14.4348 21.05 17.5 21.05V20.95C14.49 20.95 12.05 18.51 12.05 15.5H11.95ZM17.5 9.95C14.4348 9.95 11.95 12.4348 11.95 15.5H12.05C12.05 12.49 14.49 10.05 17.5 10.05V9.95ZM7.95 29.1357C7.95 29.645 8.40225 30.05 8.94997 30.05V29.95C8.44838 29.95 8.05 29.5811 8.05 29.1357H7.95ZM7.95 27.3215V29.1357H8.05V27.3215H7.95ZM12.7498 22.95C10.1035 22.95 7.95 24.9029 7.95 27.3215H8.05C8.05 24.9668 10.1496 23.05 12.7498 23.05V22.95ZM22.2502 22.95H12.7498V23.05H22.2502V22.95ZM27.05 27.3215C27.05 24.9029 24.8965 22.95 22.2502 22.95V23.05C24.8504 23.05 26.95 24.9668 26.95 27.3215H27.05ZM27.05 29.1357V27.3215H26.95V29.1357H27.05ZM26.05 30.05C26.5977 30.05 27.05 29.645 27.05 29.1357H26.95C26.95 29.5811 26.5516 29.95 26.05 29.95V30.05ZM8.94997 30.05H26.05V29.95H8.94997V30.05ZM31.4624 16.3147L28.4778 15.0356L28.4384 15.1275L31.423 16.4066L31.4624 16.3147ZM32.1294 17.6309C32.2608 17.0675 31.9547 16.5257 31.4624 16.3147L31.423 16.4066C31.873 16.5995 32.1519 17.0943 32.032 17.6082L32.1294 17.6309ZM31.0456 20.5731C31.597 19.4912 31.9559 18.3741 32.1294 17.6309L32.032 17.6082C31.8601 18.3447 31.5037 19.454 30.9565 20.5276L31.0456 20.5731ZM28.6234 23.4504C29.7227 22.7823 30.5102 21.6236 31.0456 20.5731L30.9565 20.5276C30.4241 21.5724 29.6471 22.7112 28.5714 23.3649L28.6234 23.4504ZM28.0625 23.6126C28.2606 23.6125 28.4559 23.5562 28.6241 23.4499L28.5707 23.3654C28.4185 23.4615 28.2417 23.5125 28.0625 23.5126L28.0625 23.6126ZM27.5009 23.4499C27.6691 23.5562 27.8644 23.6125 28.0625 23.6126L28.0625 23.5126C27.8833 23.5125 27.7065 23.4615 27.5543 23.3654L27.5009 23.4499ZM25.0794 20.5731C25.6148 21.6236 26.4023 22.7823 27.5016 23.4504L27.5536 23.3649C26.4779 22.7112 25.7009 21.5724 25.1685 20.5276L25.0794 20.5731ZM23.9956 17.6309C24.1691 18.3741 24.528 19.4912 25.0794 20.5731L25.1685 20.5276C24.6213 19.454 24.2649 18.3447 24.093 17.6082L23.9956 17.6309ZM24.6626 16.3147C24.1703 16.5257 23.8642 17.0675 23.9956 17.6309L24.093 17.6082C23.9731 17.0943 24.252 16.5995 24.702 16.4066L24.6626 16.3147ZM27.6472 15.0356L24.6626 16.3147L24.702 16.4066L27.6866 15.1275L27.6472 15.0356ZM27.6577 15.0311L27.6474 15.0355L27.6864 15.1276L27.6968 15.1232L27.6577 15.0311ZM28.0625 14.9497C27.9274 14.9497 27.7901 14.9758 27.658 15.031L27.6965 15.1233C27.8162 15.0733 27.9404 15.0497 28.0625 15.0497L28.0625 14.9497ZM28.467 15.031C28.3349 14.9758 28.1976 14.9497 28.0625 14.9497L28.0625 15.0497C28.1846 15.0497 28.3088 15.0733 28.4285 15.1233L28.467 15.031ZM28.4776 15.0355L28.4673 15.0311L28.4282 15.1232L28.4385 15.1276L28.4776 15.0355ZM29.1746 19.6195C28.8341 20.2876 28.4444 20.8603 28.0277 21.2653L28.0973 21.337C28.5246 20.9219 28.9202 20.3389 29.2637 19.6649L29.1746 19.6195ZM29.8841 17.874C29.7177 18.3997 29.4805 19.0193 29.1746 19.6195L29.2637 19.6649C29.5725 19.0589 29.8117 18.434 29.9795 17.9042L29.8841 17.874ZM28.0428 17.1339L29.9121 17.935L29.9515 17.8431L28.0822 17.042L28.0428 17.1339ZM28.1125 21.3011V17.088H28.0125V21.3011H28.1125Z" fill="white"/>
</svg>
