<svg width="24" height="24" viewBox="0 0 24 24" fill="none" xmlns="http://www.w3.org/2000/svg">
<path fill-rule="evenodd" clip-rule="evenodd" d="M21.9999 11.2626V12.3971C21.5753 11.6997 21.0061 11.0983 20.3332 10.6337V7.66343C15.067 10.1616 8.933 10.1616 3.66679 7.66343V10.7674C6.18351 12.131 8.95739 12.8336 11.7391 12.8749C11.4922 13.3834 11.3184 13.9333 11.231 14.5111C8.63672 14.4074 6.05909 13.7784 3.66679 12.624V16.5367C6.3194 17.9462 9.24675 18.6372 12.1687 18.6095C12.5937 19.2298 13.1374 19.7638 13.7675 20.1798C9.88932 20.5327 5.92744 19.7215 2.43389 17.7464C2.17542 17.6064 2.00014 17.3346 2.00014 17.0224V11.2626C1.99996 11.2527 1.99996 11.2428 2.00014 11.2329V6.31396C1.99986 6.29884 2 6.2837 2.00056 6.26854C1.98956 5.97189 2.14119 5.67937 2.41954 5.52169C8.35487 2.15944 15.6451 2.15944 21.5805 5.52169C21.8588 5.67937 22.0104 5.97189 21.9994 6.26854C22 6.2837 22.0001 6.29884 21.9999 6.31396V11.2329L22 11.2447L21.9999 11.2626ZM4.58584 6.26854C9.28556 8.42702 14.7144 8.42702 19.4142 6.26854C14.7144 4.11006 9.28556 4.11006 4.58584 6.26854Z" fill="#124EB0"/>
<path d="M18.1853 12.8695L17.5915 12.2817C19.2926 12.383 20.6406 13.7807 20.6406 15.49C20.6406 16.3472 20.3007 17.15 19.7045 17.7479C19.5245 17.9284 19.5264 18.2191 19.7087 18.3973C19.891 18.5754 20.1848 18.5735 20.3647 18.3931C21.1307 17.625 21.5684 16.5911 21.5684 15.49C21.5684 13.27 19.7999 11.4589 17.5814 11.3616L18.1853 10.7638C18.3664 10.5845 18.3664 10.2937 18.1853 10.1144C18.0041 9.9351 17.7104 9.9351 17.5292 10.1144L16.1376 11.4919C15.9564 11.6713 15.9564 11.962 16.1376 12.1413L17.5292 13.5188C17.7104 13.6981 18.0041 13.6981 18.1853 13.5188C18.3664 13.3395 18.3664 13.0488 18.1853 12.8695Z" fill="#124EB0"/>
<path d="M13.2183 15.4899C13.2183 17.7099 14.9868 19.5211 17.2054 19.6184L16.6014 20.2161C16.4203 20.3955 16.4203 20.6862 16.6014 20.8655C16.7826 21.0448 17.0763 21.0448 17.2575 20.8655L18.6492 19.488C18.8303 19.3087 18.8303 19.0179 18.6492 18.8386L17.2575 17.4611C17.0763 17.2818 16.7826 17.2818 16.6014 17.4611C16.4203 17.6404 16.4203 17.9312 16.6014 18.1105L17.1953 18.6983C15.4941 18.5969 14.1461 17.1992 14.1461 15.4899C14.1461 14.631 14.4874 13.8267 15.0858 13.2285C15.2661 13.0483 15.2646 12.7575 15.0826 12.5791C14.9005 12.4007 14.6068 12.4021 14.4265 12.5823C13.6578 13.3508 13.2183 14.3866 13.2183 15.4899Z" fill="#124EB0"/>
</svg>
