<svg width="32" height="32" viewBox="0 0 32 32" fill="none" xmlns="http://www.w3.org/2000/svg">
<g clip-path="url(#clip0_26786_600621)">
<path d="M26.0804 19.6395C25.7542 19.4604 26.0512 19.1618 26.0512 19.1618L27.2991 19.3108L25.7657 18.5999C25.8184 18.6235 26.0519 18.7177 26.4669 18.7436C26.9424 18.7733 27.3885 18.684 27.3885 18.684C27.3885 18.684 26.9726 18.5346 26.6156 18.5346C26.2589 18.5346 26.1701 18.2362 26.1701 18.2362L27.3587 18.1466C27.3587 18.1466 27.21 17.9377 26.289 17.9676C25.3673 17.9972 25.516 17.6389 25.516 17.6389C25.516 17.6389 25.8432 17.4598 26.1105 17.3704C26.3781 17.2808 26.5563 16.8926 26.5563 16.8926C26.5563 16.8926 26.1105 17.0121 25.6051 17.0121C25.0997 17.0121 25.0703 16.594 25.0703 16.594C25.0703 16.594 25.4269 16.4746 25.6942 16.206C25.9618 15.9373 26.4374 16.206 26.4374 16.206C26.4374 16.206 26.1403 15.9669 25.8432 15.9074C25.5458 15.8476 25.0107 15.9074 25.0107 15.9074L26.0804 15.3698C26.0804 15.3698 25.6647 15.4594 25.3379 15.6388C25.0106 15.8177 24.7136 15.579 24.7136 15.579L25.0703 15.1908C25.0703 15.1908 24.3572 15.1312 23.9704 15.1908C23.5842 15.2506 23.1087 15.3999 23.4952 15.1609C23.8813 14.922 24.2976 13.9369 24.2976 13.9369C24.2976 13.9369 24.0005 14.3249 23.6141 14.6534C23.2276 14.9818 22.6924 14.8025 22.6924 14.8025C22.6924 14.8025 23.0196 14.2952 23.2574 13.8771C23.4952 13.4592 23.0792 13.1904 23.0792 13.1904C23.0792 13.1904 22.8116 13.8175 22.4844 14.2652C22.1575 14.7132 21.8604 14.1757 21.8604 14.1757C21.8604 14.1757 21.9793 13.7873 22.1575 13.6085C22.336 13.4292 22.7523 13.2798 22.7523 13.2798C22.7523 13.2798 22.3062 13.2798 22.0088 13.3696C21.7117 13.4592 21.474 13.8474 21.474 13.8474C21.474 13.8474 21.771 12.6532 21.6525 13.0411C21.5336 13.4292 20.8205 13.5787 20.8205 13.5787C20.8205 13.5787 20.9391 12.5934 20.8497 12.8918C20.7609 13.1904 20.0476 13.3398 20.2257 12.8321C20.4042 12.3248 20.2257 11.6976 20.2257 11.6976C20.2257 11.6976 20.0774 11.9961 19.6313 12.3843C19.1855 12.7723 18.9778 12.5934 18.8586 12.3248C18.74 12.0559 18.2052 11.3691 18.2343 11.6378C18.2645 11.9065 17.878 12.6532 17.7889 12.4738C17.6995 12.2947 17.1944 11.9067 17.2537 12.2052C17.2974 12.4243 17.1514 12.8473 17.0706 13.0572C16.9258 12.1987 16.8497 11.2964 16.8497 10.5881C16.8497 10.0816 17.0772 9.4066 17.3408 8.62488C17.7975 7.26912 18.3661 5.58156 17.9777 3.9668C17.3984 1.56227 15.5143 0.648371 15.3319 0.565195C15.253 0.477329 14.7417 -0.0475731 13.8505 0.00336266C13.6683 0.0136433 13.4971 0.0183353 13.311 0.0183353C13.2252 0.0183353 13.1457 0.0174026 13.0692 0.0165043C12.9983 0.0156059 12.9301 0.0148067 12.8622 0.0148067C12.6831 0.0148067 12.479 0.0198669 12.2048 0.0566635C11.8279 0.106968 11.6266 0.191574 11.4487 0.266165C11.3381 0.312677 11.2335 0.356627 11.097 0.387035C10.8914 0.433014 10.6688 0.583261 10.3866 0.773399C10.1449 0.936623 9.87032 1.12171 9.5355 1.28985C9.06124 1.5282 8.9748 1.598 8.84398 1.7038C8.77179 1.76239 8.68966 1.8287 8.51976 1.94228C8.10446 2.22065 8.2217 2.74219 8.34523 2.98832C8.33563 2.99352 8.32569 2.99874 8.31608 3.00406C8.13757 3.10191 7.74546 3.56456 7.87097 3.47503C7.88157 3.46748 7.89383 3.46153 7.90708 3.45594C7.90277 3.46256 7.89813 3.46944 7.89382 3.47633C7.7736 3.50348 7.65007 3.5421 7.55138 3.59783C7.26027 3.76212 6.36972 5.00363 6.57009 6.20851C6.77012 7.41338 7.78752 8.18016 7.78752 8.18016C7.78752 8.18016 7.95112 8.25319 8.15115 8.14363C8.35086 8.0342 8.00577 7.41338 8.00577 7.41338C8.00577 7.41338 7.78752 7.28576 7.87826 7.04831C7.96933 6.81103 8.11472 6.88379 8.11472 6.88379C8.11472 6.88379 8.12599 6.83598 8.16341 6.76229L9.39474 6.87391C9.39474 6.87391 9.43879 6.84453 9.57789 6.8591C9.71699 6.87391 9.8998 7.13864 9.95842 7.13864C9.97133 7.13864 10.015 7.14526 10.0783 7.15438L10.0813 7.158C9.98491 7.14423 9.91999 7.13331 9.91999 7.13331L10.2148 7.58895L10.5602 8.03434L10.5436 8.05982C10.5304 8.07968 10.2244 8.54989 10.2671 8.97319C10.2813 9.11888 10.434 9.42663 10.6453 9.85248C11.0569 10.6828 11.6792 11.9377 11.7594 12.984C11.8154 13.7139 11.5945 14.5467 11.3341 15.5067L10.9231 15.6985L10.6562 16.0567L10.1806 16.0268L10.5075 16.2357L10.121 16.385L10.7453 16.833C10.7453 16.833 10.4479 16.833 10.0614 16.7135C9.67525 16.594 9.37785 16.8926 9.37785 16.8926C9.37785 16.8926 9.73487 17.0121 10.0319 17.1016C10.329 17.1912 10.4777 17.5196 10.4777 17.5196C10.4777 17.5196 10.1806 17.3704 9.88357 17.2807C9.58617 17.1912 9.31857 17.2807 9.31857 17.2807L9.55636 17.5196L8.7241 17.7287C8.7241 17.7287 9.20001 17.9079 9.79415 18.057C10.3883 18.2063 10.0912 18.5645 10.0912 18.5645L8.9026 18.6543C8.9026 18.6543 9.37785 18.7436 9.73487 18.7733C10.0912 18.8035 10.1505 19.2215 10.1505 19.2215L9.40766 18.8934L9.05097 18.9827L9.58617 19.3108H8.4565L8.60553 19.6097L8.57573 19.9081C8.57573 19.9081 9.28877 19.9977 9.43747 20.0873C9.58617 20.1772 9.08078 20.2667 9.08078 20.2667C9.08078 20.2667 8.69429 20.1772 8.24852 20.2367C7.80275 20.2965 7.56529 20.5053 7.56529 20.5053C7.56529 20.5053 7.80275 20.7144 8.10015 20.7144C8.39722 20.7144 8.7241 20.8635 8.7241 20.8635L8.78371 21.3113L7.83256 21.2814L8.30813 21.5502H7.80275L8.78371 22.0279L7.80275 22.207C7.80275 22.207 8.24852 22.3266 8.69429 22.4758C8.99566 22.5766 9.29605 22.514 9.45999 22.4627L8.4565 22.8342L9.67525 22.6251C9.67525 22.6251 9.52655 22.7447 9.25929 22.894C8.99169 23.0433 7.98126 23.1028 7.98126 23.1028L7.83256 23.3715C7.83256 23.3715 8.4565 23.6105 9.02117 23.6703C9.58617 23.73 10.0319 24.3271 10.0319 24.3271H9.25929L9.49707 24.5357L10.2399 24.6552L9.46727 25.0135L10.5966 24.9838C10.5966 24.9838 11.102 25.0433 11.2205 25.2822C11.3394 25.5209 10.9533 25.3717 10.9533 25.3717C10.9533 25.3717 10.4777 25.1629 9.88357 25.2524C9.28877 25.3417 9.02117 25.4913 9.02117 25.4913C9.02117 25.4913 9.52655 25.4913 9.97266 25.4613C10.4184 25.4315 10.8341 25.7299 10.8341 25.7299L8.7539 26.4764L11.1315 25.9094L9.10131 27.0322C9.22948 26.962 10.0061 26.5532 10.9828 26.4168C12.0531 26.2678 11.7852 26.6555 11.7852 26.6555C11.7852 26.6555 11.6961 26.8647 11.1911 26.8943C10.6854 26.9245 9.73487 27.9392 9.73487 27.9392C9.73487 27.9392 10.5075 27.5513 11.4583 27.1929C12.4095 26.8345 12.5877 27.2527 12.5877 27.2527L11.607 28.3873L13.301 27.5215L12.023 29.462L14.2817 27.432C14.2817 27.432 13.9551 27.7604 14.2224 27.7006C14.49 27.6408 14.8169 26.7452 14.8169 26.7452V27.3422C14.8169 27.7004 15.0841 27.999 15.0841 27.999L15.5004 28.0289C15.5004 28.0289 15.1139 28.3576 15.1139 28.8948C15.1139 29.4322 15.5004 29.9397 15.5004 29.9397C15.5004 29.9397 15.5898 29.4917 15.5299 29.0441C15.4706 28.5965 16.1244 28.5066 16.1244 28.5066L16.392 30.2083C16.392 30.2083 16.4218 29.8802 16.3625 29.6708C16.3029 29.462 16.9268 28.6857 16.9268 28.6857C16.9268 28.6857 16.8377 28.9844 16.7483 29.3727C16.6596 29.7609 16.7188 29.6708 16.897 30.298C17.0752 30.9253 17.1351 31.1937 17.1351 31.1937L17.3431 30.6264C17.3431 30.6264 17.4024 30.8355 17.4915 31.1342C17.5809 31.4326 18.0565 32 18.0565 32C18.0565 32 17.7889 31.3133 17.6995 30.8656C17.6101 30.4176 17.8482 30.089 17.8482 30.089C17.8482 30.089 17.9373 30.3578 18.0565 30.746C18.1751 31.1342 18.9778 31.7912 18.9778 31.7912C18.9778 31.7912 18.6208 31.2535 18.4721 30.8355C18.3237 30.4176 18.4426 30.0593 18.4426 30.0593C18.4426 30.0593 18.948 30.746 19.2448 31.0744C19.5418 31.403 19.9585 31.7013 19.9585 31.7013C19.9585 31.7013 19.3935 31.0744 19.1557 30.7162C18.9639 30.427 19.0626 29.9435 19.1077 29.7678C19.0964 29.8624 19.1318 30.0425 19.4829 30.2083C19.9879 30.4479 20.1366 30.5967 20.1366 30.5967L19.5422 29.8802C19.5422 29.8802 19.0964 29.7011 19.6909 29.7609C20.1681 29.8087 20.4917 30.1832 20.6006 30.3291L20.1366 29.6708C20.1366 29.6708 20.3744 29.8204 20.7013 29.9698C21.0282 30.1191 21.2663 30.4771 21.2663 30.4771L21.0878 29.91L21.9793 30.4176L20.6718 29.462C20.6718 29.462 20.5827 29.3129 21.1176 29.3129C21.6525 29.3129 22.2171 29.6113 22.2171 29.6113L21.1471 28.7155L23.0494 29.3429C23.0494 29.3429 22.7222 29.0442 22.0982 28.835C21.474 28.6259 21.6525 28.3873 21.6525 28.3873C21.6525 28.3873 21.7416 28.238 22.1873 28.4469C22.6334 28.656 23.3465 29.2829 23.3465 29.2829L22.9603 28.4171L23.6435 28.9246L23.3763 28.2082L24.0602 28.8053C24.0602 28.8053 24.0896 28.5366 23.822 28.0588C23.5544 27.5811 23.3465 27.2229 23.3465 27.2229C23.3465 27.2229 23.5843 27.3124 23.8518 27.5215C24.1194 27.7304 24.3867 28.1782 24.3867 28.1782C24.3867 28.1782 24.3572 27.3722 24.238 26.954C24.1194 26.5359 23.5544 25.7898 23.5544 25.7898L24.4165 26.5957C24.4165 26.5957 23.3763 24.894 23.4952 25.0733C23.6141 25.2524 24.238 25.4613 24.238 25.4613L25.5458 26.2973L24.0602 24.6552C24.0602 24.6552 26.0804 25.3717 25.516 25.0433C24.9514 24.7151 24.4165 24.1775 24.0602 23.9687C23.7035 23.7598 22.9898 22.9535 22.9898 22.9535L24.7732 23.9389L23.3763 22.6551C23.3763 22.6551 24.0005 23.0431 24.5652 23.3715C25.1299 23.7 26.1105 24.6253 26.1105 24.6253C26.1105 24.6253 25.932 24.118 25.3677 23.6703C24.8027 23.2224 24.3572 22.5953 24.3572 22.5953L25.5458 22.7149C25.5458 22.7149 24.6838 22.416 24.1787 22.207C23.6733 21.9984 23.822 21.4011 23.822 21.4011L23.8518 21.0428L24.2976 21.2216L24.7136 22.0279L24.6248 21.3414L25.9618 22.8042C25.9618 22.8042 25.2786 21.8191 25.1299 21.3414C24.9808 20.8637 25.1594 20.834 25.1594 20.834L26.5861 21.1621L25.6647 20.356H27.3885C27.3885 20.356 26.4076 19.8186 26.0804 19.6395Z" fill="white"/>
<path d="M27.6841 7.70581C26.2574 5.96342 21.8281 7.2204 16.815 10.4952C16.8124 10.5385 16.8024 10.5873 16.8024 10.6284C16.8024 10.7738 16.8074 10.932 16.814 11.0918C20.6508 8.89146 24.0722 8.28611 25.3493 9.86304C26.2478 10.9727 25.9083 12.9437 24.6405 15.2097C23.445 17.3467 21.4241 19.7462 18.8286 21.9359C16.3 24.0694 13.686 25.6115 11.4433 26.4265C10.6239 26.7242 9.85622 26.9239 9.15974 27.0174C9.15709 27.0178 9.15444 27.0181 9.15146 27.0185C7.72738 27.2082 6.60236 26.9635 5.98503 26.201C4.70071 24.6152 5.94264 21.2714 8.81598 17.8186C8.84545 17.7829 8.87493 17.7473 8.90473 17.7115C9.10833 17.47 9.31613 17.2321 9.52802 16.9979C9.6085 16.9088 9.68798 16.8196 9.77078 16.7305C9.94266 16.545 10.1208 16.3598 10.3017 16.1749C10.3315 16.1443 10.3619 16.1139 10.3921 16.0834C10.7166 15.754 11.0544 15.4264 11.4055 15.1017C11.4562 14.9093 11.5035 14.7216 11.5452 14.54C5.26669 20.1076 1.66807 26.2217 3.4601 28.4098C4.64275 29.854 7.889 29.2364 11.8198 27.1187C14.053 25.9155 16.5064 24.2297 18.93 22.1584C21.4098 20.0389 23.5076 17.8163 25.0731 15.7424C27.7305 12.222 28.8512 9.13097 27.6841 7.70581ZM20.5945 30.4277C20.5945 30.4277 20.5799 30.4053 20.5531 30.3694L20.5945 30.4277Z" fill="#1E88E5"/>
</g>
<defs>
<clipPath id="clip0_26786_600621">
<rect width="32" height="32" fill="white"/>
</clipPath>
</defs>
</svg>
