<svg width="24" height="24" viewBox="0 0 24 24" fill="none" xmlns="http://www.w3.org/2000/svg">
<path d="M12.4142 10.7783C12.4142 11.3306 12.8619 11.7783 13.4142 11.7783L19.4142 11.7783C19.9666 11.7783 20.4142 11.3306 20.4142 10.7783C20.4142 10.226 19.9666 9.77824 19.4142 9.77824L15.6325 9.77824L20.7035 4.7073C21.094 4.31671 21.094 3.68361 20.7035 3.29302C20.3129 2.90244 19.6798 2.90244 19.2892 3.29302L14.4143 8.16786L14.4143 4.77821C14.4143 4.22595 13.9666 3.77823 13.4143 3.77823C12.8621 3.77823 12.4143 4.22592 12.4143 4.77821L12.4142 10.7783Z" fill="#134C85"/>
<path d="M11.0002 3.99997C11.0002 3.44772 10.5525 3 10.0001 3H4.99994C3.89539 3 3 3.89541 3 5.00005V18.9999C3 20.1046 3.89542 21 4.99994 21H19.0001C20.1046 21 21 20.1046 21 18.9999V13.9999C21 13.4477 20.5523 12.9999 20 12.9999C19.4477 12.9999 19 13.4476 19 13.9999V18.9999H4.99991V5.00005H10C10.5524 5.00005 11.0001 4.55236 11.0001 3.99994L11.0002 3.99997Z" fill="#134C85"/>
</svg>
