<svg width="301" height="300" viewBox="0 0 301 300" fill="none" xmlns="http://www.w3.org/2000/svg">
<path d="M246.224 170.868H201.116V220.824H246.224V170.868Z" fill="#EBEBEB"/>
<path d="M269.516 170.868H246.224V220.824H269.516V170.868Z" fill="#DBDBDB"/>
<path d="M267.914 217.38C266.19 213.828 264.48 210.264 262.784 206.688L257.732 195.948L252.746 185.148C251.09 181.548 249.452 177.932 247.832 174.3C249.552 177.852 251.26 181.416 252.956 184.992L258.014 195.738L263 206.538C264.656 210.138 266.294 213.752 267.914 217.38Z" fill="#EBEBEB"/>
<path d="M267.914 174.306C266.294 177.938 264.656 181.554 263 185.154L258.014 195.954L252.956 206.7C251.264 210.268 249.556 213.83 247.832 217.386C249.432 213.762 251.07 210.148 252.746 206.544L257.732 195.744L262.784 184.998C264.476 181.422 266.186 177.858 267.914 174.306Z" fill="#EBEBEB"/>
<path d="M246.224 95.424H201.116V141.936H246.224V95.424Z" fill="#EBEBEB"/>
<path d="M269.516 95.424H246.224V141.936H269.516V95.424Z" fill="#DBDBDB"/>
<path d="M227.498 106.218H226.544H225.83L225.416 105.384L224.84 106.218L224.066 104.508L223.328 106.218H221.216H220.25L219.902 105.078L219.572 106.218H218.948V95.424H227.498V106.218Z" fill="#DBDBDB"/>
<path d="M267.914 138.966C266.19 135.658 264.48 132.34 262.784 129.012L257.732 119.01L252.746 108.96C251.09 105.604 249.452 102.238 247.832 98.862C249.552 102.166 251.26 105.484 252.956 108.816L258.014 118.8L263 128.844C264.656 132.216 266.294 135.59 267.914 138.966Z" fill="#EBEBEB"/>
<path d="M267.914 98.862C266.294 102.238 264.656 105.604 263 108.96L258.014 119.01L252.956 129C251.264 132.328 249.556 135.646 247.832 138.954C249.432 135.582 251.07 132.216 252.746 128.856L257.732 118.8L262.784 108.792C264.476 105.464 266.186 102.154 267.914 98.862Z" fill="#EBEBEB"/>
<path d="M243.254 134.04H238.244V139.05H243.254V134.04Z" fill="white"/>
<path d="M79.5797 130.608H34.4717V177.12H79.5797V130.608Z" fill="#EBEBEB"/>
<path d="M102.872 130.608H79.5801V177.12H102.872V130.608Z" fill="#DBDBDB"/>
<path d="M101.3 174.156C99.5717 170.844 97.8617 167.526 96.1697 164.202L91.0997 154.2L86.1077 144.156C84.4597 140.804 82.8237 137.438 81.1997 134.058C82.9237 137.366 84.6317 140.682 86.3237 144.006L91.3817 154.014L96.3677 164.064C98.0157 167.412 99.6597 170.776 101.3 174.156Z" fill="#EBEBEB"/>
<path d="M101.3 134.052C99.6758 137.424 98.0378 140.79 96.3858 144.15L91.3698 154.2L86.2998 164.202C84.6078 167.53 82.8998 170.848 81.1758 174.156C82.7958 170.78 84.4318 167.414 86.0838 164.058L91.0998 154.008L96.1398 144C97.8318 140.676 99.5518 137.36 101.3 134.052Z" fill="#EBEBEB"/>
<path d="M76.6101 169.224H71.6001V174.234H76.6101V169.224Z" fill="white"/>
<path d="M249.23 141.936H204.122V170.868H249.23V141.936Z" fill="#DBDBDB"/>
<path d="M272.522 141.936H249.23V170.868H272.522V141.936Z" fill="#C7C7C7"/>
<path d="M230.504 152.73H229.55H228.83L228.422 151.902L227.846 152.73L227.072 151.02L226.334 152.73H224.222H223.256L222.908 151.59L222.578 152.73H221.954V141.936H230.504V152.73Z" fill="white"/>
<path d="M270.92 169.146C269.192 167.046 267.482 164.938 265.79 162.822L260.738 156.462L255.752 150.078C254.096 147.942 252.458 145.802 250.838 143.658C252.562 145.758 254.27 147.866 255.962 149.982L261.02 156.342L266.006 162.726C267.662 164.862 269.3 167.002 270.92 169.146Z" fill="#DBDBDB"/>
<path d="M270.92 143.658C269.3 145.806 267.662 147.944 266.006 150.072L261.02 156.462L255.962 162.822C254.27 164.934 252.562 167.042 250.838 169.146C252.438 166.998 254.076 164.858 255.752 162.726L260.738 156.342L265.79 149.982C267.482 147.87 269.192 145.762 270.92 143.658Z" fill="#DBDBDB"/>
<path d="M76.6158 101.676H31.5078V130.608H76.6158V101.676Z" fill="#DBDBDB"/>
<path d="M99.9141 101.676H76.6221V130.608H99.9141V101.676Z" fill="#C7C7C7"/>
<path d="M57.8898 112.47H56.9358H56.2218L55.8078 111.642L55.2378 112.47L54.4578 110.76L53.7198 112.47H51.6078H50.6418L50.2938 111.33L49.9638 112.47H49.3398V101.676H57.8898V112.47Z" fill="white"/>
<path d="M98.3001 128.886C96.5761 126.786 94.8681 124.678 93.1761 122.562L88.1001 116.202L83.1381 109.8C81.4821 107.664 79.8441 105.524 78.2241 103.38C79.9521 105.48 81.6621 107.588 83.3541 109.704L88.4061 116.064L93.3921 122.448C95.0641 124.596 96.7001 126.742 98.3001 128.886Z" fill="#DBDBDB"/>
<path d="M98.2998 103.398C96.6998 105.546 95.0618 107.686 93.3858 109.818L88.3998 116.202L83.3478 122.562C81.6558 124.674 79.9458 126.782 78.2178 128.886C79.8378 126.738 81.4758 124.598 83.1318 122.466L88.0998 116.082L93.1578 109.722C94.8658 107.61 96.5798 105.502 98.2998 103.398Z" fill="#DBDBDB"/>
<path d="M73.586 177.12H28.478V220.818H73.586V177.12Z" fill="#DBDBDB"/>
<path d="M96.8779 177.12H73.5859V220.818H96.8779V177.12Z" fill="#C7C7C7"/>
<path d="M54.8597 187.92H53.9057H53.1857L52.7777 187.086L52.2017 187.92L51.4217 186.204L50.6837 187.92H48.5717H47.6117L47.2637 186.774L46.9337 187.92H46.3037V177.12H54.8597V187.92Z" fill="white"/>
<path d="M95.2999 218.22C93.5719 215.048 91.8619 211.864 90.1699 208.668L85.1179 199.068L80.1259 189.42C78.4699 186.22 76.8319 182.99 75.2119 179.73C76.9399 182.902 78.6499 186.086 80.3419 189.282L85.3939 198.882L90.3859 208.53C92.0219 211.746 93.6599 214.976 95.2999 218.22Z" fill="#DBDBDB"/>
<path d="M95.2999 179.724C93.6719 182.964 92.0339 186.194 90.3859 189.414L85.3939 199.062L80.3419 208.662C78.6499 211.862 76.9399 215.046 75.2119 218.214C76.8359 214.974 78.4739 211.744 80.1259 208.524L85.0999 198.882L90.1519 189.282C91.8399 186.086 93.5559 182.9 95.2999 179.724Z" fill="#DBDBDB"/>
<path d="M44.0537 195.036L36.1817 195.198L32.1857 195.27C30.8477 195.27 29.5037 195.27 28.1657 195.3H27.9017V195.036L27.8657 188.322V188.016H28.1657L36.1097 188.052C38.7617 188.052 41.4077 188.118 44.0537 188.148H44.2217V188.31C44.2217 189.444 44.1677 190.578 44.1437 191.7L44.0537 195.036ZM44.0537 195.036L43.9697 191.64C43.9697 190.524 43.9037 189.42 43.8917 188.322L44.0537 188.484C41.4077 188.514 38.7617 188.58 36.1097 188.58L28.1657 188.622L28.4657 188.322V195.036L28.1957 194.766C29.5037 194.766 30.8117 194.766 32.1257 194.796L36.0737 194.868L44.0537 195.036Z" fill="#EBEBEB"/>
<path d="M35.1919 203.502L27.3199 203.664L23.3239 203.736C21.9859 203.736 20.6419 203.736 19.3039 203.766H19.0399V203.502L19.0039 196.8V196.494H19.3039L27.2479 196.53C29.8939 196.53 32.5459 196.596 35.1919 196.626H35.3599V196.8C35.3599 197.934 35.3119 199.068 35.2819 200.19L35.1919 203.502ZM35.1919 203.502L35.1079 200.106C35.1079 198.99 35.0419 197.886 35.0299 196.788L35.1919 196.95C32.5459 196.98 29.8939 197.046 27.2479 197.046L19.3039 197.082L19.6039 196.788L19.5739 203.502L19.3039 203.232C20.6119 203.232 21.9199 203.232 23.2339 203.232L27.1819 203.304L35.1919 203.502Z" fill="#EBEBEB"/>
<path d="M203.66 81.96L195.782 82.128L191.786 82.194C190.454 82.194 189.11 82.194 187.772 82.23H187.508V81.96L187.478 75.246V74.946H187.778L195.722 74.982C198.368 74.982 201.02 75.054 203.666 75.084H203.834V75.246C203.834 76.386 203.786 77.52 203.756 78.636L203.66 81.96ZM203.66 81.96L203.576 78.57C203.576 77.448 203.51 76.344 203.498 75.246L203.66 75.408C201.014 75.408 198.362 75.504 195.716 75.51L187.772 75.546L188.072 75.246L188.036 81.96L187.772 81.69C189.08 81.69 190.388 81.69 191.696 81.726L195.644 81.792L203.66 81.96Z" fill="#EBEBEB"/>
<path d="M194.798 90.426L186.92 90.6L182.924 90.666C181.592 90.696 180.248 90.666 178.91 90.702H178.64V90.432V83.718V83.4H178.94L186.884 83.436C189.53 83.436 192.176 83.508 194.828 83.538H194.99V83.7C194.99 84.84 194.936 85.974 194.912 87.09L194.798 90.426ZM194.798 90.426L194.714 87.036C194.684 85.914 194.642 84.81 194.63 83.712L194.798 83.874C192.146 83.904 189.5 83.97 186.854 83.976L178.91 84.012L179.21 83.712L179.174 90.426L178.91 90.156C180.218 90.156 181.526 90.156 182.834 90.192L186.782 90.258L194.798 90.426Z" fill="#EBEBEB"/>
<path d="M185.966 81.96L178.094 82.128L174.098 82.194C172.76 82.194 171.422 82.194 170.078 82.23H169.814V81.96L169.778 75.246V74.946H170.078L178.022 74.982C180.674 74.982 183.32 75.054 185.966 75.084H186.134V75.246C186.134 76.386 186.08 77.52 186.056 78.636L185.966 81.96ZM185.966 81.96L185.9 78.6C185.9 77.478 185.834 76.374 185.822 75.276L185.984 75.438C183.338 75.438 180.692 75.534 178.04 75.54L170.096 75.576L170.396 75.276L170.366 81.99L170.096 81.72C171.41 81.72 172.712 81.72 174.026 81.756L177.974 81.822L185.966 81.96Z" fill="#EBEBEB"/>
<path d="M281.696 203.502L273.818 203.664L269.822 203.736C268.49 203.736 267.146 203.736 265.808 203.766H265.538V203.502L265.508 196.8V196.494H265.808L273.752 196.53C276.398 196.53 279.05 196.596 281.696 196.626H281.858V196.8C281.858 197.934 281.81 199.068 281.78 200.19L281.696 203.502ZM281.696 203.502L281.612 200.106C281.612 198.99 281.54 197.886 281.534 196.788L281.696 196.95C279.05 196.98 276.398 197.046 273.752 197.046L265.808 197.082L266.108 196.788L266.072 203.502L265.808 203.232C267.116 203.232 268.424 203.232 269.732 203.232L273.68 203.304L281.696 203.502Z" fill="#EBEBEB"/>
<path d="M272.834 39.294L264.956 39.456L260.96 39.528C259.628 39.528 258.284 39.528 256.946 39.558H256.7V39.288V32.574V32.268H257.006L264.95 32.304C267.596 32.304 270.242 32.37 272.894 32.4H273.056V32.562C273.056 33.702 273.002 34.83 272.978 35.952L272.834 39.294ZM272.834 39.294L272.75 35.898C272.72 34.782 272.678 33.678 272.666 32.58L272.834 32.742C270.182 32.742 267.536 32.838 264.89 32.838L256.946 32.88L257.246 32.58L257.21 39.294L256.946 39.024C258.254 39.024 259.556 39.024 260.87 39.06L264.818 39.126L272.834 39.294Z" fill="#EBEBEB"/>
<path d="M281.696 47.76L273.818 47.922L269.822 47.994C268.49 47.994 267.146 47.994 265.808 48.024H265.538V47.76L265.508 41.046V40.74H265.808L273.752 40.776C276.398 40.776 279.05 40.842 281.696 40.872H281.858V41.034C281.858 42.168 281.81 43.302 281.78 44.424L281.696 47.76ZM281.696 47.76L281.612 44.364C281.612 43.248 281.54 42.144 281.534 41.046L281.696 41.208C279.05 41.208 276.398 41.304 273.752 41.304L265.808 41.346L266.108 41.046L266.072 47.76L265.808 47.49C267.116 47.49 268.424 47.49 269.732 47.526L273.68 47.592L281.696 47.76Z" fill="#EBEBEB"/>
<path d="M44.0537 39.294L36.1817 39.456L32.1857 39.528C30.8477 39.528 29.5037 39.528 28.1657 39.558H27.9017V39.288L27.8657 32.58V32.274H28.1657L36.1097 32.31C38.7617 32.31 41.4077 32.376 44.0537 32.406H44.2217V32.568C44.2217 33.708 44.1677 34.836 44.1437 35.958L44.0537 39.294ZM44.0537 39.294L43.9697 35.898C43.9697 34.782 43.9037 33.678 43.8917 32.58L44.0537 32.742C41.4077 32.742 38.7617 32.838 36.1097 32.838L28.1657 32.88L28.4657 32.58V39.294L28.1657 39C29.4737 39 30.7817 39 32.0957 39.036L36.0437 39.102L44.0537 39.294Z" fill="#EBEBEB"/>
<path d="M24.6738 220.908L56.1318 220.758L87.5838 220.704L150.5 220.608L213.416 220.704L244.868 220.758L276.326 220.908L244.868 221.052L213.416 221.106L150.5 221.202L87.5838 221.106L56.1318 221.052L24.6738 220.908Z" fill="#263238"/>
<path d="M154.076 275.61C225.543 275.61 283.478 269.002 283.478 260.85C283.478 252.698 225.543 246.09 154.076 246.09C82.6091 246.09 24.6738 252.698 24.6738 260.85C24.6738 269.002 82.6091 275.61 154.076 275.61Z" fill="#FAFAFA"/>
<path d="M102.428 33.786H85.0039V220.824H102.428V33.786Z" fill="#263238"/>
<path d="M215.996 33.786H198.572V220.824H215.996V33.786Z" fill="#455A64"/>
<path d="M198.572 52.128H92.1558V58.41H198.572V52.128Z" fill="#869095"/>
<path d="M198.572 92.73H92.1558V99.012H198.572V92.73Z" fill="#869095"/>
<path d="M198.572 133.332H92.1558V139.614H198.572V133.332Z" fill="#869095"/>
<path d="M198.572 173.934H92.1558V180.216H198.572V173.934Z" fill="#869095"/>
<path d="M198.572 214.536H92.1558V220.818H198.572V214.536Z" fill="#869095"/>
<path d="M137.45 58.722H104.474V92.724H137.45V58.722Z" fill="#EBEBEB"/>
<path d="M154.484 58.722H137.456V92.73H154.484V58.722Z" fill="#DBDBDB"/>
<path d="M123.764 66.618H123.068H122.54L122.24 66.012L121.82 66.618L121.25 65.364L120.71 66.618H119.168H118.466L118.208 65.784L117.968 66.618H117.512V58.722H123.764V66.618Z" fill="#DBDBDB"/>
<path d="M153.308 90.558C152.048 88.158 150.798 85.732 149.558 83.28L145.868 75.966L142.22 68.622C141.02 66.166 139.82 63.706 138.62 61.242C139.88 63.642 141.13 66.068 142.37 68.52L146.066 75.834L149.714 83.178C150.926 85.63 152.124 88.09 153.308 90.558Z" fill="#EBEBEB"/>
<path d="M153.308 61.242C152.108 63.71 150.908 66.17 149.708 68.622L146.06 75.966L142.364 83.286C141.128 85.718 139.878 88.142 138.614 90.558C139.814 88.09 141.014 85.63 142.214 83.178L145.862 75.834L149.552 68.52C150.8 66.084 152.052 63.658 153.308 61.242Z" fill="#EBEBEB"/>
<path d="M135.278 86.958H131.618V90.618H135.278V86.958Z" fill="white"/>
<path d="M158.222 112.182H125.246V133.332H158.222V112.182Z" fill="#DBDBDB"/>
<path d="M175.25 112.182H158.222V133.332H175.25V112.182Z" fill="#C7C7C7"/>
<path d="M144.53 120.072H143.834H143.306L143.006 119.466L142.586 120.072L142.022 118.824L141.482 120.072H139.934H139.232L138.974 119.238L138.74 120.072H138.278V112.182H144.53V120.072Z" fill="white"/>
<path d="M174.08 132.072C172.812 130.536 171.562 128.996 170.33 127.452L166.634 122.802L162.986 118.134C161.786 116.574 160.586 115.01 159.386 113.442C160.654 114.978 161.904 116.518 163.136 118.062L166.832 122.712L170.48 127.38C171.696 128.94 172.896 130.504 174.08 132.072Z" fill="#DBDBDB"/>
<path d="M174.08 113.442C172.88 115.01 171.68 116.574 170.48 118.134L166.832 122.802L163.136 127.452C161.9 128.996 160.65 130.536 159.386 132.072C160.586 130.504 161.786 128.94 162.986 127.38L166.634 122.712L170.33 118.068C171.566 116.52 172.816 114.978 174.08 113.442Z" fill="#DBDBDB"/>
<path d="M140.234 211.572H83.4922V258.45H140.234V211.572Z" fill="#B5BECD"/>
<path d="M162.71 211.572H140.228V258.456H162.71V211.572Z" fill="#B5BECD"/>
<path opacity="0.1" d="M162.71 211.572H140.228V258.456H162.71V211.572Z" fill="black"/>
<path d="M161.162 255.228C159.502 251.892 157.852 248.546 156.212 245.19L151.334 235.11L146.534 224.982C144.934 221.598 143.354 218.198 141.794 214.782C143.458 218.118 145.108 221.464 146.744 224.82L151.616 234.9L156.416 245.028C158.016 248.424 159.598 251.824 161.162 255.228Z" fill="#B5BECD"/>
<path d="M161.162 214.8C159.598 218.208 158.018 221.608 156.422 225L151.622 235.128L146.75 245.208C145.114 248.568 143.464 251.914 141.8 255.246C143.36 251.838 144.94 248.438 146.54 245.046L151.34 234.918L156.218 224.838C157.854 221.478 159.502 218.132 161.162 214.8Z" fill="#B5BECD"/>
<path d="M115.874 221.706H114.98H114.302L113.918 220.92L113.378 221.706L112.652 220.098L111.956 221.706H109.976H109.07L108.746 220.632L108.434 221.706H107.846V211.572H115.874V221.706Z" fill="white"/>
<path d="M195.65 211.572H153.32V258.45H195.65V211.572Z" fill="#B5BECD"/>
<path d="M217.508 211.572H195.65V258.45H217.508V211.572Z" fill="#B5BECD"/>
<path opacity="0.1" d="M217.508 211.572H195.65V258.45H217.508V211.572Z" fill="black"/>
<g opacity="0.1">
<path d="M192.548 255.222C189.44 251.89 186.36 248.546 183.308 245.19L174.2 235.11L165.2 224.982C162.212 221.598 159.26 218.198 156.344 214.782C159.452 218.118 162.532 221.462 165.584 224.814L174.692 234.9L183.692 245.028C186.676 248.42 189.628 251.818 192.548 255.222Z" fill="black"/>
<path d="M192.548 214.8C189.624 218.208 186.672 221.608 183.692 225L174.692 235.128L165.584 245.208C162.536 248.564 159.456 251.908 156.344 255.24C159.268 251.84 162.22 248.44 165.2 245.04L174.2 234.912L183.308 224.826C186.356 221.478 189.436 218.136 192.548 214.8Z" fill="black"/>
</g>
<path d="M214.43 250.518H210.602V255.924H214.43V250.518Z" fill="white"/>
<path d="M141.278 181.254H92.9482V211.566H141.278V181.254Z" fill="#B5BECD"/>
<path opacity="0.1" d="M141.278 181.254H92.9482V211.566H141.278V181.254Z" fill="black"/>
<path d="M163.142 181.26H141.284V211.578H163.142V181.26Z" fill="#B5BECD"/>
<path opacity="0.2" d="M163.142 181.26H141.284V211.578H163.142V181.26Z" fill="black"/>
<path d="M161.636 209.784C160.016 207.704 158.416 205.612 156.836 203.508L152.09 197.196L147.41 190.86C145.854 188.74 144.318 186.616 142.802 184.488C144.402 186.576 146.002 188.668 147.602 190.764L152.342 197.076L157.022 203.418C158.578 205.53 160.116 207.652 161.636 209.784Z" fill="#B5BECD"/>
<path d="M161.636 184.488C160.112 186.616 158.574 188.74 157.022 190.86L152.342 197.196L147.602 203.508C146.002 205.608 144.402 207.7 142.802 209.784C144.318 207.652 145.854 205.53 147.41 203.418L152.09 197.076L156.836 190.764C158.412 188.664 160.012 186.572 161.636 184.488Z" fill="#B5BECD"/>
</svg>
