<svg width="30" height="30" viewBox="0 0 30 30" fill="none" xmlns="http://www.w3.org/2000/svg">
<path fill-rule="evenodd" clip-rule="evenodd" d="M26.746 3.21436C26.1323 3.21436 25.6349 3.73621 25.6349 4.37992V12.0288H4.365V4.37992C4.365 3.73619 3.86755 3.21436 3.25393 3.21436C2.6405 3.21436 2.14307 3.73621 2.14307 4.37992V26.7858H4.365V24.7558H25.6354V26.7858H27.8574V4.37992C27.8574 3.73619 27.3599 3.21436 26.7463 3.21436H26.746ZM25.6351 22.7446H4.3647V14.0391H25.6351V22.7446ZM14.7109 5.24431V11.375H6.51562V5.24431C6.51562 5.06589 6.65656 4.91805 6.82663 4.91805H9.53905V7.34594C9.53905 7.47641 9.60952 7.5897 9.7215 7.64184C9.8293 7.69838 9.95785 7.681 10.0491 7.59828L10.6132 7.10219L11.1731 7.59828C11.2312 7.64624 11.3017 7.6722 11.3763 7.6722C11.4179 7.6722 11.4634 7.66341 11.5049 7.64184C11.6169 7.58969 11.6873 7.47641 11.6873 7.34594V4.91805H14.3998C14.5698 4.91805 14.711 5.06589 14.711 5.24431L14.7109 5.24431ZM10.413 6.42636L10.1623 6.64708L10.162 4.91776H11.0637V6.64708L10.813 6.42636C10.7551 6.37547 10.6843 6.34992 10.613 6.34992C10.5417 6.34992 10.4709 6.37547 10.413 6.42636ZM23.4864 5.24431V11.375H15.2911V5.24431C15.2911 5.06589 15.432 4.91805 15.6021 4.91805H18.3145V7.34594C18.3145 7.47641 18.385 7.5897 18.497 7.64184C18.6048 7.69838 18.7333 7.681 18.8287 7.59828L19.3887 7.10219L19.9486 7.59828C20.0067 7.64624 20.0771 7.6722 20.1518 7.6722C20.1933 7.6722 20.2388 7.66341 20.2804 7.64184C20.3923 7.58969 20.4628 7.47641 20.4628 7.34594V4.91805H23.1752C23.3455 4.91805 23.4864 5.06589 23.4864 5.24431L23.4864 5.24431ZM19.189 6.42636L18.9382 6.64708L18.938 4.91776H19.8397V6.64708L19.589 6.42636C19.5311 6.37547 19.4603 6.34992 19.389 6.34992C19.3177 6.34992 19.2469 6.37547 19.189 6.42636ZM23.4864 15.9608V22.0915L15.2911 22.0913V15.9611C15.2911 15.7827 15.432 15.6348 15.6021 15.6348H18.3145V18.0627C18.3145 18.1932 18.385 18.3065 18.497 18.3586C18.6048 18.4152 18.7333 18.3978 18.8287 18.3151L19.3887 17.819L19.9486 18.3151C20.0067 18.363 20.0771 18.389 20.1518 18.389C20.1933 18.389 20.2388 18.3802 20.2804 18.3586C20.3923 18.3065 20.4628 18.1932 20.4628 18.0627V15.6348H23.1752C23.3455 15.6346 23.4864 15.7827 23.4864 15.9611L23.4864 15.9608ZM19.3886 17.0656C19.3181 17.0656 19.2476 17.0917 19.1896 17.1439L18.9365 17.3659V15.6342H19.8405V17.3659L19.5876 17.1439C19.5295 17.0918 19.459 17.0656 19.3886 17.0656ZM14.7109 15.9608V22.0915L6.51562 22.0913V15.9611C6.51562 15.7827 6.65656 15.6348 6.82663 15.6348H9.53905V18.0627C9.53905 18.1932 9.60952 18.3065 9.7215 18.3586C9.8293 18.4152 9.95785 18.3978 10.0491 18.3151L10.6132 17.819L11.1731 18.3151C11.2312 18.363 11.3017 18.389 11.3763 18.389C11.4179 18.389 11.4634 18.3802 11.5049 18.3586C11.6169 18.3065 11.6873 18.1932 11.6873 18.0627V15.6348H14.3998C14.5698 15.6346 14.711 15.7827 14.711 15.9611L14.7109 15.9608ZM10.6131 17.0656C10.5426 17.0656 10.4722 17.0917 10.4141 17.1439L10.161 17.3659V15.6342H11.065V17.3659L10.8121 17.1439C10.754 17.0918 10.6836 17.0656 10.6131 17.0656Z" fill="#533030"/>
</svg>
