<svg width="30" height="30" viewBox="0 0 30 30" fill="none" xmlns="http://www.w3.org/2000/svg">
<path d="M26.6006 6.503H26.8278C27.1029 6.52207 27.3734 6.4259 27.5749 6.23738C27.7764 6.04886 27.8907 5.78515 27.8907 5.50892C27.8907 5.23268 27.7763 4.96899 27.5749 4.78045C27.3734 4.59193 27.1029 4.49576 26.8278 4.51483H24.3515L24.072 4.586L23.8211 4.73788C23.7945 4.75461 23.7704 4.77537 23.7501 4.79951C23.7239 4.82239 23.7 4.84781 23.679 4.87556L23.5702 5.03696L23.5323 5.11767L23.4755 5.31212V5.3119C23.4736 5.32927 23.4736 5.34685 23.4755 5.36422V5.41167C23.4729 5.44323 23.4729 5.47501 23.4755 5.50657V7.91684C23.4738 8.23351 23.6232 8.53198 23.8775 8.72003C24.1318 8.90791 24.4603 8.96299 24.7618 8.8681C25.0634 8.77299 25.3014 8.53956 25.4027 8.2394C26.9333 10.5963 27.6199 13.4044 27.3494 16.2035C27.079 19.0025 25.8678 21.6261 23.9142 23.6449C21.9606 25.6637 19.3806 26.9576 16.5973 27.3147C13.8136 27.6716 10.9916 27.0707 8.59381 25.6099C8.36784 25.4733 8.09706 25.4324 7.84086 25.496C7.58276 25.5672 7.36314 25.7377 7.22997 25.9705C7.09426 26.1971 7.05346 26.4682 7.11645 26.725C7.18726 26.9836 7.35764 27.2037 7.58995 27.3369C10.3202 28.9679 13.5079 29.6595 16.6671 29.3059C19.8943 28.9494 22.9022 27.4959 25.1902 25.1875C27.6202 22.7591 29.0993 19.5372 29.3582 16.1075C29.6172 12.6781 28.6389 9.2696 26.6011 6.50247L26.6006 6.503Z" fill="#4E586D"/>
<path d="M5.5179 21.0686C5.30989 21.0663 5.10654 21.1296 4.93638 21.2497C4.76643 21.3698 4.63854 21.5405 4.5709 21.7377C3.03838 19.3804 2.35074 16.5713 2.62088 13.7709C2.89082 10.9706 4.1027 8.34561 6.05759 6.32624C8.01226 4.30677 10.5939 3.01295 13.3787 2.6569C16.1637 2.30105 18.9866 2.9041 21.385 4.36713C21.6904 4.55035 22.0701 4.55628 22.381 4.3828C22.6918 4.20932 22.8866 3.8829 22.8924 3.52641C22.8978 3.16992 22.7131 2.83737 22.4079 2.65436C19.6808 1.01972 16.4921 0.331113 13.3356 0.694804C10.1083 1.05129 7.10049 2.5048 4.81253 4.81319C2.38522 7.23724 0.905513 10.4532 0.642354 13.877C0.378968 17.3011 1.34963 20.7062 3.3779 23.4739H3.15066C2.81244 23.4974 2.50951 23.6918 2.34695 23.9896C2.18418 24.2877 2.18418 24.6482 2.34695 24.9462C2.5095 25.2441 2.81242 25.4385 3.15066 25.462H5.65069L5.83058 25.4241L6.10052 25.3008L6.14322 25.2724L6.18106 25.2392L6.25673 25.1775V25.1773C6.2895 25.1432 6.31973 25.1068 6.34679 25.0682L6.46516 24.8594L6.53619 24.5747C6.53851 24.5415 6.53851 24.5082 6.53619 24.4752V22.06C6.53492 21.7925 6.42648 21.5366 6.23496 21.35C6.04345 21.1636 5.78514 21.0619 5.51816 21.0682L5.5179 21.0686Z" fill="#4E586D"/>
<path d="M14.4653 23.354C14.6247 23.4474 14.8061 23.4965 14.9908 23.4963C15.1756 23.4969 15.3572 23.4478 15.5163 23.354L21.956 19.6293C22.1164 19.5365 22.2494 19.4031 22.3418 19.2423C22.4339 19.0816 22.4823 18.8992 22.4817 18.7136V11.2641C22.4823 11.0785 22.4339 10.8962 22.3418 10.7354C22.2494 10.5746 22.1164 10.4412 21.956 10.3484L15.5163 6.62375C15.357 6.53034 15.1756 6.4812 14.9908 6.4812C14.8061 6.4812 14.6247 6.53034 14.4653 6.62375L8.02572 10.3484C7.86528 10.4412 7.73231 10.5746 7.63994 10.7354C7.54778 10.8962 7.49937 11.0785 7.50001 11.2641V18.7136C7.49937 18.8992 7.54778 19.0816 7.63994 19.2423C7.73231 19.4031 7.86528 19.5365 8.02572 19.6293L14.4653 23.354ZM9.60711 13.0912L13.935 15.5964V20.6069L9.60711 18.1018V13.0912ZM16.0467 20.602V15.6012L20.3746 13.0911V18.1014L16.0467 20.602ZM14.9909 8.76401L19.3188 11.2645L14.9909 13.7697L10.6629 11.2645L14.9909 8.76401Z" fill="#4E586D"/>
</svg>
