<svg width="20" height="20" viewBox="0 0 28 30" fill="none" xmlns="http://www.w3.org/2000/svg">
<path d="M18.3374 8.56081C18.3374 9.03073 17.9611 9.39997 17.4822 9.39997H11.034C10.555 9.39997 10.1787 9.03073 10.1787 8.56081C10.1787 8.09089 10.555 7.72165 11.034 7.72165H17.4822C17.9613 7.72165 18.3374 8.09089 18.3374 8.56081ZM18.3036 13.4391C18.3036 12.9692 17.9273 12.6 17.4484 12.6H5.33195C4.85303 12.6 4.47671 12.9692 4.47671 13.4391C4.47671 13.9091 4.85303 14.2783 5.33195 14.2783H17.4142C17.9275 14.2783 18.3036 13.9091 18.3036 13.4391ZM13.0292 19.0783C13.3714 18.4742 13.7818 17.9034 14.2607 17.4H5.29204C4.81311 17.4 4.43679 17.7692 4.43679 18.2391C4.43679 18.7091 4.81311 19.0783 5.29204 19.0783H13.0292ZM22.0211 13.4335C22.2948 13.4 22.5685 13.4 22.8422 13.4C23.15 13.4 23.4237 13.4 23.7316 13.4335V4.15796C23.7316 2.1776 22.1237 0.599976 20.1054 0.599976L8.23449 0.60021C8.02927 0.60021 7.82405 0.633692 7.61884 0.700891C7.41363 0.768091 7.24251 0.902254 7.10578 1.03665L0.878958 6.91055C0.707859 7.04471 0.605248 7.24631 0.502636 7.44767C0.434387 7.61555 0.400024 7.85039 0.400024 8.05174V25.842C0.400024 27.8223 2.00789 29.4 4.02622 29.4H17.8471C17.2314 28.9301 16.6496 28.3595 16.205 27.7217H4.02628C2.96583 27.7217 2.11058 26.8825 2.11058 25.842L2.11035 8.55524H5.15503C7.13921 8.55524 8.78123 6.94411 8.78123 4.99725V2.27843H20.1389C21.1994 2.27843 22.0546 3.11759 22.0546 4.15809V13.4336L22.0211 13.4335Z" fill="#4E586D"/>
<path fill-rule="evenodd" clip-rule="evenodd" d="M21.2 27.8C24.7347 27.8 27.6 24.9346 27.6 21.4C27.6 17.8654 24.7347 15 21.2 15C17.6654 15 14.8 17.8654 14.8 21.4C14.8 24.9346 17.6654 27.8 21.2 27.8ZM19.1706 20.6509L20.5143 22.0618L23.2295 19.2109C23.4972 18.9297 23.9314 18.9297 24.1992 19.2109C24.467 19.4921 24.467 19.9479 24.1992 20.2291L20.9992 23.5891C20.7314 23.8703 20.2972 23.8703 20.0295 23.5891L18.2009 21.6691C17.9331 21.3879 17.9331 20.9321 18.2009 20.6509C18.4687 20.3697 18.9028 20.3697 19.1706 20.6509Z" fill="#4E586D"/>
</svg>
