<svg width="40" height="40" viewBox="0 0 40 40" fill="none" xmlns="http://www.w3.org/2000/svg">
<rect width="40" height="40" rx="4" fill="#146975"/>
<path d="M12.8992 21.4061H17.213V20.019C17.213 19.5594 17.5759 19.1832 18.0192 19.1832H21.9808C22.4242 19.1832 22.7871 19.5594 22.7871 20.019V21.4061H27.0992C28.7842 21.4061 30.7641 19.6483 31.9975 18.2872L31.9977 14.9773C31.9977 13.9655 31.2066 13.1454 30.2305 13.1454H25.5832L25.5834 11.1886C25.5834 9.98139 24.6351 9 23.4731 9H16.5269C15.3623 9 14.4147 9.98223 14.4147 11.1886V13.1456L9.76721 13.1454C8.79115 13.1454 8 13.9655 8 14.9773V18.2861C9.23625 19.6475 11.2164 21.4061 12.8993 21.4061L12.8992 21.4061ZM15.7026 11.1888C15.7026 10.7172 16.0727 10.3336 16.5268 10.3336H23.473C23.9271 10.3336 24.2972 10.7173 24.2972 11.1888V13.1458H15.7028L15.7026 11.1888Z" fill="white"/>
<path d="M27.099 22.7394H22.7869V24.1265C22.7869 24.5861 22.4239 24.9632 21.9806 24.9632H18.019C17.5757 24.9632 17.2127 24.5861 17.2127 24.1265V22.7394H12.8988C11.1146 22.7394 9.30896 21.4125 8.00049 20.1606V29.1692C8.00049 30.1802 8.79159 31 9.7677 31H30.2328C31.2088 31 32 30.1799 32 29.1692V20.1606C30.6885 21.4126 28.8848 22.7394 27.0988 22.7394H27.099Z" fill="white"/>
</svg>
