<svg width="26" height="24" viewBox="0 0 26 24" fill="none" xmlns="http://www.w3.org/2000/svg">
<path d="M5.39225 13.5065H10.0141V12.0203C10.0141 11.5279 10.403 11.1248 10.878 11.1248H15.1225C15.5975 11.1248 15.9864 11.5279 15.9864 12.0203V13.5065H20.6065C22.4119 13.5065 24.5332 11.6231 25.8547 10.1648L25.8549 6.61851C25.8549 5.53446 25.0073 4.65577 23.9615 4.65577H18.9822L18.9824 2.55921C18.9824 1.26572 17.9664 0.214233 16.7214 0.214233H9.27905C8.03123 0.214233 7.01599 1.26663 7.01599 2.55921V4.656L2.0365 4.65578C0.99073 4.65578 0.143066 5.53441 0.143066 6.61851V10.1637C1.46762 11.6222 3.58916 13.5065 5.39235 13.5065L5.39225 13.5065ZM8.39583 2.55938C8.39583 2.05414 8.79238 1.64308 9.27895 1.64308H16.7213C17.2078 1.64308 17.6044 2.05415 17.6044 2.55938V4.65617H8.39605L8.39583 2.55938Z" fill="#146975"/>
<path d="M20.6062 14.935H15.9861V16.4213C15.9861 16.9137 15.5972 17.3177 15.1222 17.3177H10.8777C10.4027 17.3177 10.0138 16.9137 10.0138 16.4213V14.935H5.39175C3.48014 14.935 1.54549 13.5134 0.143555 12.1721V21.8241C0.143555 22.9073 0.991164 23.7857 2.03699 23.7857H23.9638C25.0096 23.7857 25.8573 22.9071 25.8573 21.8241V12.1721C24.4521 13.5135 22.5196 14.935 20.6061 14.935H20.6062Z" fill="#146975"/>
</svg>
