<svg width="18" height="24" viewBox="0 0 18 24" fill="none" xmlns="http://www.w3.org/2000/svg">
<path fill-rule="evenodd" clip-rule="evenodd" d="M16.3125 0.00345849H5.626C5.58947 -0.00115283 5.55275 -0.00115283 5.51621 0.00345849H5.46838L5.41207 0.0223227L5.35576 0.0566975C5.3407 0.0625667 5.32657 0.0709503 5.31377 0.0816402C5.28213 0.104068 5.25294 0.130268 5.22657 0.159821L0.16436 5.74201C0.137806 5.77136 0.114265 5.80384 0.0941176 5.83906C0.0847017 5.85394 0.0762274 5.86966 0.0688826 5.88601L0.0408229 5.94868L0.0238741 6.01136C0.0174713 6.02855 0.0127632 6.04615 0.00975004 6.06439C0.000899166 6.11281 -0.001926 6.16227 0.00127563 6.21153V22.122C0.00127563 22.6202 0.179051 23.0979 0.495622 23.45C0.812 23.8021 1.24119 24 1.68863 24H16.3127C16.7601 24 17.1893 23.8021 17.5057 23.45C17.8222 23.0979 18 22.6202 18 22.122V1.88162C18 1.38339 17.8222 0.90568 17.5057 0.553572C17.1893 0.201437 16.7599 0.00345849 16.3125 0.00345849ZM1.92225 5.58544L5.06359 2.14122V5.58544H1.92225ZM5.45011 14.7031H7.60697V14.0095C7.60697 13.7797 7.78844 13.5916 8.01011 13.5916H9.9909C10.2126 13.5916 10.394 13.7797 10.394 14.0095V14.7031H12.5501C13.3926 14.7031 14.3825 13.8242 14.9993 13.1436L14.9994 11.4887C14.9994 10.9828 14.6038 10.5727 14.1158 10.5727H11.7921L11.7922 9.59432C11.7922 8.99069 11.318 8.5 10.737 8.5H7.26395C6.68163 8.5 6.20785 8.99112 6.20785 9.59432V10.5728L3.88409 10.5727C3.39606 10.5727 3.00049 10.9827 3.00049 11.4887V13.1431C3.61861 13.8237 4.60866 14.7031 5.45016 14.7031L5.45011 14.7031ZM6.85178 9.5944C6.85178 9.35862 7.03684 9.1668 7.2639 9.1668H10.737C10.964 9.1668 11.1491 9.35863 11.1491 9.5944V10.5729H6.85188L6.85178 9.5944ZM10.3936 15.3696H12.5495C13.4425 15.3696 14.3444 14.7062 15.0001 14.0803V18.5845C15.0001 19.0899 14.6045 19.4999 14.1165 19.4999H3.88397C3.39592 19.4999 3.00037 19.09 3.00037 18.5845V14.0803C3.6546 14.7062 4.55744 15.3696 5.44952 15.3696H7.60649V16.0632C7.60649 16.293 7.78795 16.4815 8.00962 16.4815H9.99042C10.2121 16.4815 10.3936 16.293 10.3936 16.0632V15.3696Z" fill="#146975"/>
</svg>
