<svg width="30" height="30" viewBox="0 0 30 30" fill="none" xmlns="http://www.w3.org/2000/svg">
<path d="M7.39225 16.5065H12.0141V15.0203C12.0141 14.5279 12.403 14.1248 12.878 14.1248H17.1225C17.5975 14.1248 17.9864 14.5279 17.9864 15.0203V16.5065H22.6065C24.4119 16.5065 26.5332 14.6231 27.8547 13.1648L27.8549 9.61851C27.8549 8.53446 27.0073 7.65577 25.9615 7.65577H20.9822L20.9824 5.55921C20.9824 4.26572 19.9664 3.21423 18.7214 3.21423H11.2791C10.0312 3.21423 9.01599 4.26663 9.01599 5.55921V7.656L4.0365 7.65578C2.99073 7.65578 2.14307 8.53441 2.14307 9.61851V13.1637C3.46762 14.6222 5.58916 16.5065 7.39235 16.5065L7.39225 16.5065ZM10.3958 5.55938C10.3958 5.05414 10.7924 4.64308 11.279 4.64308H18.7213C19.2078 4.64308 19.6044 5.05415 19.6044 5.55938V7.65617H10.396L10.3958 5.55938Z" fill="#146975"/>
<path d="M22.6062 17.935H17.9861V19.4213C17.9861 19.9137 17.5972 20.3177 17.1222 20.3177H12.8777C12.4027 20.3177 12.0138 19.9137 12.0138 19.4213V17.935H7.39175C5.48014 17.935 3.54549 16.5134 2.14355 15.1721V24.8241C2.14355 25.9073 2.99116 26.7857 4.03699 26.7857H25.9638C27.0096 26.7857 27.8573 25.9071 27.8573 24.8241V15.1721C26.4521 16.5135 24.5196 17.935 22.6061 17.935H22.6062Z" fill="#146975"/>
</svg>
