<svg width="14" height="14" viewBox="0 0 14 14" fill="none" xmlns="http://www.w3.org/2000/svg">
<path fill-rule="evenodd" clip-rule="evenodd" d="M5.33324 7.8335V12.8335C5.33324 13.2918 5.70824 13.6668 6.16657 13.6668H7.83324C8.29157 13.6668 8.66657 13.2918 8.66657 12.8335V7.8335C8.66657 7.8335 11.7666 3.8335 13.4499 1.67516C13.8749 1.12516 13.4832 0.333496 12.7916 0.333496H1.1999C0.508238 0.333496 0.116571 1.12516 0.541571 1.67516C2.2249 3.8335 5.33324 7.8335 5.33324 7.8335ZM2.56663 1.8335C3.26932 2.73577 4.06255 3.75538 4.75273 4.64286L6.51709 6.91236C6.51712 6.91239 6.51766 6.9131 5.33324 7.8335L6.51709 6.91236L6.83324 7.3192V12.1668H7.16657V7.32029L7.48095 6.91464L7.99186 6.25561C8.30888 5.84677 8.74911 5.27916 9.24197 4.64407C9.93084 3.7564 10.723 2.73629 11.4254 1.8335H2.56663Z" fill="#134C85"/>
</svg>
