<svg width="24" height="24" viewBox="0 0 24 24" fill="none" xmlns="http://www.w3.org/2000/svg">
<path fill-rule="evenodd" clip-rule="evenodd" d="M10.0033 6.99407C8.89819 6.99407 8.00261 7.88965 8.00261 8.99473C8.00261 10.0998 8.89819 10.9954 10.0033 10.9954C11.1084 10.9954 12.0039 10.0998 12.0039 8.99473C12.0039 7.88965 11.1084 6.99407 10.0033 6.99407ZM6.00195 8.99473C6.00195 6.78472 7.79326 4.99341 10.0033 4.99341C12.2133 4.99341 14.0046 6.78472 14.0046 8.99473C14.0046 11.2047 12.2133 12.9961 10.0033 12.9961C7.79326 12.9961 6.00195 11.2047 6.00195 8.99473Z" fill="#134C85"/>
<path fill-rule="evenodd" clip-rule="evenodd" d="M10.0031 0.0121994C12.3355 -0.111715 14.7156 0.708756 16.5024 2.49561L16.5025 2.49563C18.7075 4.70075 19.4398 8.21593 18.7623 11.2168C18.6407 11.7557 18.1052 12.094 17.5663 11.9723C17.0274 11.8506 16.6891 11.3152 16.8108 10.7762C17.3659 8.31731 16.7216 5.54422 15.0878 3.91027C13.7107 2.53323 11.8728 1.9039 10.0631 2.01266C10.0231 2.01506 9.98302 2.01506 9.94303 2.01265C8.13419 1.90385 6.29547 2.53324 4.91842 3.91029C3.79507 5.03364 3.1304 6.70126 3.01766 8.46655C2.90492 10.2317 3.3513 11.9858 4.31015 13.2643C4.31527 13.2711 4.3203 13.278 4.32525 13.2849L10.8184 22.42C11.1385 22.8704 11.0329 23.4949 10.5826 23.8149C10.1323 24.135 9.50776 24.0294 9.18769 23.5791L2.70169 14.4541C1.41252 12.7289 0.88401 10.485 1.02106 8.33904C1.15839 6.18879 1.97121 4.02814 3.50374 2.49561C5.2906 0.708749 7.6715 -0.111781 10.0031 0.0121994Z" fill="#134C85"/>
<path fill-rule="evenodd" clip-rule="evenodd" d="M18.9317 13.5101C19.6164 12.8254 20.727 12.8254 21.4118 13.5101L20.7352 14.0574M20.1717 15.0994L14.761 20.5111L14.4655 21.5378L15.4921 21.2423L20.9038 15.8315L20.1717 15.0994ZM22.4923 14.5906C22.4926 14.5909 22.4929 14.5912 22.4932 14.5915C23.1779 15.2763 23.1777 16.3866 22.4933 17.0714L16.7241 22.8396C16.6044 22.9593 16.4563 23.0466 16.2936 23.0935L13.2805 23.9608C12.9307 24.0614 12.5538 23.9642 12.2964 23.7068C12.0391 23.4494 11.9418 23.0725 12.0425 22.7228L12.9098 19.7097C12.9566 19.547 13.044 19.3988 13.1637 19.2791L18.9316 13.5102L18.9317 13.5101M22.4923 14.5906L21.4118 13.5101L20.7352 14.0574" fill="#134C85"/>
</svg>
