<svg width="24" height="24" viewBox="0 0 24 24" fill="none" xmlns="http://www.w3.org/2000/svg">
<path fill-rule="evenodd" clip-rule="evenodd" d="M9.98967 18H7.99174C6.3366 18 4.99484 16.6569 4.99484 15V13H2.9969C1.34176 13 0 11.6569 0 10V3C0 1.34315 1.34176 0 2.9969 0H9.98967C11.6448 0 12.9866 1.34315 12.9866 3V5H14.9845C16.6397 5 17.9814 6.34315 17.9814 8V10H19.9793C21.6345 10 22.9763 11.3431 22.9763 13V20C22.9763 21.6569 21.6345 23 19.9793 23H12.9866C11.3314 23 9.98967 21.6569 9.98967 20V18ZM9.98967 16V13C9.98967 11.3431 11.3314 10 12.9866 10H15.9835V8C15.9835 7.44772 15.5362 7 14.9845 7H7.99174C7.44003 7 6.99277 7.44772 6.99277 8V15C6.99277 15.5523 7.44003 16 7.99174 16H9.98967ZM4.99484 11V8C4.99484 6.34315 6.3366 5 7.99174 5H10.9886V3C10.9886 2.44772 10.5414 2 9.98967 2H2.9969C2.44519 2 1.99794 2.44772 1.99794 3V10C1.99794 10.5523 2.44519 11 2.9969 11H4.99484ZM12.9866 12C12.4349 12 11.9876 12.4477 11.9876 13V20C11.9876 20.5523 12.4349 21 12.9866 21H19.9793C20.5311 21 20.9783 20.5523 20.9783 20V13C20.9783 12.4477 20.5311 12 19.9793 12H12.9866Z" fill="#4E586D"/>
</svg>
