<svg width="32" height="32" viewBox="0 0 32 32" fill="none" xmlns="http://www.w3.org/2000/svg">
<path fill-rule="evenodd" clip-rule="evenodd" d="M14.6666 14.6666V12C14.6666 11.2636 15.2636 10.6666 16 10.6666C16.7364 10.6666 17.3333 11.2636 17.3333 12V14.6666H20C20.7364 14.6666 21.3333 15.2636 21.3333 16C21.3333 16.7364 20.7364 17.3333 20 17.3333H17.3333V20C17.3333 20.7364 16.7364 21.3333 16 21.3333C15.2636 21.3333 14.6666 20.7364 14.6666 20V17.3333H12C11.2636 17.3333 10.6666 16.7364 10.6666 16C10.6666 15.2636 11.2636 14.6666 12 14.6666H14.6666ZM7.99998 5.33331H24C25.4727 5.33331 26.6666 6.52722 26.6666 7.99998V24C26.6666 25.4727 25.4727 26.6666 24 26.6666H7.99998C6.52722 26.6666 5.33331 25.4727 5.33331 24V7.99998C5.33331 6.52722 6.52722 5.33331 7.99998 5.33331ZM7.99998 7.99998V24H24V7.99998H7.99998Z" fill="#1976D2"/>
</svg>
