<svg width="24" height="24" viewBox="0 0 24 24" fill="none" xmlns="http://www.w3.org/2000/svg">
<g clip-path="url(#clip0_14481_104573)">
<path d="M6 19C6 20.1 6.9 21 8 21H16C17.1 21 18 20.1 18 19V7H6V19ZM9.16832 12.585C8.7774 12.1959 8.77665 11.5633 9.16666 11.1733C9.55537 10.7846 10.1854 10.7839 10.575 11.1717L12 12.59L13.415 11.175C13.8044 10.7856 14.4356 10.7856 14.825 11.175C15.2144 11.5644 15.2144 12.1956 14.825 12.585L13.41 14L14.825 15.415C15.2144 15.8044 15.2144 16.4356 14.825 16.825C14.4356 17.2144 13.8044 17.2144 13.415 16.825L12 15.41L10.585 16.825C10.1956 17.2144 9.56436 17.2144 9.175 16.825C8.78564 16.4356 8.78564 15.8044 9.175 15.415L10.59 14L9.16832 12.585ZM15.5 4L14.5 3H9.5L8.5 4H6C5.44772 4 5 4.44772 5 5V6H19V5C19 4.44772 18.5523 4 18 4H15.5Z" fill="#134C85"/>
</g>
<defs>
<clipPath id="clip0_14481_104573">
<rect width="24" height="24" fill="white"/>
</clipPath>
</defs>
</svg>
