<svg width="20" height="20" viewBox="0 0 24 24" fill="none" xmlns="http://www.w3.org/2000/svg">
<path d="M19.6582 4.56052C15.497 0.39975 8.72733 0.39975 4.56706 4.56052C2.55132 6.57622 1.44141 9.25577 1.44141 12.1064C1.44141 14.9567 2.55132 17.6362 4.56663 19.6512C6.58205 21.6669 9.26188 22.777 12.1122 22.777C14.9626 22.777 17.6425 21.6669 19.6579 19.6512C23.8182 15.491 23.8182 8.72126 19.6582 4.56052ZM12.1122 19.8418C10.0463 19.8418 8.10371 19.0364 6.64277 17.576C5.18144 16.1148 4.37692 14.1726 4.37692 12.1064C4.37692 10.6872 4.75645 9.32668 5.46767 8.13995L16.0786 18.7512C14.8919 19.4616 13.5313 19.8418 12.1122 19.8418ZM18.7752 16.0377L8.18091 5.44292C11.1465 3.69394 15.0375 4.09165 17.5825 6.63627C20.1268 9.181 20.5246 13.072 18.7752 16.0377Z" fill="#124EB0"/>
<path d="M8.98118 16.6869L11.1012 14.5131L9.68172 13.0771L7.42888 15.1686C7.00737 15.5904 7.02433 16.2651 7.4458 16.704C7.88433 17.1255 8.55971 17.1255 8.98118 16.6869Z" fill="#124EB0"/>
<path d="M17.6692 8.52011C17.6692 8.52011 16.7242 9.12759 16.6061 9.19518C16.454 9.31328 15.9314 9.54956 15.4589 8.82402C14.9696 8.09836 15.3741 7.64296 15.5091 7.55844C15.6274 7.49094 16.5721 6.86688 16.5721 6.86688L16.4879 6.73176C16.4879 6.73176 15.391 6.17475 14.3619 6.78234C14.3619 6.8163 14.1087 6.96804 14.0076 7.05245C13.3492 7.64296 13.3492 8.30102 13.4673 8.84106C13.5601 9.28686 13.4831 9.46709 13.1758 9.81445L14.4441 11.0985C14.8134 10.7711 15.0625 10.6768 15.3912 10.7813C15.7624 10.9163 16.2858 10.9163 16.7752 10.5956C17.8212 9.92087 17.7533 8.65515 17.7533 8.65515L17.6692 8.52011Z" fill="#124EB0"/>
</svg>
