<svg width="40" height="40" viewBox="0 0 40 40" fill="none" xmlns="http://www.w3.org/2000/svg">
<rect width="40" height="40" rx="4" fill="#5570AE"/>
<path fill-rule="evenodd" clip-rule="evenodd" d="M30.9927 14.4264V15.2826L30.9923 15.2826C30.9923 15.417 30.9948 15.549 30.9998 15.6958V16.1886L30.9923 16.4052L30.992 16.4118C30.9896 16.4546 30.9871 16.4994 30.9824 16.542C30.9815 16.5489 30.9803 16.5573 30.9791 16.5663C30.9767 16.5834 30.974 16.6029 30.9724 16.6192C30.9699 16.6217 30.9699 16.6242 30.9699 16.6267V16.6341V16.6366V16.6391C30.9686 16.6463 30.9673 16.6536 30.966 16.6609C30.9573 16.709 30.9484 16.7583 30.9376 16.8059C30.9002 16.9801 30.8455 17.1469 30.7832 17.3112C30.7758 17.3273 30.7677 17.3441 30.7596 17.3609C30.7515 17.3777 30.7434 17.3945 30.736 17.4107C30.7036 17.4804 30.6663 17.5476 30.6289 17.6148C30.6269 17.6182 30.6246 17.6218 30.6223 17.6256C30.6162 17.6355 30.6095 17.6463 30.604 17.6571C30.5642 17.7268 30.5194 17.7965 30.4721 17.8637C30.4656 17.8723 30.4588 17.8812 30.4517 17.8902C30.4345 17.9123 30.4166 17.9353 30.4024 17.9583C30.4 17.9633 30.395 17.9657 30.3925 17.9707C30.3502 18.0255 30.3054 18.0753 30.2581 18.125C30.1834 18.2047 30.1087 18.2794 30.0291 18.349C30.0179 18.3586 30.0066 18.3684 29.9952 18.3783C29.9739 18.3969 29.9523 18.4158 29.9295 18.4337C29.9295 18.4353 29.9273 18.437 29.9251 18.4386C29.924 18.4395 29.9229 18.4403 29.9221 18.4411L29.9196 18.4436C29.9022 18.4561 29.8623 18.4859 29.8499 18.4959C29.8051 18.5282 29.7603 18.5581 29.713 18.588C29.5711 18.6801 29.4243 18.7572 29.27 18.8294C29.2501 18.8369 29.2308 18.8443 29.2115 18.8518C29.1922 18.8593 29.1729 18.8667 29.153 18.8742C29.0684 18.9041 28.9837 18.9315 28.8966 18.9539C28.8146 18.9773 28.7304 18.9941 28.6481 19.0105L28.6328 19.0136C28.6204 19.0161 28.6073 19.0179 28.5942 19.0198C28.5812 19.0217 28.5681 19.0235 28.5556 19.026L28.4934 19.0335C28.3864 19.0435 28.2819 19.0484 28.1748 19.0484H24.073C23.8542 19.0484 23.6351 19.0471 23.4158 19.0457C22.9766 19.0429 22.5367 19.0401 22.0968 19.0484H22.0645C22.047 19.0484 22.0296 19.0484 22.0122 19.0509V18.2395V18.2246C22.0122 18.2146 22.0122 18.2047 22.0097 18.1947C21.9848 18.0081 21.8479 17.8737 21.6538 17.8637H21.5617H18.5501C18.5321 17.8637 18.514 17.8635 18.4959 17.8632C18.361 17.8614 18.2245 17.8595 18.117 17.9583C17.9935 18.0709 17.9964 18.227 17.9992 18.3804C17.9996 18.4032 18 18.426 18 18.4486V19.0484C17.9826 19.0459 17.9652 19.0459 17.9477 19.0459H12.1859C12.149 19.0459 12.1121 19.0461 12.0751 19.0462C11.8899 19.0469 11.7035 19.0476 11.5189 19.031C11.5111 19.0297 11.5027 19.0291 11.494 19.0285C11.4859 19.0279 11.4775 19.0272 11.4691 19.026L11.3795 19.0111C11.2899 18.9937 11.2028 18.9738 11.1157 18.9514C11.036 18.929 10.9564 18.9041 10.8767 18.8767C10.8499 18.8688 10.8242 18.859 10.7981 18.849C10.783 18.8432 10.7678 18.8374 10.7523 18.8319C10.7498 18.8307 10.7479 18.83 10.7461 18.8294C10.7442 18.8288 10.7423 18.8282 10.7398 18.8269C10.7871 18.8443 10.8643 18.8618 10.7199 18.817C10.5706 18.7473 10.4262 18.6676 10.2868 18.578C10.2607 18.5606 10.2352 18.5419 10.2097 18.5233C10.1842 18.5046 10.1587 18.4859 10.1325 18.4685C10.1412 18.4735 10.1487 18.4785 10.1543 18.4822C10.1599 18.4859 10.1636 18.4884 10.1649 18.4884C10.1636 18.4872 10.1587 18.4841 10.1487 18.4778C10.1387 18.4716 10.1238 18.4623 10.1027 18.4486L10.1026 18.4486C10.0952 18.4436 10.0877 18.4386 10.0827 18.4337C10.0479 18.4063 10.0155 18.3789 9.98319 18.349C9.90354 18.2769 9.82639 18.2022 9.75421 18.125C9.70692 18.0753 9.66212 18.023 9.61981 17.9707C9.61616 17.9671 9.61385 17.9634 9.61092 17.9588C9.60985 17.9571 9.6087 17.9553 9.60736 17.9533L9.61483 17.9682C9.60324 17.9494 9.58997 17.9323 9.57648 17.9148C9.56679 17.9023 9.55699 17.8897 9.54763 17.8761C9.49287 17.8015 9.44309 17.7218 9.3958 17.6422C9.38834 17.6347 9.38336 17.6248 9.37838 17.6148C9.34354 17.5526 9.31118 17.4904 9.27882 17.4256L9.2788 17.4256C9.26138 17.3908 9.24397 17.3559 9.22904 17.3211C9.2278 17.3186 9.22717 17.3168 9.22655 17.3149C9.22593 17.313 9.22531 17.3112 9.22406 17.3087C9.22157 17.3062 9.22157 17.3062 9.22157 17.3037C9.21908 17.3012 9.21908 17.3012 9.21908 17.2987C9.15686 17.1319 9.1021 16.9602 9.06477 16.786C9.05456 16.7383 9.04668 16.6895 9.03874 16.6403C9.03506 16.6176 9.03137 16.5948 9.02744 16.5719C9.02744 16.5682 9.02681 16.5645 9.02619 16.5607C9.02557 16.557 9.02495 16.5533 9.02495 16.5495C9.02455 16.5453 9.02415 16.5412 9.02375 16.537C9.01919 16.4893 9.01479 16.4433 9.0125 16.3952C9.00752 16.3205 9.00752 16.2484 9.00752 16.1737V16.1737V15.6535V14.4464C9.02744 14.1253 9.15437 13.8192 9.39331 13.5952C9.63972 13.3662 9.95083 13.2517 10.2844 13.2517H10.5133H15.7154C15.7149 13.1868 15.7144 13.122 15.7138 13.0571C15.7091 12.4694 15.7044 11.8804 15.7179 11.2954C15.7353 10.581 16.2978 10.016 17.0121 10.0011C17.0519 9.99945 17.0927 10 17.1339 10.0005C17.1547 10.0008 17.1755 10.0011 17.1963 10.0011H21.9628H22.9385C23.2994 10.0036 23.6454 10.1231 23.9017 10.3819C24.1755 10.6557 24.2825 11.0141 24.2825 11.3924V13.2517H29.6188H29.7507C30.4128 13.2616 30.9454 13.7743 30.9927 14.4264ZM23.0479 11.3102C23.0454 11.3102 23.0454 11.3078 23.0454 11.3053L23.0454 11.3052V11.2878C23.0491 11.2903 23.0528 11.2934 23.0566 11.2965C23.0603 11.2996 23.064 11.3028 23.0678 11.3052C23.0603 11.3003 23.0503 11.2903 23.0429 11.2804C23.0429 11.2779 23.0423 11.276 23.0416 11.2741C23.041 11.2723 23.0404 11.2704 23.0404 11.2679C23.0423 11.2689 23.0438 11.2698 23.0451 11.2706C23.0473 11.2719 23.0488 11.2729 23.0503 11.2729C23.0474 11.27 23.0445 11.2679 23.0421 11.2662C23.0404 11.265 23.0389 11.264 23.0379 11.2629V11.2604C23.0429 11.2629 23.0503 11.2629 23.0528 11.2629C23.0513 11.2629 23.0488 11.262 23.0454 11.2607C23.0432 11.2599 23.0408 11.2589 23.0379 11.258V11.2455C23.0703 11.243 23.0603 11.238 23.0379 11.2331C23.0379 11.2281 23.0354 11.2256 23.0354 11.2256C23.0329 11.2256 23.0329 11.2281 23.0329 11.2331C23.0304 11.2331 23.0286 11.2324 23.0267 11.2318C23.0248 11.2312 23.023 11.2306 23.0205 11.2306C23.0155 11.2306 23.0105 11.23 23.0055 11.2293C23.0006 11.2287 22.9956 11.2281 22.9906 11.2281C22.9782 11.2181 22.9707 11.2132 22.9707 11.2132C22.9732 11.2156 22.9782 11.2206 22.9881 11.2281H22.9782C22.9707 11.2231 22.9682 11.2231 22.9757 11.2281C22.9632 11.2306 22.9583 11.2331 22.9757 11.243C22.9772 11.2446 22.9788 11.2451 22.9809 11.246C22.9822 11.2465 22.9837 11.247 22.9856 11.248C22.9359 11.2463 22.8874 11.2469 22.8384 11.2474C22.8138 11.2477 22.7891 11.248 22.7641 11.248H17.0869H17.0272C17.0371 11.2405 17.0396 11.2356 17.0371 11.2331C17.0446 11.2281 17.0297 11.2281 17.0098 11.2306L17.0247 11.2156C17.0239 11.2165 17.0228 11.2173 17.0213 11.2184C17.0183 11.2206 17.0139 11.2239 17.0073 11.2306C17.0023 11.2318 16.9979 11.2324 16.9936 11.2331C16.9892 11.2337 16.9849 11.2343 16.9799 11.2356V11.238C16.9758 11.238 16.9724 11.2388 16.9694 11.2395C16.967 11.24 16.9647 11.2405 16.9625 11.2405C16.9625 11.2256 16.9575 11.2306 16.955 11.243C16.9401 11.2455 16.9351 11.2505 16.9525 11.2505C16.9513 11.253 16.9507 11.2561 16.95 11.2592C16.9494 11.2623 16.9488 11.2654 16.9475 11.2679C16.9471 11.2696 16.9467 11.2713 16.9463 11.2728C16.9443 11.2805 16.9426 11.287 16.9426 11.2953C16.9227 11.3177 16.9301 11.3152 16.9426 11.3003C16.9401 11.3177 16.9401 11.3326 16.9451 11.3252C16.9475 11.3276 16.9525 11.3252 16.96 11.3152V11.4446V13.2541H23.0404C23.0454 12.607 23.0504 11.9599 23.0379 11.3127C23.0404 11.3177 23.0454 11.3227 23.0479 11.3202C23.0515 11.3293 23.0512 11.3278 23.0498 11.3215C23.0492 11.3191 23.0486 11.3161 23.0479 11.3127V11.3102ZM30.9979 19.133V27.7699L30.9979 27.7697V28.6483C30.9954 29.3676 30.4478 29.9401 29.721 29.9426H29.0764H10.7304C10.6764 29.9426 10.6227 29.9429 10.569 29.9431C10.462 29.9437 10.3554 29.9442 10.2476 29.9426C9.58803 29.9327 9.05289 29.4249 9.00311 28.7678C8.99938 28.7156 8.99984 28.6633 9.00031 28.611C9.00047 28.5936 9.00062 28.5762 9.00062 28.5588V19.1455C9.1176 19.26 9.24205 19.367 9.37396 19.4665C9.49343 19.5561 9.61788 19.6383 9.7473 19.7154C10.0236 19.8772 10.3173 20.0091 10.6185 20.1062C11.2358 20.3042 11.884 20.2982 12.5258 20.2924C12.6345 20.2914 12.7429 20.2904 12.8511 20.2904H15.8751C16.1007 20.2904 16.3265 20.2915 16.5525 20.2926C17.0046 20.2948 17.4572 20.297 17.9086 20.2904H17.941C17.9559 20.2904 17.9733 20.2904 17.9882 20.2879C17.9882 20.4173 17.9882 20.5492 17.9907 20.6787C17.9932 20.9076 18.15 21.0595 18.3765 21.0645C18.4777 21.0661 18.579 21.0656 18.6802 21.065C18.7308 21.0647 18.7814 21.0645 18.832 21.0645H20.5693C20.6888 21.0645 20.8085 21.0664 20.9283 21.0683C21.1678 21.0722 21.4072 21.0761 21.6445 21.0645C21.8461 21.0545 21.9955 20.9052 22.0054 20.7036C22.0071 20.6788 22.0065 20.6551 22.006 20.631C22.0057 20.6188 22.0054 20.6066 22.0054 20.594V20.2854C22.0228 20.2879 22.0403 20.2879 22.0577 20.2879H26.8265C26.974 20.2879 27.1222 20.2898 27.2707 20.2917C27.8014 20.2985 28.3363 20.3054 28.8574 20.2257C29.3527 20.1485 29.8256 19.9718 30.2512 19.7129C30.3807 19.6333 30.5051 19.5487 30.6246 19.4566C30.754 19.357 30.8809 19.2475 30.9979 19.133Z" fill="white"/>
</svg>
