<svg width="40" height="40" viewBox="0 0 40 40" fill="none" xmlns="http://www.w3.org/2000/svg">
<path d="M0 4C0 1.79086 1.79086 0 4 0H36C38.2091 0 40 1.79086 40 4V36C40 38.2091 38.2091 40 36 40H4C1.79086 40 0 38.2091 0 36V4Z" fill="#FFB337"/>
<path fill-rule="evenodd" clip-rule="evenodd" d="M24 29C24 28.4477 24.4477 28 25 28C25.5523 28 26 28.4477 26 29V30V32H24V30V29ZM13 29C13 28.4477 13.4477 28 14 28H16C16.5523 28 17 28.4477 17 29V30V32H13V30V29ZM22 12H29C29.5523 12 30 12.4477 30 13V31C30 31.5523 29.5523 32 29 32H9C8.44772 32 8 31.5523 8 31V9C8 8.44772 8.44772 8 9 8H21C21.5523 8 22 8.44772 22 9V12ZM13 12C13.5523 12 14 12.4477 14 13C14 13.5523 13.5523 14 13 14C12.4477 14 12 13.5523 12 13C12 12.4477 12.4477 12 13 12ZM13 16C13.5523 16 14 16.4477 14 17C14 17.5523 13.5523 18 13 18C12.4477 18 12 17.5523 12 17C12 16.4477 12.4477 16 13 16ZM25 16C25.5523 16 26 16.4477 26 17C26 17.5523 25.5523 18 25 18C24.4477 18 24 17.5523 24 17C24 16.4477 24.4477 16 25 16ZM13 20C13.5523 20 14 20.4477 14 21C14 21.5523 13.5523 22 13 22C12.4477 22 12 21.5523 12 21C12 20.4477 12.4477 20 13 20ZM25 20C25.5523 20 26 20.4477 26 21C26 21.5523 25.5523 22 25 22C24.4477 22 24 21.5523 24 21C24 20.4477 24.4477 20 25 20ZM13 24C13.5523 24 14 24.4477 14 25C14 25.5523 13.5523 26 13 26C12.4477 26 12 25.5523 12 25C12 24.4477 12.4477 24 13 24ZM25 24C25.5523 24 26 24.4477 26 25C26 25.5523 25.5523 26 25 26C24.4477 26 24 25.5523 24 25C24 24.4477 24.4477 24 25 24ZM17 12C17.5523 12 18 12.4477 18 13C18 13.5523 17.5523 14 17 14C16.4477 14 16 13.5523 16 13C16 12.4477 16.4477 12 17 12ZM17 16C17.5523 16 18 16.4477 18 17C18 17.5523 17.5523 18 17 18C16.4477 18 16 17.5523 16 17C16 16.4477 16.4477 16 17 16ZM17 20C17.5523 20 18 20.4477 18 21C18 21.5523 17.5523 22 17 22C16.4477 22 16 21.5523 16 21C16 20.4477 16.4477 20 17 20ZM17 24C17.5523 24 18 24.4477 18 25C18 25.5523 17.5523 26 17 26C16.4477 26 16 25.5523 16 25C16 24.4477 16.4477 24 17 24Z" fill="white"/>
</svg>
