<svg width="24" height="24" viewBox="0 0 24 24" fill="none" xmlns="http://www.w3.org/2000/svg">
<path d="M7.50937 16.962L6.72187 16.1836L5.97656 16.9203C5.925 16.9713 5.85469 16.9852 5.79375 16.9666L4.88437 16.7535L3.30469 19.4964L4.15781 20.3396L6.93281 18.7782L6.71719 17.8701C6.70313 17.8052 6.72187 17.7404 6.76875 17.6987L7.50937 16.962ZM12.7453 9.03459L14.7469 10.962L15.7734 9.94733L16.6547 9.07166C16.7109 9.01606 16.7906 9.00679 16.8563 9.02996C17.4281 9.21065 18.0422 9.22919 18.6234 9.09019C20.4422 8.65467 21.5156 6.79675 21 5.0315L18.9562 7.05158C18.9047 7.10255 18.8297 7.11645 18.7641 7.09791L17.2219 6.69019C17.1562 6.67166 17.1047 6.62069 17.0906 6.55583L16.6781 5.02687C16.6594 4.96201 16.6828 4.89251 16.725 4.84618L18.7687 2.8261C16.9828 2.31181 15.1031 3.37282 14.6625 5.17513C14.5219 5.75428 14.5406 6.36587 14.7281 6.93575C14.7516 7.00525 14.7328 7.07475 14.6813 7.12108L12.7453 9.03459ZM10.0078 15.8037C9.375 15.2246 8.80312 14.6037 8.025 13.7373L6.77344 14.979C6.56719 15.1829 6.56719 15.5072 6.77344 15.711L8.07656 16.9991C8.2875 17.2076 8.61562 17.2029 8.82187 16.9944L10.0078 15.8037ZM20.1 16.0585L19.2703 15.2385C18.975 14.9466 18.4828 14.9466 18.1875 15.2385L14.6391 18.7458C14.3437 19.0377 14.3437 19.5242 14.6391 19.8161L15.4688 20.6361C15.7641 20.928 16.2563 20.928 16.5516 20.6361L20.1 17.1288C20.3953 16.8369 20.3953 16.3551 20.1 16.0585ZM11.9672 10.4987C12.1406 10.6701 11.8734 10.9296 11.7 10.7581L10.3828 9.43768L10.3734 9.44695L10.0781 9.17359C9.65156 8.77513 8.82656 9.63691 9.25312 10.04L9.54844 10.318L10.8469 11.6199C11.0203 11.7913 10.7531 12.0508 10.5797 11.8794L9.28125 10.5774C9.15469 10.4524 8.95312 10.4616 8.78906 10.5404C8.46094 10.7025 8.17969 11.1659 8.44219 11.43L9.01406 11.9674C9.01875 11.972 9.02344 11.9767 9.02813 11.9813L10.3266 13.2832C10.5 13.4547 10.2328 13.7188 10.0594 13.5427L8.77031 12.25C8.62031 12.1203 8.45625 12.111 8.26875 12.2037C7.94531 12.3612 7.65469 12.8199 7.92188 13.0933L8.15625 13.3574C9.05625 14.372 9.62812 14.9836 10.3828 15.6693C10.8844 16.1188 11.3906 16.5033 12.0234 16.9249C12.2391 17.0593 13.7625 17.9396 13.8141 17.9906L14.3438 18.5002L14.3484 18.4956L17.6672 15.2153L16.8 14.4601C16.7672 14.4323 16.7438 14.3952 16.7391 14.3535L15.7828 10.457L14.8641 11.3651C14.7891 11.4392 14.6719 11.4392 14.5922 11.3558L11.4422 8.32571C11.1609 8.05699 10.7109 8.35814 10.5562 8.67784C10.4719 8.84463 10.4672 9.03459 10.5938 9.16896C10.6125 9.17822 10.6312 9.19212 10.65 9.20602L11.9672 10.4987Z" fill="#124EB0"/>
</svg>
