<svg width="22" height="22" viewBox="0 0 26 26" fill="none" xmlns="http://www.w3.org/2000/svg">
<path fill-rule="evenodd" clip-rule="evenodd" d="M22.7276 15.709C22.1042 15.468 21.4415 15.3443 20.7732 15.3441C19.4217 15.3429 18.1186 15.8469 17.1189 16.7562C16.1191 17.6656 15.4948 18.9156 15.3682 20.261C15.2415 21.6066 15.6218 22.9509 16.4344 24.0309H0.143066V4.48637H7.96087V11.913L11.4354 10.2973L14.91 11.913V4.44269L14.9143 4.48612H22.7276V15.709ZM2.31423 21.8589H6.65745C6.8973 21.8589 7.09177 21.6645 7.09177 21.4246C7.09177 21.1848 6.8973 20.9903 6.65745 20.9903H2.31423C2.07438 20.9903 1.87991 21.1848 1.87991 21.4246C1.87991 21.6645 2.07438 21.8589 2.31423 21.8589ZM2.31423 20.1216H6.65745C6.8973 20.1216 7.09177 19.9272 7.09177 19.6873C7.09177 19.4475 6.8973 19.253 6.65745 19.253H2.31423C2.07438 19.253 1.87991 19.4475 1.87991 19.6873C1.87991 19.9272 2.07438 20.1216 2.31423 20.1216ZM8.82906 10.5537L11.435 9.33755L14.0409 10.5537V4.48605H8.82906V10.5537ZM0.750866 3.6174H8.04301L8.39047 0.142822H3.18307L0.750866 3.6174ZM14.4799 0.142822L14.8274 3.6174H22.1195L19.6873 0.142822H14.4799ZM8.91613 3.6174H13.9543L13.6068 0.142822H9.26358L8.91613 3.6174ZM18.1022 16.7265C18.922 16.1787 19.8859 15.8863 20.8719 15.8863C21.5266 15.8863 22.1749 16.0152 22.7798 16.2658C23.3846 16.5163 23.9342 16.8835 24.3972 17.3465C24.8601 17.8094 25.2273 18.359 25.4779 18.9638C25.7284 19.5687 25.8574 20.217 25.8574 20.8717C25.8574 21.8577 25.565 22.8216 25.0172 23.6414C24.4694 24.4613 23.6907 25.1003 22.7798 25.4776C21.8688 25.8549 20.8664 25.9537 19.8993 25.7613C18.9322 25.5689 18.0439 25.0941 17.3467 24.3969C16.6495 23.6997 16.1747 22.8114 15.9823 21.8443C15.7899 20.8772 15.8887 19.8748 16.266 18.9638C16.6433 18.0529 17.2823 17.2743 18.1022 16.7265ZM21.8286 20.7289C21.5613 20.5018 21.2227 20.3759 20.8719 20.3731C20.7733 20.3731 20.6769 20.3439 20.595 20.2891C20.513 20.2343 20.4491 20.1565 20.4113 20.0654C20.3736 19.9743 20.3637 19.874 20.383 19.7773C20.4022 19.6806 20.4497 19.5918 20.5194 19.5221C20.5891 19.4524 20.678 19.4049 20.7747 19.3856C20.8714 19.3664 20.9716 19.3763 21.0627 19.414C21.1538 19.4517 21.2317 19.5156 21.2865 19.5976C21.3412 19.6796 21.3705 19.776 21.3705 19.8746H22.3676C22.3667 19.566 22.2704 19.2653 22.0919 19.0136C21.9134 18.7619 21.6614 18.5716 21.3705 18.4687V17.8804H20.3734V18.4687C20.0437 18.5884 19.7665 18.8201 19.5903 19.1234C19.4141 19.4267 19.3501 19.7822 19.4095 20.1279C19.4689 20.4736 19.6479 20.7874 19.9152 21.0145C20.1826 21.2416 20.5212 21.3675 20.8719 21.3702C20.9705 21.3702 21.0669 21.3995 21.1489 21.4542C21.2309 21.509 21.2948 21.5869 21.3325 21.678C21.3703 21.7691 21.3801 21.8693 21.3609 21.966C21.3417 22.0627 21.2942 22.1516 21.2245 22.2213C21.1547 22.291 21.0659 22.3385 20.9692 22.3577C20.8725 22.377 20.7722 22.3671 20.6811 22.3294C20.5901 22.2916 20.5122 22.2277 20.4574 22.1457C20.4026 22.0638 20.3734 21.9674 20.3734 21.8688H19.3763C19.3772 22.1773 19.4735 22.4781 19.652 22.7298C19.8305 22.9815 20.0825 23.1718 20.3734 23.2747V23.8629H21.3705V23.2747C21.7002 23.155 21.9774 22.9233 22.1536 22.62C22.3298 22.3167 22.3938 21.9611 22.3344 21.6155C22.275 21.2698 22.096 20.9559 21.8286 20.7289Z" fill="#EC7100"/>
</svg>
