<svg width="40" height="40" viewBox="0 0 40 40" fill="none" xmlns="http://www.w3.org/2000/svg">
<rect width="40" height="40" rx="4" fill="#FFBB4B"/>
<path fill-rule="evenodd" clip-rule="evenodd" d="M16.626 8.00346H27.3125C27.7599 8.00346 28.1893 8.20144 28.5057 8.55357C28.8222 8.90568 29 9.38339 29 9.88162V30.122C29 30.6202 28.8222 31.0979 28.5057 31.45C28.1893 31.8021 27.7601 32 27.3127 32H12.6886C12.2412 32 11.812 31.8021 11.4956 31.45C11.1791 31.0979 11.0013 30.6202 11.0013 30.122V14.2115C10.9981 14.1623 11.0009 14.1128 11.0098 14.0644C11.0128 14.0462 11.0175 14.0285 11.0239 14.0114L11.0408 13.9487L11.0689 13.886C11.0762 13.8697 11.0847 13.8539 11.0941 13.8391C11.1143 13.8038 11.1378 13.7714 11.1644 13.742L16.2266 8.15982C16.2529 8.13027 16.2821 8.10407 16.3138 8.08164C16.3266 8.07095 16.3407 8.06257 16.3558 8.0567L16.4121 8.02232L16.4684 8.00346H16.5162C16.5527 7.99885 16.5895 7.99885 16.626 8.00346ZM16.0636 10.1412L12.9222 13.5854H16.0636V10.1412ZM23.9394 19.8448C24.0893 20.1134 24.2136 20.4061 24.3064 20.7148C24.3846 20.9734 24.5922 21.1704 24.8517 21.2316L26 21.5036V22.4537L24.8648 22.7246C24.5995 22.788 24.3897 22.9928 24.3159 23.2592C24.2362 23.5493 24.1171 23.8424 23.9621 24.1307C23.8327 24.3711 23.8415 24.6639 23.984 24.8961L24.5951 25.8919L23.9204 26.5675L22.922 25.9494C22.6946 25.8073 22.4089 25.801 22.1742 25.9309C21.9198 26.0715 21.6245 26.1935 21.2956 26.2941C21.0405 26.372 20.8454 26.5816 20.7832 26.8447L20.5106 28H19.537L19.2599 26.8484C19.1949 26.5779 18.9895 26.3653 18.7241 26.2941C18.442 26.218 18.1547 26.1034 17.8704 25.9535C17.6379 25.8311 17.3609 25.8396 17.1365 25.9776L16.1176 26.6054L15.4349 25.922L16.0437 24.9336C16.1921 24.6935 16.1958 24.3893 16.054 24.1452C15.9019 23.8821 15.7813 23.5976 15.698 23.2993C15.6227 23.034 15.4129 22.8307 15.1483 22.7684L14 22.4964V21.5544L15.1417 21.2828C15.4122 21.2187 15.6249 21.0072 15.6951 20.7341C15.7674 20.4525 15.8793 20.172 16.0379 19.8767C16.1673 19.6363 16.1585 19.3436 16.016 19.1113L15.4034 18.114L16.081 17.4332L17.078 18.0506C17.3054 18.1923 17.5912 18.1994 17.8258 18.0691C18.0802 17.9285 18.3755 17.8065 18.7037 17.7067C18.9588 17.6287 19.1547 17.4191 19.2168 17.1561L19.4894 16H20.4616L20.7335 17.1427C20.7971 17.4102 20.9981 17.6221 21.259 17.6959C21.5646 17.7827 21.8497 17.8988 22.1289 18.0506C22.3621 18.1778 22.6457 18.1693 22.8715 18.0294L23.8854 17.4024L24.5644 18.0788L23.9555 19.066C23.8093 19.3028 23.8035 19.6018 23.9394 19.8448ZM17.2271 22.0015C17.2271 23.536 18.4712 24.7845 19.9996 24.7845C21.5288 24.7845 22.7729 23.536 22.7729 22.0015C22.7729 20.4666 21.5288 19.2182 19.9996 19.2182C18.4712 19.2182 17.2271 20.4666 17.2271 22.0015Z" fill="white"/>
</svg>
