<svg width="40" height="40" viewBox="0 0 40 40" fill="none" xmlns="http://www.w3.org/2000/svg">
<rect width="40" height="40" rx="4" fill="#9B1919"/>
<path fill-rule="evenodd" clip-rule="evenodd" d="M8.67828 8.61126C9.11257 8.21988 9.7016 8 10.3158 8H30C29.3858 8 28.7968 8.21988 28.3625 8.61126C27.9282 9.00264 27.6842 9.53346 27.6842 10.087V32H8V10.087C8 9.53346 8.24398 9.00264 8.67828 8.61126ZM12.0645 23H18.9355C19.2178 23 19.4886 23.0843 19.6882 23.2343C19.8878 23.3843 20 23.5878 20 23.8C20 24.0122 19.8878 24.2157 19.6882 24.3657C19.4886 24.5157 19.2178 24.6 18.9355 24.6H12.0645C11.7822 24.6 11.5114 24.5157 11.3118 24.3657C11.1122 24.2157 11 24.0122 11 23.8C11 23.5878 11.1122 23.3843 11.3118 23.2343C11.5114 23.0843 11.7822 23 12.0645 23ZM12.1349 16.6H22.8651C23.1661 16.6 23.4548 16.5157 23.6676 16.3657C23.8804 16.2157 24 16.0122 24 15.8C24 15.5878 23.8804 15.3843 23.6676 15.2343C23.4548 15.0843 23.1661 15 22.8651 15H12.1349C11.8339 15 11.5452 15.0843 11.3324 15.2343C11.1196 15.3843 11 15.5878 11 15.8C11 16.0122 11.1196 16.2157 11.3324 16.3657C11.5452 16.5157 11.8339 16.6 12.1349 16.6ZM22.8651 20.6H12.1349C11.8339 20.6 11.5452 20.5157 11.3324 20.3657C11.1196 20.2157 11 20.0122 11 19.8C11 19.5878 11.1196 19.3843 11.3324 19.2343C11.5452 19.0843 11.8339 19 12.1349 19H22.8651C23.1661 19 23.4548 19.0843 23.6676 19.2343C23.8804 19.3843 24 19.5878 24 19.8C24 20.0122 23.8804 20.2157 23.6676 20.3657C23.4548 20.5157 23.1661 20.6 22.8651 20.6Z" fill="white"/>
<path d="M30.5712 9.04346C30.1923 9.04346 29.8289 9.20836 29.561 9.5019C29.2931 9.79543 29.1426 10.1936 29.1426 10.6087V12.1739H31.9997V10.6087C31.9997 10.1936 31.8492 9.79543 31.5813 9.5019C31.3134 9.20836 30.95 9.04346 30.5712 9.04346Z" fill="white"/>
</svg>
