<svg width="20" height="20" viewBox="0 0 20 20" fill="none" xmlns="http://www.w3.org/2000/svg">
<g clip-path="url(#clip0_26048_5178)">
<path d="M17.4187 10.0062C17.4187 9.54657 17.0475 9.17534 16.5879 9.17533L10.8309 9.16944L10.8309 3.40652C10.8309 2.9469 10.4596 2.57567 10 2.57567C9.54038 2.57567 9.16915 2.9469 9.16915 3.40652L9.16915 9.16944L3.40623 9.16944C2.94661 9.16944 2.57538 9.54067 2.57538 10.0003C2.57538 10.4599 2.94661 10.8311 3.40623 10.8311L9.16915 10.8311L9.16915 16.5941C9.16915 17.0537 9.54038 17.4249 10 17.4249C10.4596 17.4249 10.8308 17.0537 10.8309 16.5941L10.8308 10.8311L16.5938 10.8311C17.0416 10.8311 17.4187 10.454 17.4187 10.0062Z" fill="white"/>
</g>
<defs>
<clipPath id="clip0_26048_5178">
<rect width="20" height="20" fill="white"/>
</clipPath>
</defs>
</svg>
