<svg width="40" height="40" viewBox="0 0 40 40" fill="none" xmlns="http://www.w3.org/2000/svg">
<path fill-rule="evenodd" clip-rule="evenodd" d="M18.5 18.5V12.5C18.5 11.6716 19.1716 11 20 11C20.8284 11 21.5 11.6716 21.5 12.5V18.5H27.5C28.3284 18.5 29 19.1716 29 20C29 20.8284 28.3284 21.5 27.5 21.5H21.5V27.5C21.5 28.3284 20.8284 29 20 29C19.1716 29 18.5 28.3284 18.5 27.5V21.5H12.5C11.6716 21.5 11 20.8284 11 20C11 19.1716 11.6716 18.5 12.5 18.5H18.5ZM20 5C11.7157 5 5 11.7157 5 20C5 28.2843 11.7157 35 20 35C28.2843 35 35 28.2843 35 20C35 11.7157 28.2843 5 20 5ZM38 20C38 29.9411 29.9411 38 20 38C10.0589 38 2 29.9411 2 20C2 10.0589 10.0589 2 20 2C29.9411 2 38 10.0589 38 20Z" fill="#4E586D"/>
</svg>
