<svg width="23" height="22" viewBox="0 0 23 22" fill="none" xmlns="http://www.w3.org/2000/svg">
<g clip-path="url(#clip0_25419_1560)">
<path d="M17.2035 5.13335H16.3887V4.16669C16.3887 3.89054 16.1649 3.66669 15.8887 3.66669H15.2591C14.983 3.66669 14.7591 3.89054 14.7591 4.16669V5.13335H8.24058V4.16669C8.24058 3.89054 8.01672 3.66669 7.74058 3.66669H7.11095C6.83481 3.66669 6.61095 3.89054 6.61095 4.16669V5.13335H5.79613C4.89169 5.13335 4.17465 5.79335 4.17465 6.60002L4.1665 16.8667C4.1665 17.6734 4.89169 18.3334 5.79613 18.3334H17.2035C18.0998 18.3334 18.8332 17.6734 18.8332 16.8667V6.60002C18.8332 5.79335 18.0998 5.13335 17.2035 5.13335ZM17.2035 16.8667H5.79613V8.80002H17.2035V16.8667ZM7.42576 10.7667C7.42576 10.4905 7.64962 10.2667 7.92576 10.2667H10.9998C11.276 10.2667 11.4998 10.4905 11.4998 10.7667V13.4334C11.4998 13.7095 11.276 13.9334 10.9998 13.9334H7.92576C7.64962 13.9334 7.42576 13.7095 7.42576 13.4334V10.7667Z" fill="#7188BB"/>
</g>
<defs>
<clipPath id="clip0_25419_1560">
<rect width="22" height="22" fill="white" transform="translate(0.5)"/>
</clipPath>
</defs>
</svg>
