<svg width="40" height="40" viewBox="0 0 40 40" fill="none" xmlns="http://www.w3.org/2000/svg">
<path d="M0 4C0 1.79086 1.79086 0 4 0H36C38.2091 0 40 1.79086 40 4V36C40 38.2091 38.2091 40 36 40H4C1.79086 40 0 38.2091 0 36V4Z" fill="#2196F3"/>
<path fill-rule="evenodd" clip-rule="evenodd" d="M15.9386 8.00346H27.2187C27.691 8.00346 28.1442 8.20144 28.4782 8.55357C28.8124 8.90568 29 9.38339 29 9.88162V30.122C29 30.6202 28.8123 31.0979 28.4782 31.45C28.1443 31.8021 27.6912 32 27.2189 32H11.7824C11.3101 32 10.8571 31.8021 10.5232 31.45C10.189 31.0979 10.0013 30.6202 10.0013 30.122V14.2115C9.99797 14.1623 10.0009 14.1128 10.0103 14.0644C10.0135 14.0462 10.0184 14.0285 10.0252 14.0114L10.0431 13.9487L10.0727 13.886C10.0805 13.8697 10.0894 13.8539 10.0993 13.8391C10.1206 13.8038 10.1455 13.7714 10.1735 13.742L15.5169 8.15982C15.5448 8.13027 15.5756 8.10407 15.609 8.08164C15.6225 8.07095 15.6374 8.06257 15.6533 8.0567L15.7127 8.02232L15.7722 8.00346H15.8227C15.8612 7.99885 15.9 7.99885 15.9386 8.00346ZM15.3449 10.1412L12.029 13.5854H15.3449V10.1412ZM17.8661 21.847C17.6629 21.6346 17.3824 21.5149 17.0894 21.5158C16.8018 21.5166 16.5259 21.6314 16.3219 21.8354C16.1179 22.0397 16.0023 22.3164 16 22.606C15.9975 22.8953 16.1088 23.1739 16.3096 23.3814C16.9216 24.0079 17.7273 24.406 18.5947 24.5105L18.5958 24.9631C18.6024 25.3344 18.803 25.6751 19.1234 25.8599C19.4441 26.045 19.8375 26.0467 20.1597 25.8648C20.4821 25.6831 20.6855 25.3441 20.6958 24.9728L20.6972 24.4499C21.34 24.3389 21.9229 24.0034 22.3434 23.502C22.764 23.0005 22.9948 22.3657 22.9954 21.71C23.0393 20.9612 22.7682 20.2282 22.2484 19.6904C21.7485 19.2634 21.1271 19.0057 20.4735 18.9537L19.4982 18.8143C19.2871 18.7933 19.0868 18.7106 18.9213 18.5769C18.8334 18.4868 18.7858 18.3648 18.7895 18.2388C18.7895 17.802 19.1356 17.5411 19.7157 17.5411C20.2444 17.4938 20.7696 17.664 21.1714 18.0133C21.3708 18.2159 21.643 18.3292 21.9266 18.3272C22.2104 18.3269 22.4823 18.2136 22.6829 18.0118C22.8835 17.8101 22.9962 17.5366 22.9968 17.251C22.9965 16.9494 22.8687 16.6621 22.6453 16.4609C22.1106 15.9467 21.4298 15.612 20.6977 15.5041V15.0197C20.6823 14.7476 20.5656 14.4916 20.3705 14.3025C20.1753 14.1134 19.9165 14.0055 19.6458 14C19.381 14.0011 19.1262 14.1013 18.9313 14.2815C18.7365 14.4615 18.6152 14.7083 18.5918 14.9735L18.593 15.5891C17.9947 15.7386 17.4646 16.0882 17.0896 16.5806C16.7147 17.0728 16.5173 17.6787 16.5299 18.2989C16.4962 18.9963 16.7476 19.6773 17.2257 20.1838C17.7265 20.6338 18.3573 20.9111 19.0258 20.9745L20.0276 21.1148C20.2256 21.118 20.4164 21.1886 20.5694 21.3146C20.6767 21.436 20.7289 21.597 20.7129 21.7586C20.7129 21.9253 20.7129 22.4333 19.5993 22.4333C18.9668 22.4809 18.3417 22.2694 17.8661 21.847Z" fill="white"/>
</svg>
