<svg width="24" height="24" viewBox="0 0 24 24" fill="none" xmlns="http://www.w3.org/2000/svg">
<g clip-path="url(#clip0_26147_589812)">
<path d="M19 8H18V4C18 3.44772 17.5523 3 17 3H7C6.44771 3 6 3.44772 6 4V8H5C3.34 8 2 9.34 2 11V16C2 16.5523 2.44772 17 3 17H6V20C6 20.5523 6.44772 21 7 21H17C17.5523 21 18 20.5523 18 20V17H21C21.5523 17 22 16.5523 22 16V11C22 9.34 20.66 8 19 8ZM8 5H16V8H8V5ZM16 17V19H8V15H16V17ZM18 15V13H6V15H4V11C4 10.45 4.45 10 5 10H19C19.55 10 20 10.45 20 11V15H18Z" fill="#124EB0"/>
<path d="M18 12.5C18.5523 12.5 19 12.0523 19 11.5C19 10.9477 18.5523 10.5 18 10.5C17.4477 10.5 17 10.9477 17 11.5C17 12.0523 17.4477 12.5 18 12.5Z" fill="#124EB0"/>
</g>
<defs>
<clipPath id="clip0_26147_589812">
<rect width="24" height="24" fill="white"/>
</clipPath>
</defs>
</svg>
