<svg width="24" height="24" viewBox="0 0 24 24" fill="none" xmlns="http://www.w3.org/2000/svg">
<rect width="24" height="24" rx="4" fill="#4DC1A5"/>
<path d="M6.49629 6.39999H17.4963L16.7443 5.59999H7.14429L6.49629 6.39999ZM18.8323 6.58399C19.0643 6.85599 19.2003 7.19999 19.2003 7.59999V17.6C19.2003 18.0243 19.0317 18.4313 18.7317 18.7314C18.4316 19.0314 18.0246 19.2 17.6003 19.2H6.40029C5.97595 19.2 5.56898 19.0314 5.26892 18.7314C4.96886 18.4313 4.80029 18.0243 4.80029 17.6V7.59999C4.80029 7.19999 4.93629 6.85599 5.16829 6.58399L6.27229 5.23999C6.49629 4.96799 6.82429 4.79999 7.20029 4.79999H16.8003C17.1763 4.79999 17.5043 4.96799 17.7203 5.23999L18.8323 6.58399ZM7.20029 16.8H12.0003V14.4H7.20029V16.8Z" fill="white"/>
</svg>
