<svg width="40" height="40" viewBox="0 0 40 40" fill="none" xmlns="http://www.w3.org/2000/svg">
<path d="M29.7336 24.7192C30.2151 23.8442 30.4863 22.8467 30.4863 21.7792C30.4863 18.3929 27.7466 15.6543 24.3593 15.6543C20.9809 15.6543 18.2323 18.3932 18.2323 21.7792C18.2323 25.1568 20.9807 27.9041 24.3593 27.9041C25.4009 27.9041 26.3899 27.6415 27.2478 27.1864L31.0115 30.949C31.6934 31.6307 32.8159 31.6214 33.4887 30.949C34.1714 30.2664 34.1714 29.1552 33.4887 28.4727L29.7336 24.7192ZM24.3594 26.1542C21.9524 26.1542 19.983 24.1941 19.983 21.7792C19.983 19.364 21.9524 17.4042 24.3594 17.4042C26.7752 17.4042 28.7359 19.3643 28.7359 21.7792C28.7359 24.1286 26.8437 26.1542 24.3594 26.1542Z" fill="#134C85"/>
<path fill-rule="evenodd" clip-rule="evenodd" d="M23.0785 21.2832C22.7937 20.9795 22.3321 20.9795 22.0473 21.2832C21.7626 21.5869 21.7626 22.0794 22.0473 22.3831L23.5056 23.9387C23.7904 24.2424 24.2521 24.2424 24.5368 23.9387L27.4535 20.8276C27.7383 20.5238 27.7383 20.0314 27.4535 19.7276C27.1687 19.4239 26.7071 19.4239 26.4223 19.7276L24.0212 22.2888L23.0785 21.2832Z" fill="#134C85"/>
<path d="M9.29274 9.55616C9.41352 9.55616 9.51147 9.45821 9.51147 9.33743V6.54647C9.51147 6.35119 9.2749 6.25366 9.13731 6.39249L6.3692 9.18345C6.23223 9.32145 6.33018 9.55616 6.52463 9.55616H9.29274Z" fill="#134C85"/>
<path fill-rule="evenodd" clip-rule="evenodd" d="M23.1059 29.5574C19.2026 28.9672 16.4535 25.6751 16.4774 21.7288C16.5034 17.4107 20.0294 13.9013 24.3549 13.9013C25.1859 13.9013 25.9821 14.032 26.7257 14.2694C26.8664 14.3142 27.0071 14.2146 27.0071 14.0671V6.87493C27.0071 6.39327 26.613 5.99958 26.1313 6L11.6981 6.00872C11.4564 6.00872 11.2605 6.20482 11.2605 6.44638V10.865C11.2605 11.1065 11.0646 11.3024 10.8228 11.3024H6.43767C6.1959 11.3024 6 11.4983 6 11.7399V33.1251C6 33.6063 6.39388 34 6.87535 34H26.1313C26.6127 34 27.0066 33.6063 27.0066 33.1251V29.4237L26.8404 29.2575C25.654 29.6484 24.3707 29.7483 23.1058 29.5569L23.1059 29.5574ZM9.5 16.3333C9.5 15.781 9.94772 15.3333 10.5 15.3333H14.3333C14.8856 15.3333 15.3333 15.781 15.3333 16.3333V16.6667C15.3333 17.219 14.8856 17.6667 14.3333 17.6667H10.5C9.94772 17.6667 9.5 17.219 9.5 16.6667V16.3333ZM10.5 20C9.94772 20 9.5 20.4477 9.5 21V21.3333C9.5 21.8856 9.94772 22.3333 10.5 22.3333H14.3333C14.8856 22.3333 15.3333 21.8856 15.3333 21.3333V21C15.3333 20.4477 14.8856 20 14.3333 20H10.5Z" fill="#134C85"/>
<path d="M29.7336 24.7192C30.2151 23.8442 30.4863 22.8467 30.4863 21.7792C30.4863 18.3929 27.7466 15.6543 24.3593 15.6543C20.9809 15.6543 18.2323 18.3932 18.2323 21.7792C18.2323 25.1568 20.9807 27.9041 24.3593 27.9041C25.4009 27.9041 26.3899 27.6415 27.2478 27.1864L31.0115 30.949C31.6934 31.6307 32.8159 31.6214 33.4887 30.949C34.1714 30.2664 34.1714 29.1552 33.4887 28.4727L29.7336 24.7192ZM24.3594 26.1542C21.9524 26.1542 19.983 24.1941 19.983 21.7792C19.983 19.364 21.9524 17.4042 24.3594 17.4042C26.7752 17.4042 28.7359 19.3643 28.7359 21.7792C28.7359 24.1286 26.8437 26.1542 24.3594 26.1542Z" fill="#134C85"/>
<path fill-rule="evenodd" clip-rule="evenodd" d="M23.0785 21.2832C22.7937 20.9795 22.3321 20.9795 22.0473 21.2832C21.7626 21.5869 21.7626 22.0794 22.0473 22.3831L23.5056 23.9387C23.7904 24.2424 24.2521 24.2424 24.5368 23.9387L27.4535 20.8276C27.7383 20.5238 27.7383 20.0314 27.4535 19.7276C27.1687 19.4239 26.7071 19.4239 26.4223 19.7276L24.0212 22.2888L23.0785 21.2832Z" fill="#134C85"/>
<path d="M9.29274 9.55616C9.41352 9.55616 9.51147 9.45821 9.51147 9.33743V6.54647C9.51147 6.35119 9.2749 6.25366 9.13731 6.39249L6.3692 9.18345C6.23223 9.32145 6.33018 9.55616 6.52463 9.55616H9.29274Z" fill="#134C85"/>
<path fill-rule="evenodd" clip-rule="evenodd" d="M23.1059 29.5574C19.2026 28.9672 16.4535 25.6751 16.4774 21.7288C16.5034 17.4107 20.0294 13.9013 24.3549 13.9013C25.1859 13.9013 25.9821 14.032 26.7257 14.2694C26.8664 14.3142 27.0071 14.2146 27.0071 14.0671V6.87493C27.0071 6.39327 26.613 5.99958 26.1313 6L11.6981 6.00872C11.4564 6.00872 11.2605 6.20482 11.2605 6.44638V10.865C11.2605 11.1065 11.0646 11.3024 10.8228 11.3024H6.43767C6.1959 11.3024 6 11.4983 6 11.7399V33.1251C6 33.6063 6.39388 34 6.87535 34H26.1313C26.6127 34 27.0066 33.6063 27.0066 33.1251V29.4237L26.8404 29.2575C25.654 29.6484 24.3707 29.7483 23.1058 29.5569L23.1059 29.5574ZM9.5 16.3333C9.5 15.781 9.94772 15.3333 10.5 15.3333H14.3333C14.8856 15.3333 15.3333 15.781 15.3333 16.3333V16.6667C15.3333 17.219 14.8856 17.6667 14.3333 17.6667H10.5C9.94772 17.6667 9.5 17.219 9.5 16.6667V16.3333ZM10.5 20C9.94772 20 9.5 20.4477 9.5 21V21.3333C9.5 21.8856 9.94772 22.3333 10.5 22.3333H14.3333C14.8856 22.3333 15.3333 21.8856 15.3333 21.3333V21C15.3333 20.4477 14.8856 20 14.3333 20H10.5Z" fill="#124eb0"/>
</svg>
