<svg width="24" height="24" viewBox="0 0 24 24" fill="none" xmlns="http://www.w3.org/2000/svg">
<path fill-rule="evenodd" clip-rule="evenodd" d="M9.73547 13.1114C9.72011 15.6483 11.4874 17.7646 13.9966 18.144C14.8098 18.2671 15.6347 18.2025 16.3974 17.9512L16.5042 18.0581V20.4376C16.5042 20.7469 16.251 21 15.9415 21H3.56273C3.25321 21 3 20.7469 3 20.4376V6.68992C3 6.53463 3.12594 6.40869 3.28136 6.40869H6.10038C6.2558 6.40869 6.38174 6.28276 6.38174 6.12747V3.28696C6.38174 3.13167 6.50767 3.0056 6.6631 3.0056L15.9415 3C16.2512 2.99973 16.5046 3.25282 16.5046 3.56245V8.18598C16.5046 8.28083 16.4141 8.34487 16.3237 8.31605C15.8456 8.16343 15.3338 8.07939 14.7996 8.07939C12.0189 8.07939 9.75218 10.3354 9.73547 13.1114ZM5.89286 9C5.53782 9 5.25 9.28782 5.25 9.64283V9.85716C5.25 10.2122 5.53782 10.5 5.89286 10.5H8.35714C8.71218 10.5 9 10.2122 9 9.85716V9.64283C9 9.28782 8.71218 9 8.35714 9H5.89286ZM5.25 12.6429C5.25 12.2878 5.53782 12 5.89286 12H8.35714C8.71218 12 9 12.2878 9 12.6429V12.8571C9 13.2122 8.71218 13.5 8.35714 13.5H5.89286C5.53782 13.5 5.25 13.2122 5.25 12.8571V12.6429ZM5.11676 5.2861C5.19441 5.2861 5.25737 5.22313 5.25737 5.14549V3.3513C5.25737 3.22577 5.10529 3.16307 5.01684 3.25232L3.23734 5.0465C3.14929 5.13522 3.21226 5.2861 3.33726 5.2861H5.11676ZM18.7412 13.1438C18.7412 13.83 18.5668 14.4713 18.2573 15.0338L20.6713 17.4467C21.1102 17.8855 21.1102 18.5998 20.6713 19.0386C20.2388 19.4709 19.5172 19.4769 19.0788 19.0386L16.6593 16.6198C16.1078 16.9124 15.472 17.0812 14.8024 17.0812C12.6304 17.0812 10.8636 15.3151 10.8636 13.1438C10.8636 10.9671 12.6306 9.20636 14.8024 9.20636C16.98 9.20636 18.7412 10.9669 18.7412 13.1438ZM11.9891 13.1438C11.9891 14.6962 13.2551 15.9563 14.8025 15.9563C16.3995 15.9563 17.6159 14.6541 17.6159 13.1438C17.6159 11.5913 16.3555 10.3313 14.8025 10.3313C13.2551 10.3313 11.9891 11.5911 11.9891 13.1438ZM13.3161 12.8249C13.4992 12.6297 13.7959 12.6297 13.979 12.8249L14.5851 13.4714L16.1286 11.8249C16.3117 11.6296 16.6084 11.6296 16.7915 11.8249C16.9746 12.0202 16.9746 12.3367 16.7915 12.532L14.9165 14.532C14.7335 14.7273 14.4367 14.7273 14.2536 14.532L13.3161 13.532C13.1331 13.3368 13.1331 13.0201 13.3161 12.8249Z" fill="#124eb0"/>
</svg>
