<svg width="24" height="24" viewBox="0 0 24 24" fill="none" xmlns="http://www.w3.org/2000/svg">
<path d="M15.838 11.5225C14.7656 10.7634 13.4071 10.3424 12 10.3333C11.6044 10.3333 11.2178 10.2356 10.8889 10.0524C10.56 9.86931 10.3036 9.60902 10.1522 9.30447C10.0009 8.99993 9.96126 8.66482 10.0384 8.34152C10.1156 8.01821 10.3061 7.72124 10.5858 7.48816C10.8655 7.25507 11.2219 7.09633 11.6098 7.03202C11.9978 6.96772 12.3999 7.00072 12.7654 7.12687C13.1308 7.25301 13.4432 7.46663 13.6629 7.74072C13.8827 8.0148 14 8.33703 14 8.66667H18C17.9965 7.63509 17.6102 6.62967 16.8941 5.78822C16.178 4.94678 15.1671 4.31052 14 3.96667V2H10V3.96667C8.67726 4.36663 7.56528 5.14129 6.85846 6.15522C6.15163 7.16915 5.89492 8.35785 6.1332 9.51352C6.37149 10.6692 7.0896 11.7183 8.16201 12.4775C9.23443 13.2366 10.5929 13.6576 12 13.6667C12.3956 13.6667 12.7822 13.7644 13.1111 13.9476C13.44 14.1307 13.6964 14.391 13.8478 14.6955C13.9991 15.0001 14.0387 15.3352 13.9616 15.6585C13.8844 15.9818 13.6939 16.2788 13.4142 16.5118C13.1345 16.7449 12.7781 16.9037 12.3902 16.968C12.0022 17.0323 11.6001 16.9993 11.2346 16.8731C10.8692 16.747 10.5568 16.5334 10.3371 16.2593C10.1173 15.9852 10 15.663 10 15.3333H6C6.00348 16.3649 6.38976 17.3703 7.10588 18.2118C7.822 19.0532 8.8329 19.6895 10 20.0333V22H14V20.0333C15.3227 19.6334 16.4347 18.8587 17.1415 17.8448C17.8484 16.8309 18.1051 15.6422 17.8668 14.4865C17.6285 13.3308 16.9104 12.2817 15.838 11.5225Z" fill="#469D38"/>
</svg>
