<svg width="22" height="22" viewBox="0 0 22 28" fill="none" xmlns="http://www.w3.org/2000/svg">
<path fill-rule="evenodd" clip-rule="evenodd" d="M0.743498 0.820101C0.267444 1.3452 0 2.05739 0 2.8V25.2C0 25.9426 0.267444 26.6548 0.743498 27.1799C1.21955 27.705 1.86522 28 2.53846 28H14.5997C14.3735 27.835 14.1586 27.6541 13.9571 27.4581C13.118 26.6423 12.5465 25.6029 12.315 24.4714C12.0835 23.3398 12.2023 22.1669 12.6564 21.101C13.1106 20.0351 13.8796 19.1241 14.8663 18.4831C15.853 17.8421 17.013 17.5 18.1997 17.5C18.9877 17.5 19.7679 17.6509 20.4958 17.944C21.0396 18.163 21.5462 18.4582 22 18.8193V6.14693L16.4272 0H2.53846C1.86522 0 1.21955 0.294999 0.743498 0.820101ZM10.9999 8.16667H5.07692V9.01194H16.9231V8.16667H10.9999ZM5.07692 14H16.9231V14.924H5.07692V14ZM19.3511 23.1662C19.0294 22.9005 18.6218 22.7532 18.1997 22.75C18.0811 22.75 17.965 22.7158 17.8664 22.6517C17.7677 22.5876 17.6908 22.4965 17.6454 22.3899C17.6 22.2833 17.5881 22.166 17.6113 22.0529C17.6344 21.9397 17.6915 21.8358 17.7755 21.7542C17.8594 21.6726 17.9663 21.617 18.0827 21.5945C18.1991 21.572 18.3197 21.5836 18.4293 21.6277C18.539 21.6719 18.6327 21.7467 18.6986 21.8426C18.7645 21.9385 18.7997 22.0513 18.7997 22.1667H19.9997C19.9987 21.8056 19.8828 21.4537 19.668 21.1592C19.4531 20.8647 19.1499 20.642 18.7997 20.5217V19.8333H17.5997V20.5217C17.2029 20.6617 16.8693 20.9328 16.6573 21.2877C16.4452 21.6425 16.3682 22.0586 16.4397 22.4631C16.5112 22.8675 16.7266 23.2347 17.0483 23.5004C17.3701 23.7662 17.7776 23.9135 18.1997 23.9167C18.3184 23.9167 18.4344 23.9509 18.5331 24.015C18.6317 24.0791 18.7086 24.1702 18.754 24.2768C18.7995 24.3834 18.8113 24.5006 18.7882 24.6138C18.765 24.727 18.7079 24.8309 18.624 24.9125C18.5401 24.9941 18.4332 25.0496 18.3168 25.0721C18.2004 25.0946 18.0797 25.0831 17.9701 25.0389C17.8605 24.9948 17.7668 24.92 17.7008 24.8241C17.6349 24.7282 17.5997 24.6154 17.5997 24.5H16.3997C16.4008 24.861 16.5166 25.2129 16.7315 25.5075C16.9463 25.802 17.2496 26.0246 17.5997 26.145V26.8333H18.7997V26.145C19.1965 26.005 19.5301 25.7339 19.7422 25.379C19.9542 25.0241 20.0312 24.6081 19.9598 24.2036C19.8883 23.7991 19.6728 23.4319 19.3511 23.1662Z" fill="#469D38"/>
</svg>
