<svg width="24" height="24" viewBox="0 0 24 24" fill="none" xmlns="http://www.w3.org/2000/svg">
<path d="M7.66173 6.39902H7.31173V6.74902V7.29242V7.64242H7.66173H15.7387H16.0887V7.29242V6.74902V6.39902H15.7387H11.7001H7.66173ZM16.0887 9.74902V9.39902H15.7387H7.66173H7.31173V9.74902V10.343V10.693H7.66173H15.7387H16.0887V10.343V9.74902ZM4.5502 4.79902C4.5502 4.41013 4.69887 4.03979 4.95942 3.76882C5.21952 3.49832 5.56929 3.34902 5.93096 3.34902H15.2516L18.8502 7.09159V19.199C18.8502 19.5879 18.7015 19.9583 18.441 20.2292C18.1809 20.4997 17.8311 20.649 17.4694 20.649H5.93096C5.56929 20.649 5.21952 20.4997 4.95942 20.2292C4.69887 19.9583 4.5502 19.5879 4.5502 19.199V4.79902Z" stroke="#469D38" stroke-width="0.7"/>
<path d="M11.5498 11.999C10.8081 11.999 10.0831 12.219 9.46642 12.631C8.84973 13.0431 8.36909 13.6287 8.08526 14.314C7.80143 14.9992 7.72717 15.7532 7.87186 16.4806C8.01656 17.208 8.37371 17.8762 8.89816 18.4007C9.4226 18.9251 10.0908 19.2823 10.8182 19.427C11.5456 19.5717 12.2996 19.4974 12.9849 19.2136C13.6701 18.9297 14.2558 18.4491 14.6678 17.8324C15.0799 17.2157 15.2998 16.4907 15.2998 15.749C15.2998 15.2566 15.2028 14.7689 15.0144 14.314C14.8259 13.859 14.5497 13.4456 14.2015 13.0974C13.8532 12.7492 13.4398 12.4729 12.9849 12.2845C12.5299 12.096 12.0423 11.999 11.5498 11.999ZM11.5498 15.374C11.8136 15.3761 12.0683 15.4708 12.2694 15.6416C12.4705 15.8124 12.6052 16.0485 12.6498 16.3085C12.6945 16.5685 12.6464 16.836 12.5138 17.0641C12.3813 17.2922 12.1728 17.4665 11.9248 17.5565V17.999H11.1748V17.5565C10.956 17.4792 10.7664 17.336 10.6322 17.1467C10.4979 16.9573 10.4255 16.7311 10.4248 16.499H11.1748C11.1748 16.5732 11.1968 16.6457 11.238 16.7074C11.2792 16.769 11.3378 16.8171 11.4063 16.8455C11.4748 16.8739 11.5502 16.8813 11.623 16.8668C11.6957 16.8523 11.7625 16.8166 11.815 16.7642C11.8674 16.7117 11.9031 16.6449 11.9176 16.5722C11.9321 16.4994 11.9246 16.424 11.8963 16.3555C11.8679 16.287 11.8198 16.2284 11.7581 16.1872C11.6965 16.146 11.624 16.124 11.5498 16.124C11.286 16.122 11.0313 16.0273 10.8302 15.8565C10.6291 15.6856 10.4945 15.4496 10.4498 15.1896C10.4051 14.9295 10.4532 14.6621 10.5858 14.4339C10.7183 14.2058 10.9268 14.0315 11.1748 13.9415V13.499H11.9248V13.9415C12.1436 14.0189 12.3332 14.162 12.4675 14.3514C12.6017 14.5407 12.6742 14.7669 12.6748 14.999H11.9248C11.9248 14.9249 11.9028 14.8524 11.8616 14.7907C11.8204 14.729 11.7618 14.681 11.6933 14.6526C11.6248 14.6242 11.5494 14.6168 11.4766 14.6312C11.4039 14.6457 11.3371 14.6814 11.2846 14.7339C11.2322 14.7863 11.1965 14.8531 11.182 14.9259C11.1675 14.9986 11.175 15.074 11.2034 15.1425C11.2317 15.2111 11.2798 15.2696 11.3415 15.3108C11.4031 15.352 11.4756 15.374 11.5498 15.374Z" fill="#469D38"/>
</svg>
