<svg width="24" height="25" viewBox="0 0 24 25" fill="none" xmlns="http://www.w3.org/2000/svg">
<path d="M7.66173 7.44878H7.36173V7.74879V8.29218V8.59218H7.66173H15.7387H16.0387V8.29218V7.74879V7.44878H15.7387H11.7001H7.66173ZM16.0387 10.7488V10.4488H15.7387H7.66173H7.36173V10.7488V11.3428V11.6428H7.66173H15.7387H16.0387V11.3428V10.7488ZM4.92338 21.2637L4.70713 21.4716L4.92338 21.2637C4.65368 20.9832 4.5002 20.6003 4.5002 20.1988V5.79878C4.5002 5.39724 4.65368 5.0144 4.92338 4.73392C5.19269 4.45384 5.55538 4.29878 5.93096 4.29878H15.2729L18.9002 8.07122V20.1988C18.9002 20.6003 18.7467 20.9832 18.477 21.2637C18.2077 21.5437 17.845 21.6988 17.4694 21.6988H5.93096C5.55538 21.6988 5.19269 21.5437 4.92338 21.2637Z" stroke="#146975" stroke-width="0.6"/>
<path fill-rule="evenodd" clip-rule="evenodd" d="M10.2293 12.7329C9.68967 12.7329 9.26925 13.1844 9.26925 13.7169V14.0284L8.11691 14.0284H8.1169C7.63613 14.0284 7.26465 14.4292 7.26465 14.9008V15.9348V16.0507L7.26494 16.051V16.5207V19.3359C7.26494 19.8074 7.63653 20.208 8.11719 20.208H14.5125C14.9931 20.208 15.3648 19.8073 15.3648 19.3359V16.5207V15.8196L15.3639 15.8204L15.3639 14.9008V14.9008C15.3639 14.4292 14.9925 14.0284 14.5117 14.0284H13.3594L13.3594 13.7169V13.7169C13.3594 13.1841 12.9388 12.7329 12.4 12.7329H10.2293ZM11.8857 17.2098H11.8856V16.9098V16.5152H10.7437V16.9098V17.0265H10.7438V17.3265V17.7215H11.8857V17.3265V17.2098ZM12.6575 14.6285H12.9575V14.6284H13.0594H14.5117C14.6409 14.6284 14.7639 14.7401 14.7639 14.9008V14.9008L14.7639 15.8176C14.5935 15.9975 14.3895 16.1872 14.1779 16.3373C13.9247 16.5168 13.7018 16.6098 13.5331 16.6098H12.4856V16.4763C12.4856 16.1773 12.2479 15.9152 11.9336 15.9152H10.6957C10.3814 15.9152 10.1437 16.1773 10.1437 16.4763V16.6098H9.09566C8.92742 16.6098 8.70469 16.5168 8.45135 16.3371C8.23968 16.187 8.03541 15.9971 7.86465 15.8171V14.9008C7.86465 14.7401 7.98763 14.6284 8.11689 14.6284H8.1169L9.56923 14.6284L9.67179 14.6284V14.6285H9.97176H12.6575ZM10.2717 14.0285L10.2717 13.7497H12.3575V14.0285H10.2717ZM13.5332 17.6265C13.8847 17.6265 14.2182 17.4969 14.5056 17.3296C14.5947 17.2776 14.6813 17.221 14.7648 17.1614V19.3359C14.7648 19.4962 14.6419 19.608 14.5125 19.608H8.11719C7.98778 19.608 7.86494 19.4962 7.86494 19.3359V17.1618C7.94818 17.2212 8.03458 17.2777 8.12354 17.3295C8.41085 17.4969 8.74436 17.6265 9.09566 17.6265H10.1438V17.76C10.1438 18.0587 10.381 18.3215 10.6957 18.3215H11.9337C12.2484 18.3215 12.4857 18.0587 12.4857 17.76V17.6265H13.5332Z" fill="#146975"/>
</svg>
