<svg width="24" height="24" viewBox="0 0 24 24" fill="none" xmlns="http://www.w3.org/2000/svg">
<path d="M7.66173 6.44903H7.36173V6.74903V7.29242V7.59242H7.66173H15.7387H16.0387V7.29242V6.74903V6.44903H15.7387H11.7001H7.66173ZM16.0387 9.74903V9.44903H15.7387H7.66173H7.36173V9.74903V10.343V10.643H7.66173H15.7387H16.0387V10.343V9.74903ZM4.92338 20.2639L4.70713 20.4718L4.92338 20.2639C4.65368 19.9834 4.5002 19.6006 4.5002 19.199V4.79903C4.5002 4.39749 4.65368 4.01465 4.92338 3.73416C5.19269 3.45408 5.55538 3.29902 5.93096 3.29902H15.2729L18.9002 7.07146V19.199C18.9002 19.6006 18.7467 19.9834 18.477 20.2639C18.2077 20.544 17.845 20.699 17.4694 20.699H5.93096C5.55538 20.699 5.19269 20.544 4.92338 20.2639Z" stroke="#0085D0" stroke-width="0.6"/>
<path d="M9.14665 13.2996H14.4175L14.0572 12.9163H9.45715L9.14665 13.2996ZM15.0577 13.3878C15.1688 13.5181 15.234 13.683 15.234 13.8746V18.6663C15.234 18.8696 15.1532 19.0646 15.0094 19.2084C14.8657 19.3522 14.6707 19.433 14.4673 19.433H9.10065C8.89732 19.433 8.70231 19.3522 8.55854 19.2084C8.41476 19.0646 8.33398 18.8696 8.33398 18.6663V13.8746C8.33398 13.683 8.39915 13.5181 8.51032 13.3878L9.03932 12.7438C9.14665 12.6135 9.30382 12.533 9.48398 12.533H14.084C14.2642 12.533 14.4213 12.6135 14.5248 12.7438L15.0577 13.3878ZM9.48398 18.283H11.784V17.133H9.48398V18.283Z" fill="#0085D0"/>
</svg>
