<svg width="24" height="25" viewBox="0 0 24 25" fill="none" xmlns="http://www.w3.org/2000/svg">
<path d="M7.66173 7.44878H7.36173V7.74879V8.29218V8.59218H7.66173H15.7387H16.0387V8.29218V7.74879V7.44878H15.7387H11.7001H7.66173ZM16.0387 10.7488V10.4488H15.7387H7.66173H7.36173V10.7488V11.3428V11.6428H7.66173H15.7387H16.0387V11.3428V10.7488ZM4.92338 21.2637L4.70713 21.4716L4.92338 21.2637C4.65368 20.9832 4.5002 20.6003 4.5002 20.1988V5.79878C4.5002 5.39724 4.65368 5.0144 4.92338 4.73392C5.19269 4.45384 5.55538 4.29878 5.93096 4.29878H15.2729L18.9002 8.07122V20.1988C18.9002 20.6003 18.7467 20.9832 18.477 21.2637C18.2077 21.5437 17.845 21.6988 17.4694 21.6988H5.93096C5.55538 21.6988 5.19269 21.5437 4.92338 21.2637Z" stroke="#EC7100" stroke-width="0.6"/>
<path fill-rule="evenodd" clip-rule="evenodd" d="M13.9821 17.4262C13.8262 17.366 13.6606 17.335 13.4935 17.335C13.1556 17.3347 12.8298 17.4607 12.5799 17.688C12.33 17.9154 12.1739 18.2279 12.1422 18.5642C12.1106 18.9006 12.2056 19.2367 12.4088 19.5067H8.33594V14.6206H10.2904V16.4772L11.159 16.0733L12.0277 16.4772V14.6096L12.0287 14.6205H13.9821V17.4262ZM8.87873 18.9637H9.96453C10.0245 18.9637 10.0731 18.9151 10.0731 18.8551C10.0731 18.7952 10.0245 18.7465 9.96453 18.7465H8.87873C8.81877 18.7465 8.77015 18.7952 8.77015 18.8551C8.77015 18.9151 8.81877 18.9637 8.87873 18.9637ZM8.87873 18.5294H9.96453C10.0245 18.5294 10.0731 18.4808 10.0731 18.4208C10.0731 18.3608 10.0245 18.3122 9.96453 18.3122H8.87873C8.81877 18.3122 8.77015 18.3608 8.77015 18.4208C8.77015 18.4808 8.81877 18.5294 8.87873 18.5294ZM10.5074 16.1374L11.1589 15.8334L11.8104 16.1374V14.6205H10.5074V16.1374ZM8.48789 14.4033H10.3109L10.3978 13.5347H9.09594L8.48789 14.4033ZM11.9202 13.5347L12.007 14.4033H13.8301L13.222 13.5347H11.9202ZM10.5292 14.4033H11.7887L11.7019 13.5347H10.6161L10.5292 14.4033ZM12.8257 17.6806C13.0307 17.5436 13.2716 17.4705 13.5182 17.4705C13.6818 17.4705 13.8439 17.5028 13.9951 17.5654C14.1463 17.628 14.2837 17.7198 14.3995 17.8356C14.5152 17.9513 14.607 18.0887 14.6696 18.2399C14.7323 18.3911 14.7645 18.5532 14.7645 18.7169C14.7645 18.9634 14.6914 19.2044 14.5545 19.4093C14.4175 19.6143 14.2229 19.774 13.9951 19.8684C13.7674 19.9627 13.5168 19.9874 13.275 19.9393C13.0332 19.8912 12.8112 19.7725 12.6368 19.5982C12.4625 19.4239 12.3438 19.2018 12.2957 18.96C12.2477 18.7183 12.2723 18.4677 12.3667 18.2399C12.461 18.0122 12.6208 17.8175 12.8257 17.6806ZM13.7573 18.6812C13.6905 18.6244 13.6058 18.5929 13.5182 18.5923C13.4935 18.5923 13.4694 18.5849 13.4489 18.5713C13.4284 18.5576 13.4124 18.5381 13.403 18.5153C13.3936 18.4925 13.3911 18.4675 13.3959 18.4433C13.4007 18.4191 13.4126 18.3969 13.43 18.3795C13.4475 18.3621 13.4697 18.3502 13.4938 18.3454C13.518 18.3406 13.5431 18.343 13.5658 18.3525C13.5886 18.3619 13.6081 18.3779 13.6218 18.3984C13.6355 18.4189 13.6428 18.443 13.6428 18.4676H13.8921C13.8918 18.3905 13.8678 18.3153 13.8231 18.2524C13.7785 18.1894 13.7155 18.1419 13.6428 18.1161V17.9691H13.3935V18.1161C13.3111 18.1461 13.2418 18.204 13.1977 18.2798C13.1537 18.3556 13.1377 18.4445 13.1525 18.5309C13.1674 18.6174 13.2121 18.6958 13.279 18.7526C13.3458 18.8094 13.4305 18.8408 13.5182 18.8415C13.5428 18.8415 13.5669 18.8488 13.5874 18.8625C13.6079 18.8762 13.6239 18.8957 13.6333 18.9185C13.6427 18.9412 13.6452 18.9663 13.6404 18.9905C13.6356 19.0147 13.6237 19.0369 13.6063 19.0543C13.5889 19.0717 13.5666 19.0836 13.5425 19.0884C13.5183 19.0932 13.4932 19.0907 13.4705 19.0813C13.4477 19.0719 13.4282 19.0559 13.4145 19.0354C13.4008 19.0149 13.3935 18.9908 13.3935 18.9662H13.1442C13.1445 19.0433 13.1685 19.1185 13.2132 19.1814C13.2578 19.2443 13.3208 19.2919 13.3935 19.3176V19.4647H13.6428V19.3176C13.7252 19.2877 13.7945 19.2298 13.8386 19.154C13.8826 19.0781 13.8986 18.9893 13.8838 18.9028C13.8689 18.8164 13.8242 18.738 13.7573 18.6812Z" fill="#EC7100"/>
</svg>
