<svg width="12" height="14" viewBox="0 0 12 14" fill="none" xmlns="http://www.w3.org/2000/svg">
<path fill-rule="evenodd" clip-rule="evenodd" d="M0.398438 1.40156C0.398438 1.18939 0.482723 0.985906 0.632752 0.835877C0.782781 0.685848 0.986264 0.601563 1.19844 0.601562H10.7984C11.0106 0.601563 11.2141 0.685848 11.3641 0.835877C11.5142 0.985906 11.5984 1.18939 11.5984 1.40156V3.80156C11.5984 4.01372 11.5141 4.21717 11.364 4.36716L7.59844 8.13276V11.0016C7.59839 11.2137 7.51408 11.4172 7.36404 11.5672L5.76404 13.1672C5.65216 13.279 5.50962 13.3552 5.35446 13.386C5.1993 13.4169 5.03847 13.401 4.89231 13.3405C4.74615 13.28 4.62122 13.1775 4.53332 13.0459C4.44541 12.9144 4.39847 12.7598 4.39844 12.6016V8.13276L0.632838 4.36716C0.482798 4.21717 0.398483 4.01372 0.398438 3.80156V1.40156Z" fill="#124EB0"/>
</svg>
