<svg width="20" height="26" viewBox="0 0 20 26" fill="none" xmlns="http://www.w3.org/2000/svg">
<path fill-rule="evenodd" clip-rule="evenodd" d="M6.3848 0.146528H17.8346C18.314 0.146528 18.774 0.358648 19.113 0.735935C19.4522 1.11319 19.6426 1.62503 19.6426 2.15885V23.8449C19.6426 24.3787 19.4522 24.8905 19.113 25.2678C18.774 25.6451 18.3142 25.8571 17.8348 25.8571H2.16618C1.68678 25.8571 1.22693 25.6451 0.887957 25.2678C0.548774 24.8906 0.3583 24.3787 0.3583 23.8449V6.79803C0.35487 6.74526 0.357897 6.69226 0.36738 6.64038C0.370608 6.62084 0.375653 6.60198 0.382513 6.58356L0.400672 6.51641L0.430736 6.44926C0.438606 6.43175 0.447685 6.4149 0.457774 6.39896C0.47936 6.36123 0.504583 6.32642 0.533033 6.29498L5.95683 0.314059C5.98508 0.282395 6.01636 0.254324 6.05026 0.230294C6.06398 0.21884 6.07911 0.209858 6.09525 0.20357L6.15558 0.166739L6.21591 0.146528H6.26716C6.30631 0.141587 6.34565 0.141587 6.3848 0.146528ZM5.7822 2.43698L2.41649 6.12722H5.7822V2.43698ZM14.9031 13.1806L12.8925 12.4768L12.2305 10.3395L13.7327 8.73651C13.2101 8.6711 12.6805 8.75044 12.1953 8.96681C11.7101 9.18318 11.2857 9.52924 10.9634 9.97139C10.6411 10.4135 10.4319 10.9367 10.3559 11.4902C10.28 12.0437 10.34 12.6087 10.53 13.1303L9.25844 14.401L10.5042 15.6019L10.7182 15.376C10.8053 15.2873 10.9214 15.2377 11.042 15.2377C11.1627 15.2377 11.2787 15.2873 11.3659 15.376L11.6316 15.6584L12.2692 14.9806C12.7598 15.1833 13.2914 15.2477 13.8123 15.1677C14.3332 15.0876 14.8258 14.8658 15.2423 14.5236C15.6588 14.1815 15.985 13.7308 16.1893 13.2151C16.3936 12.6995 16.469 12.1365 16.4082 11.5807L14.9031 13.1806ZM9.30069 16.8904L9.51468 16.6645L8.36575 15.4432L4.76099 19.2644C4.52979 19.5102 4.3999 19.8435 4.3999 20.1911C4.3999 20.5387 4.52979 20.872 4.76099 21.1178C4.99219 21.3636 5.30577 21.5016 5.63274 21.5016C5.95971 21.5016 6.27329 21.3636 6.50449 21.1178L9.56781 17.8614L9.30069 17.579C9.21518 17.4875 9.16719 17.3637 9.16719 17.2347C9.16719 17.1057 9.21518 16.982 9.30069 16.8904ZM6.20002 20.4354C6.12165 20.5185 6.02185 20.5752 5.91323 20.598C5.8046 20.6209 5.69203 20.6091 5.58974 20.564C5.48745 20.5189 5.40003 20.4426 5.33853 20.3447C5.27702 20.2468 5.2442 20.1317 5.2442 20.014C5.2442 19.8963 5.27702 19.7812 5.33853 19.6833C5.40003 19.5854 5.48745 19.5091 5.58974 19.464C5.69203 19.4189 5.8046 19.4071 5.91323 19.43C6.02185 19.4529 6.12165 19.5095 6.20002 19.5927C6.30491 19.7045 6.36381 19.8561 6.36381 20.014C6.36381 20.172 6.30491 20.3235 6.20002 20.4354ZM11.0392 15.3974C10.9981 15.3974 10.9574 15.406 10.9195 15.4228C10.8815 15.4396 10.8471 15.4642 10.8181 15.4951L9.39628 17.0065C9.33761 17.0692 9.30467 17.154 9.30467 17.2424C9.30467 17.3308 9.33761 17.4156 9.39628 17.4783L9.66197 17.7623L12.9522 21.2583C13.0456 21.3576 13.1564 21.4363 13.2784 21.49C13.4003 21.5437 13.5311 21.5714 13.6631 21.5714C13.7951 21.5714 13.9259 21.5437 14.0479 21.49C14.1698 21.4363 14.2807 21.3576 14.374 21.2583L14.8178 20.7866C14.9111 20.6873 14.9852 20.5695 15.0357 20.4399C15.0863 20.3102 15.1123 20.1712 15.1123 20.0309C15.1123 19.8905 15.0863 19.7516 15.0357 19.6219C14.9852 19.4922 14.9111 19.3744 14.8178 19.2752L11.529 15.7791L11.2619 15.4951C11.2327 15.464 11.1979 15.4394 11.1597 15.4226C11.1215 15.4059 11.0806 15.3973 11.0392 15.3974ZM10.4059 15.715L9.25788 14.6484L6.52827 11.593C6.51963 11.5847 6.51319 11.5742 6.5096 11.5624L6.20226 10.5304L4.3927 9.30908L3.57122 10.1579L4.72015 12.083L5.69243 12.4097C5.7031 12.4136 5.71289 12.4199 5.72115 12.4281L8.44985 15.3287L9.59878 16.5501L10.4059 15.715Z" fill="#D0DAEC"/>
</svg>
