<svg width="24" height="24" viewBox="0 0 24 24" fill="none" xmlns="http://www.w3.org/2000/svg">
<path fill-rule="evenodd" clip-rule="evenodd" d="M15.5999 8.68235L18.102 9.55819L19.975 7.56713C20.0506 8.25876 19.9567 8.95942 19.7025 9.60111C19.4483 10.2428 19.0423 10.8037 18.524 11.2295C18.0057 11.6552 17.3927 11.9313 16.7445 12.0309C16.0962 12.1306 15.4347 12.0504 14.8242 11.7981L14.0307 12.6417L13.7 12.2902C13.5916 12.1798 13.4472 12.1181 13.297 12.1181C13.1468 12.1181 13.0025 12.1798 12.894 12.2902L12.6277 12.5714L11.0775 11.0769L12.6599 9.49549C12.4234 8.84641 12.3487 8.14335 12.4432 7.45457C12.5377 6.76578 12.7981 6.11467 13.1992 5.56444C13.6003 5.01421 14.1284 4.58356 14.7322 4.3143C15.336 4.04503 15.9951 3.9463 16.6454 4.0277L14.776 6.02255L15.5999 8.68235ZM11.3963 13.8937L11.13 14.1748C11.0236 14.2887 10.9639 14.4427 10.9639 14.6033C10.9639 14.7638 11.0236 14.9178 11.13 15.0317L11.4624 15.3832L7.6503 19.4356C7.36258 19.7414 6.97235 19.9132 6.56545 19.9132C6.15856 19.9132 5.76833 19.7414 5.48061 19.4356C5.19289 19.1297 5.03125 18.7149 5.03125 18.2823C5.03125 17.8498 5.19289 17.435 5.48061 17.1291L9.96654 12.3738L11.3963 13.8937ZM6.91451 18.7888C7.04968 18.7603 7.17388 18.6898 7.27141 18.5863C7.40193 18.4471 7.47523 18.2585 7.47523 18.062C7.47523 17.8654 7.40193 17.6768 7.27141 17.5376C7.17388 17.4341 7.04968 17.3636 6.91451 17.3352C6.77933 17.3067 6.63924 17.3214 6.51194 17.3775C6.38465 17.4336 6.27586 17.5286 6.19932 17.6504C6.12278 17.7723 6.08193 17.9155 6.08193 18.062C6.08193 18.2084 6.12278 18.3517 6.19932 18.4735C6.27586 18.5953 6.38465 18.6903 6.51194 18.7464C6.63924 18.8025 6.77933 18.8172 6.91451 18.7888ZM13.1445 12.3484C13.1918 12.3276 13.2424 12.3168 13.2936 12.3169C13.345 12.3167 13.396 12.3274 13.4435 12.3482C13.4911 12.3691 13.5342 12.3998 13.5706 12.4385L13.903 12.7918L17.9957 17.1425C18.1119 17.266 18.2041 17.4126 18.267 17.574C18.3299 17.7353 18.3622 17.9083 18.3622 18.0829C18.3622 18.2576 18.3299 18.4305 18.267 18.5919C18.2041 18.7533 18.1119 18.8999 17.9957 19.0234L17.4435 19.6104C17.3273 19.7339 17.1894 19.8319 17.0376 19.8988C16.8858 19.9656 16.7231 20 16.5588 20C16.3945 20 16.2318 19.9656 16.08 19.8988C15.9282 19.8319 15.7903 19.7339 15.6741 19.6104L11.5796 15.2598L11.249 14.9064C11.176 14.8284 11.135 14.7229 11.135 14.6129C11.135 14.5028 11.176 14.3973 11.249 14.3193L13.0183 12.4385C13.0544 12.3999 13.0973 12.3693 13.1445 12.3484ZM11.0767 11.3847L12.5054 12.712L11.501 13.7513L10.0712 12.2314L6.67547 8.62165C6.6652 8.61146 6.65302 8.6037 6.63973 8.59885L5.42978 8.19228L4 5.79656L5.02229 4.74023L7.27419 6.26012L7.65666 7.54443C7.66113 7.55904 7.66914 7.57215 7.67989 7.58242L11.0767 11.3847Z" fill="#B338DE"/>
</svg>
