<svg width="24" height="24" viewBox="0 0 24 24" fill="none" xmlns="http://www.w3.org/2000/svg">
<path d="M5.30288 9.40822C4.70288 8.80822 4.41488 8.01622 4.43888 7.22422C4.43888 6.88822 4.87088 6.72022 5.11088 6.96022L5.90288 7.75222C6.26288 8.11222 6.83888 8.11222 7.19888 7.75222L7.75088 7.20022C8.11088 6.84022 8.11088 6.26422 7.75088 5.90422L6.86288 5.01622C6.62288 4.77622 6.76688 4.39222 7.10288 4.34422C7.96688 4.24822 8.87888 4.53622 9.52688 5.18422C10.1989 5.85622 10.4629 6.74422 10.3669 7.60822C10.3189 8.13622 10.4869 8.64022 10.8469 9.00022L11.5189 9.67222L9.69488 11.4962C9.67088 11.4722 9.62288 11.4482 9.59888 11.4242L8.92688 10.7522C8.59088 10.4162 8.11088 10.2482 7.60688 10.2722C6.76688 10.3202 5.92688 10.0322 5.30288 9.40822ZM16.3909 13.7282C15.9109 13.7522 15.4309 13.5842 15.0709 13.2482L14.3029 12.4802L12.4789 14.3042C12.5029 14.3282 12.5509 14.3762 12.5749 14.4002L13.1509 14.9762C13.5109 15.3362 13.6789 15.8642 13.6309 16.3682C13.5349 17.2322 13.8229 18.1442 14.4709 18.7922C15.1429 19.4642 16.0309 19.7282 16.8949 19.6322C17.2309 19.5842 17.3509 19.2002 17.1349 18.9602L16.2469 18.0722C15.8869 17.7122 15.8869 17.1362 16.2469 16.7762L16.7989 16.2242C17.1589 15.8642 17.7349 15.8642 18.0949 16.2242L18.8869 17.0162C19.1269 17.2562 19.5589 17.0882 19.5589 16.7522C19.5829 15.9602 19.2949 15.1682 18.6949 14.5682C18.0709 13.9682 17.2309 13.6802 16.3909 13.7282ZM11.5429 15.2162L10.6069 14.2802L15.6709 9.24022H17.5189L19.3669 5.52022L18.4309 4.58422L14.7349 6.48022V8.32822L9.67088 13.3682L8.75888 12.4562L5.11088 16.1282C4.34288 16.8962 4.34288 18.1202 5.11088 18.8882C5.87888 19.6562 7.10288 19.6562 7.87088 18.8882L11.5429 15.2162Z" fill="#124EB0"/>
</svg>
