<svg width="24" height="25" viewBox="0 0 24 25" fill="none" xmlns="http://www.w3.org/2000/svg">
<path d="M7.66173 7.44878H7.36173V7.74879V8.29218V8.59218H7.66173H15.7387H16.0387V8.29218V7.74879V7.44878H15.7387H11.7001H7.66173ZM13.0387 10.7488V10.4488H12.7387H7.66173H7.36173V10.7488V11.3428V11.6428H7.66173H12.7387H13.0387V11.3428V10.7488ZM4.5002 5.79878C4.5002 5.39724 4.65368 5.0144 4.92338 4.73392C5.19269 4.45384 5.55538 4.29878 5.93096 4.29878H15.2729L18.9002 8.07122V20.1988C18.9002 20.6003 18.7467 20.9832 18.477 21.2637C18.2077 21.5437 17.845 21.6988 17.4694 21.6988H5.93096C5.55538 21.6988 5.19269 21.5437 4.92338 21.2637C4.65368 20.9832 4.5002 20.6003 4.5002 20.1988V5.79878Z" stroke="#B338DE" stroke-width="0.6"/>
<path fill-rule="evenodd" clip-rule="evenodd" d="M13.2372 15.1936L14.4101 15.6042L15.288 14.6709C15.3235 14.9951 15.2795 15.3235 15.1603 15.6243C15.0411 15.9251 14.8509 16.188 14.6079 16.3876C14.365 16.5872 14.0776 16.7166 13.7737 16.7633C13.4699 16.81 13.1598 16.7724 12.8736 16.6542L12.5016 17.0496L12.3467 16.8848C12.2958 16.833 12.2281 16.8041 12.1577 16.8041C12.0873 16.8041 12.0197 16.833 11.9688 16.8848L11.844 17.0166L11.1173 16.3161L11.8591 15.5748C11.7482 15.2705 11.7132 14.941 11.7575 14.6181C11.8018 14.2952 11.9239 13.99 12.1119 13.7321C12.2999 13.4742 12.5474 13.2723 12.8305 13.1461C13.1135 13.0199 13.4225 12.9736 13.7273 13.0118L12.851 13.9468L13.2372 15.1936ZM11.2668 17.6364L11.142 17.7682C11.0921 17.8216 11.0641 17.8938 11.0641 17.9691C11.0641 18.0443 11.0921 18.1165 11.142 18.1699L11.2978 18.3346L9.51084 20.2342C9.37597 20.3776 9.19305 20.4581 9.00232 20.4581C8.81159 20.4581 8.62867 20.3776 8.4938 20.2342C8.35893 20.0908 8.28316 19.8964 8.28316 19.6936C8.28316 19.4909 8.35893 19.2964 8.4938 19.1531L10.5966 16.924L11.2668 17.6364ZM9.16594 19.931C9.2293 19.9177 9.28752 19.8846 9.33324 19.8361C9.39442 19.7709 9.42878 19.6825 9.42878 19.5903C9.42878 19.4982 9.39442 19.4098 9.33324 19.3445C9.28752 19.296 9.2293 19.263 9.16594 19.2496C9.10257 19.2363 9.03691 19.2432 8.97724 19.2695C8.91757 19.2958 8.86657 19.3403 8.8307 19.3974C8.79482 19.4545 8.77567 19.5217 8.77567 19.5903C8.77567 19.659 8.79482 19.7261 8.8307 19.7832C8.86657 19.8403 8.91757 19.8849 8.97724 19.9112C9.03691 19.9375 9.10257 19.9444 9.16594 19.931ZM12.0863 16.9121C12.1084 16.9023 12.1322 16.8972 12.1562 16.8973C12.1803 16.8972 12.2042 16.9022 12.2265 16.912C12.2487 16.9217 12.269 16.9361 12.286 16.9543L12.4418 17.1199L14.3603 19.1593C14.4148 19.2172 14.458 19.2859 14.4875 19.3615C14.5169 19.4372 14.5321 19.5182 14.5321 19.6001C14.5321 19.682 14.5169 19.763 14.4875 19.8387C14.458 19.9143 14.4148 19.983 14.3603 20.0409L14.1014 20.3161C14.047 20.374 13.9823 20.4199 13.9112 20.4513C13.84 20.4826 13.7638 20.4987 13.6868 20.4987C13.6097 20.4987 13.5335 20.4826 13.4623 20.4513C13.3912 20.4199 13.3265 20.374 13.2721 20.3161L11.3527 18.2767L11.1978 18.1111C11.1635 18.0745 11.1443 18.0251 11.1443 17.9735C11.1443 17.9219 11.1635 17.8725 11.1978 17.8359L12.0271 16.9543C12.0441 16.9362 12.0642 16.9218 12.0863 16.9121ZM11.117 16.4603L11.7867 17.0825L11.3159 17.5696L10.6457 16.8572L9.05393 15.1651C9.04912 15.1603 9.04341 15.1567 9.03718 15.1544L8.47001 14.9639L7.7998 13.8409L8.279 13.3457L9.33458 14.0582L9.51386 14.6602C9.51596 14.667 9.51971 14.6732 9.52475 14.678L11.117 16.4603Z" fill="#B338DE"/>
</svg>
