<svg width="24" height="24" viewBox="0 0 24 24" fill="none" xmlns="http://www.w3.org/2000/svg">
<path fill-rule="evenodd" clip-rule="evenodd" d="M18 6.27614L18 15.5152C18 15.5411 17.9972 15.5665 17.9918 15.5914C17.8588 17.6803 16.1225 19.3333 14 19.3333L12 19.3333C11.6318 19.3333 11.3333 19.0349 11.3333 18.6667C11.3333 18.2985 11.6318 18 12 18L14 18C15.4728 18 16.6667 16.8061 16.6667 15.3333L16.6667 6.27614L15.8047 7.13807C15.5444 7.39842 15.1223 7.39842 14.8619 7.13807C14.6016 6.87772 14.6016 6.45561 14.8619 6.19526L16.8619 4.19526C17.1223 3.93491 17.5444 3.93491 17.8047 4.19526L19.8047 6.19526C20.0651 6.45561 20.0651 6.87772 19.8047 7.13807C19.5444 7.39842 19.1223 7.39842 18.8619 7.13807L18 6.27614ZM7.33333 8.66667L7.33333 17.7239L8.19526 16.8619C8.45561 16.6016 8.87772 16.6016 9.13807 16.8619C9.39842 17.1223 9.39842 17.5444 9.13807 17.8047L7.13807 19.8047C6.87772 20.0651 6.45561 20.0651 6.19526 19.8047L4.19526 17.8047C3.93491 17.5444 3.93491 17.1223 4.19526 16.8619C4.45561 16.6016 4.87772 16.6016 5.13807 16.8619L6 17.7239L6 8.66667C6 6.45753 7.79086 4.66667 10 4.66667L12 4.66667C12.3682 4.66667 12.6667 4.96514 12.6667 5.33333C12.6667 5.70152 12.3682 6 12 6L10 6C8.52724 6 7.33333 7.19391 7.33333 8.66667Z" fill="#124EB0"/>
</svg>
