<svg width="20" height="26" viewBox="0 0 20 26" fill="none" xmlns="http://www.w3.org/2000/svg">
<path fill-rule="evenodd" clip-rule="evenodd" d="M6.3848 0.146528H17.8346C18.314 0.146528 18.774 0.358648 19.113 0.735935C19.4522 1.11319 19.6426 1.62503 19.6426 2.15885V23.8449C19.6426 24.3787 19.4522 24.8905 19.113 25.2678C18.774 25.6451 18.3142 25.8571 17.8348 25.8571H2.16618C1.68678 25.8571 1.22693 25.6451 0.887957 25.2678C0.548774 24.8906 0.3583 24.3787 0.3583 23.8449V6.79803C0.35487 6.74526 0.357897 6.69226 0.36738 6.64038C0.370608 6.62084 0.375653 6.60198 0.382513 6.58356L0.400672 6.51641L0.430736 6.44926C0.438606 6.43175 0.447685 6.4149 0.457774 6.39896C0.47936 6.36123 0.504583 6.32642 0.533033 6.29498L5.95683 0.314059C5.98508 0.282395 6.01636 0.254324 6.05026 0.230294C6.06398 0.21884 6.07911 0.209858 6.09525 0.20357L6.15558 0.166739L6.21591 0.146528H6.26716C6.30631 0.141587 6.34565 0.141587 6.3848 0.146528ZM5.7822 2.43698L2.41649 6.12722H5.7822V2.43698ZM14.9069 10.1428H5.0855L5.66408 9.42854H14.2355L14.9069 10.1428ZM16.4284 11.2143C16.4284 10.8571 16.3069 10.55 16.0998 10.3071L15.1069 9.10711C14.9141 8.86425 14.6212 8.71425 14.2855 8.71425H5.71408C5.37836 8.71425 5.08551 8.86425 4.8855 9.10711L3.89979 10.3071C3.69265 10.55 3.57122 10.8571 3.57122 11.2143V20.1428C3.57122 20.5217 3.72173 20.8851 3.98964 21.153C4.25755 21.4209 4.62091 21.5714 4.99979 21.5714H14.9998C15.3787 21.5714 15.742 21.4209 16.0099 21.153C16.2779 20.8851 16.4284 20.5217 16.4284 20.1428V11.2143ZM9.99979 19.4285H5.71408V17.2857H9.99979V19.4285Z" fill="#0085D0"/>
</svg>
