<svg width="24" height="24" viewBox="0 0 24 24" fill="none" xmlns="http://www.w3.org/2000/svg">
<path d="M5.88444 5.77778H18.1067L17.2711 4.88889H6.60444L5.88444 5.77778ZM19.5911 5.98222C19.8489 6.28444 20 6.66667 20 7.11111V18.2222C20 18.6937 19.8127 19.1459 19.4793 19.4793C19.1459 19.8127 18.6937 20 18.2222 20H5.77778C5.30628 20 4.8541 19.8127 4.5207 19.4793C4.1873 19.1459 4 18.6937 4 18.2222V7.11111C4 6.66667 4.15111 6.28444 4.40889 5.98222L5.63556 4.48889C5.88444 4.18667 6.24889 4 6.66667 4H17.3333C17.7511 4 18.1156 4.18667 18.3556 4.48889L19.5911 5.98222ZM6.66667 17.3333H12V14.6667H6.66667V17.3333Z" fill="#0085D0"/>
</svg>
