<svg width="24" height="24" viewBox="0 0 24 24" fill="none" xmlns="http://www.w3.org/2000/svg">
<g clip-path="url(#clip0_26324_9941)">
<path fill-rule="evenodd" clip-rule="evenodd" d="M20.3333 8.66667H3.66667V19.5C3.66667 19.9602 4.03976 20.3333 4.5 20.3333C4.96024 20.3333 5.33333 20.7064 5.33333 21.1667C5.33333 21.6269 4.96024 22 4.5 22C3.11929 22 2 20.8807 2 19.5V4.5C2 3.11929 3.11929 2 4.5 2H19.5C20.8807 2 22 3.11929 22 4.5V11.1667C22 11.6269 21.6269 12 21.1667 12C20.7064 12 20.3333 11.6269 20.3333 11.1667V8.66667ZM20.3333 7V4.5C20.3333 4.03976 19.9602 3.66667 19.5 3.66667H4.5C4.03976 3.66667 3.66667 4.03976 3.66667 4.5V7H20.3333ZM16.1667 4.5C16.6269 4.5 17 4.8731 17 5.33333C17 5.79357 16.6269 6.16667 16.1667 6.16667C15.7064 6.16667 15.3333 5.79357 15.3333 5.33333C15.3333 4.8731 15.7064 4.5 16.1667 4.5ZM18.6667 4.5C19.1269 4.5 19.5 4.8731 19.5 5.33333C19.5 5.79357 19.1269 6.16667 18.6667 6.16667C18.2064 6.16667 17.8333 5.79357 17.8333 5.33333C17.8333 4.8731 18.2064 4.5 18.6667 4.5ZM13.6667 22C11.0888 22 8.72563 20.9038 6.60998 18.7532C5.65286 17.7803 5.65287 16.2196 6.60998 15.2467C8.72563 13.0962 11.0888 12 13.6667 12C16.2446 12 18.6077 13.0962 20.7234 15.2468C21.6805 16.2197 21.6805 17.7804 20.7234 18.7533C18.6077 20.9038 16.2446 22 13.6667 22ZM13.6667 20.3333C15.7734 20.3333 17.7186 19.431 19.5352 17.5844C19.8543 17.2601 19.8543 16.7399 19.5352 16.4156C17.7186 14.569 15.7734 13.6667 13.6667 13.6667C11.56 13.6667 9.61469 14.569 7.79809 16.4156C7.47905 16.7399 7.47905 17.2601 7.79809 17.5844C9.61468 19.431 11.56 20.3333 13.6667 20.3333ZM13.6667 18.6667C12.7462 18.6667 12 17.9205 12 17C12 16.0795 12.7462 15.3333 13.6667 15.3333C14.5871 15.3333 15.3333 16.0795 15.3333 17C15.3333 17.9205 14.5871 18.6667 13.6667 18.6667Z" fill="#124EB0"/>
</g>
<defs>
<clipPath id="clip0_26324_9941">
<rect width="20" height="20" fill="white" transform="translate(2 2)"/>
</clipPath>
</defs>
</svg>
