<svg width="24" height="24" viewBox="0 0 24 24" fill="none" xmlns="http://www.w3.org/2000/svg">
<g clip-path="url(#clip0_13138_74930)">
<path fill-rule="evenodd" clip-rule="evenodd" d="M21.9773 8H1.99794V21C1.99794 21.5523 2.44519 22 2.99691 22C3.54863 22 3.99588 22.4477 3.99588 23C3.99588 23.5523 3.54863 24 2.99691 24C1.34176 24 0 22.6569 0 21V3C0 1.34315 1.34176 0 2.99691 0H20.9784C22.6335 0 23.9753 1.34315 23.9753 3V11C23.9753 11.5523 23.528 12 22.9763 12C22.4246 12 21.9773 11.5523 21.9773 11V8ZM21.9773 6V3C21.9773 2.44772 21.5301 2 20.9784 2H2.99691C2.44519 2 1.99794 2.44772 1.99794 3V6H21.9773ZM13.9856 24C10.8953 24 8.06244 22.6846 5.52627 20.1039C4.37892 18.9364 4.37893 17.0636 5.52628 15.8961C8.06245 13.3154 10.8953 12 13.9856 12C17.0759 12 19.9087 13.3154 22.4449 15.8961C23.5922 17.0636 23.5922 18.9364 22.4449 20.1039C19.9087 22.6846 17.0759 24 13.9856 24ZM13.9856 22C16.511 22 18.8429 20.9172 21.0206 18.7013C21.4031 18.3121 21.4031 17.6879 21.0206 17.2987C18.843 15.0828 16.511 14 13.9856 14C11.4601 14 9.12821 15.0828 6.95054 17.2987C6.56809 17.6879 6.56809 18.3121 6.95054 18.7013C9.12821 20.9172 11.4601 22 13.9856 22ZM13.9856 20C12.8821 20 11.9876 19.1046 11.9876 18C11.9876 16.8954 12.8821 16 13.9856 16C15.089 16 15.9835 16.8954 15.9835 18C15.9835 19.1046 15.089 20 13.9856 20Z" fill="#134C85"/>
</g>
<defs>
<clipPath id="clip0_13138_74930">
<rect width="23.9753" height="24" fill="white"/>
</clipPath>
</defs>
</svg>
