<svg width="300" height="330" viewBox="0 0 300 330" fill="none" xmlns="http://www.w3.org/2000/svg">
<path d="M260.454 84.132C251.178 77.82 231.234 74.586 220.002 78.312C205.656 83.076 206.16 93.528 195.72 99.996C167.52 117.45 138.894 105.714 109.092 98.196C43.05 81.51 1.69199 145.056 66.552 184.122C105.552 207.6 187.452 224.754 196.674 162.522C200.664 135.618 186.27 133.572 219.714 127.722C232.914 125.4 302.478 112.734 260.454 84.132Z" fill="#8E99B2"/>
<path opacity="0.9" d="M260.454 84.132C251.178 77.82 231.234 74.586 220.002 78.312C205.656 83.076 206.16 93.528 195.72 99.996C167.52 117.45 138.894 105.714 109.092 98.196C43.05 81.51 1.69199 145.056 66.552 184.122C105.552 207.6 187.452 224.754 196.674 162.522C200.664 135.618 186.27 133.572 219.714 127.722C232.914 125.4 302.478 112.734 260.454 84.132Z" fill="white"/>
<path d="M150 256.536C214.249 256.536 266.334 253.495 266.334 249.744C266.334 245.993 214.249 242.952 150 242.952C85.7505 242.952 33.666 245.993 33.666 249.744C33.666 253.495 85.7505 256.536 150 256.536Z" fill="#F5F5F5"/>
<path opacity="0.2" d="M187.692 146.334C177.527 150.283 166.419 151.129 155.772 148.766C145.126 146.402 135.42 140.934 127.881 133.054C120.342 125.174 115.31 115.236 113.419 104.495C111.529 93.7549 112.865 82.6951 117.26 72.7145C121.655 62.7339 128.911 54.2806 138.11 48.4237C147.31 42.5667 158.039 39.5691 168.942 39.8099C179.844 40.0507 190.431 43.519 199.363 49.7764C208.294 56.0338 215.17 64.7991 219.12 74.964C221.744 81.7137 223.012 88.9142 222.853 96.1542C222.693 103.394 221.109 110.532 218.19 117.159C215.272 123.787 211.076 129.775 205.843 134.781C200.61 139.786 194.443 143.712 187.692 146.334Z" fill="#8E99B2"/>
<path opacity="0.1" d="M177.714 40.71L134.466 138.93C133.8 138.426 133.14 137.904 132.492 137.376C128.312 133.918 124.672 129.855 121.692 125.322L159.048 40.482C165.237 39.4852 171.551 39.5623 177.714 40.71Z" fill="white"/>
<path opacity="0.1" d="M208.458 57.75L167.796 150.096C159.35 150.105 151.015 148.171 143.436 144.444L187.836 43.602C195.702 46.6783 202.757 51.5185 208.458 57.75Z" fill="white"/>
<path d="M122.328 57.792C129.675 48.8143 139.52 42.2169 150.617 38.8341C161.714 35.4513 173.564 35.4351 184.671 38.7875C195.777 42.1399 205.639 48.7104 213.011 57.668C220.383 66.6256 224.933 77.5681 226.086 89.1117C227.239 100.655 224.943 112.282 219.488 122.52C214.034 132.759 205.665 141.15 195.442 146.633C185.218 152.116 173.598 154.444 162.051 153.322C150.505 152.201 139.55 147.681 130.572 140.334C118.534 130.481 110.903 116.249 109.357 100.77C107.811 85.291 112.477 69.8316 122.328 57.792ZM209.4 129.048C216.144 120.804 220.293 110.745 221.32 100.143C222.348 89.5417 220.209 78.8734 215.174 69.4874C210.138 60.1014 202.433 52.4192 193.032 47.4123C183.631 42.4053 172.956 40.2985 162.358 41.3582C151.759 42.4179 141.713 46.5965 133.489 53.3656C125.265 60.1348 119.233 69.1904 116.156 79.3876C113.079 89.5847 113.094 100.465 116.201 110.654C119.307 120.842 125.365 129.88 133.608 136.626C139.082 141.106 145.385 144.463 152.156 146.506C158.928 148.55 166.035 149.239 173.074 148.536C180.112 147.832 186.942 145.749 193.175 142.405C199.408 139.061 204.921 134.523 209.4 129.048Z" fill="#8E99B2"/>
<path d="M214.578 128.844C220.356 132.294 225.852 136.086 231.252 139.998C236.652 143.91 241.914 147.984 247.092 152.166C252.27 156.348 257.352 160.65 262.254 165.168C264.71 167.424 267.11 169.74 269.454 172.116C271.806 174.516 274.116 176.916 276.294 179.52C276.797 180.123 277.075 180.882 277.079 181.668C277.082 182.453 276.813 183.215 276.316 183.823C275.818 184.431 275.125 184.847 274.355 184.999C273.584 185.151 272.785 185.029 272.094 184.656C269.094 183.036 266.286 181.248 263.484 179.418C260.682 177.588 257.946 175.68 255.246 173.718C249.846 169.806 244.62 165.684 239.502 161.43C234.384 157.176 229.344 152.826 224.442 148.302C219.54 143.778 214.734 139.146 210.21 134.166C209.645 133.55 209.321 132.751 209.298 131.916C209.274 131.08 209.553 130.264 210.082 129.618C210.611 128.971 211.356 128.537 212.18 128.394C213.003 128.252 213.85 128.412 214.566 128.844H214.578Z" fill="#8E99B2"/>
<path d="M184.704 137.73C185.233 136.285 186.188 135.034 187.442 134.142C188.696 133.25 190.191 132.758 191.73 132.732H239.76C240.59 132.701 241.417 132.852 242.182 133.176C242.947 133.499 243.631 133.986 244.188 134.603C244.744 135.22 245.158 135.951 245.4 136.746C245.643 137.54 245.709 138.378 245.592 139.2L233.184 243.306C232.921 245.078 232.036 246.699 230.687 247.879C229.338 249.058 227.614 249.719 225.822 249.744H73.4221C72.5949 249.775 71.7709 249.625 71.0081 249.304C70.2452 248.983 69.5621 248.498 69.0067 247.885C68.4513 247.271 68.0371 246.543 67.7934 245.752C67.5497 244.961 67.4823 244.126 67.5961 243.306L78.0001 155.838C78.2634 154.066 79.1486 152.445 80.4974 151.265C81.8461 150.086 83.5705 149.425 85.3621 149.4H168.294C171.888 149.339 175.379 148.191 178.308 146.108C181.237 144.025 183.467 141.104 184.704 137.73Z" fill="#8E99B2"/>
<path d="M70.338 244.95H229.584L238.656 137.802H79.416L70.338 244.95Z" fill="#F0F0F0"/>
<path d="M70.338 244.95H229.584L236.148 137.802H79.416L70.338 244.95Z" fill="#E0E0E0"/>
<path d="M70.338 244.95H229.584L235.056 134.4H75.816L70.338 244.95Z" fill="#F0F0F0"/>
<path d="M70.338 244.95H229.584L231.75 134.4H75.816L70.338 244.95Z" fill="#E0E0E0"/>
<path d="M70.338 244.95H229.584L230.532 131.4H71.292L70.338 244.95Z" fill="#F0F0F0"/>
<path d="M70.338 244.95H229.584L226.314 133.548H68.1L70.338 244.95Z" fill="#E0E0E0"/>
<path d="M70.338 244.95H229.584L224.856 134.4H65.616L70.338 244.95Z" fill="#F0F0F0"/>
<path d="M70.338 244.95H229.584L222.054 136.068H62.814L70.338 244.95Z" fill="#E0E0E0"/>
<path d="M70.338 244.95H229.584L220.854 136.998H61.614L70.338 244.95Z" fill="#F0F0F0"/>
<path d="M150.084 144.492C150.093 143.796 150.242 143.109 150.522 142.471C150.802 141.834 151.207 141.259 151.714 140.782C152.22 140.304 152.818 139.933 153.471 139.692C154.124 139.45 154.819 139.342 155.514 139.374H203.544C205.404 139.445 207.187 140.132 208.614 141.327C210.041 142.521 211.031 144.156 211.428 145.974L230.406 243.174C231.114 246.816 228.738 249.774 225.096 249.774H72.696C69.048 249.774 65.496 246.816 64.806 243.174L49.152 163.044C48.444 159.402 50.82 156.444 54.462 156.444H137.4C144.6 156.444 149.838 151.488 150.084 144.492Z" fill="#8E99B2"/>
<path opacity="0.2" d="M150.084 144.492C150.093 143.796 150.242 143.109 150.522 142.471C150.802 141.834 151.207 141.259 151.714 140.782C152.22 140.304 152.818 139.933 153.471 139.692C154.124 139.45 154.819 139.342 155.514 139.374H203.544C205.404 139.445 207.187 140.132 208.614 141.327C210.041 142.521 211.031 144.156 211.428 145.974L230.406 243.174C231.114 246.816 228.738 249.774 225.096 249.774H72.696C69.048 249.774 65.496 246.816 64.806 243.174L49.152 163.044C48.444 159.402 50.82 156.444 54.462 156.444H137.4C144.6 156.444 149.838 151.488 150.084 144.492Z" fill="black"/>
<path d="M50.9508 311.453C50.8845 310.833 50.6052 310.35 50.1127 310.004C49.6251 309.659 48.9906 309.486 48.2093 309.486C47.6601 309.486 47.189 309.569 46.796 309.734C46.403 309.9 46.1023 310.125 45.894 310.409C45.6857 310.693 45.5791 311.018 45.5744 311.382C45.5744 311.685 45.6431 311.948 45.7804 312.17C45.9224 312.393 46.1142 312.582 46.3556 312.739C46.5971 312.89 46.8646 313.018 47.1582 313.122C47.4518 313.226 47.7477 313.314 48.046 313.385L49.4096 313.726C49.9589 313.854 50.4868 314.027 50.9934 314.244C51.5048 314.462 51.9617 314.737 52.3642 315.068C52.7714 315.4 53.0933 315.8 53.3301 316.268C53.5668 316.737 53.6852 317.286 53.6852 317.916C53.6852 318.768 53.4674 319.519 53.0318 320.168C52.5962 320.812 51.9664 321.316 51.1426 321.68C50.3234 322.04 49.3315 322.22 48.1667 322.22C47.0351 322.22 46.0526 322.045 45.2193 321.695C44.3907 321.344 43.742 320.833 43.2733 320.161C42.8092 319.488 42.5583 318.669 42.5204 317.703H45.1127C45.1506 318.21 45.3069 318.631 45.5815 318.967C45.8561 319.304 46.2136 319.554 46.6539 319.72C47.099 319.886 47.5962 319.969 48.1454 319.969C48.7183 319.969 49.2202 319.884 49.6511 319.713C50.0867 319.538 50.4276 319.296 50.6738 318.989C50.92 318.676 51.0455 318.312 51.0502 317.895C51.0455 317.516 50.9342 317.204 50.7164 316.957C50.4986 316.706 50.1932 316.498 49.8002 316.332C49.412 316.162 48.9574 316.01 48.4366 315.878L46.7818 315.452C45.5839 315.144 44.6369 314.678 43.9409 314.053C43.2496 313.423 42.9039 312.587 42.9039 311.545C42.9039 310.688 43.1359 309.938 43.6 309.294C44.0687 308.65 44.7056 308.151 45.5105 307.795C46.3154 307.436 47.2269 307.256 48.2449 307.256C49.277 307.256 50.1814 307.436 50.9579 307.795C51.7392 308.151 52.3523 308.645 52.7974 309.28C53.2425 309.91 53.4721 310.634 53.4863 311.453H50.9508ZM60.7502 322.213C59.6564 322.213 58.7118 321.986 57.9164 321.531C57.1257 321.072 56.5172 320.423 56.0911 319.585C55.665 318.742 55.4519 317.75 55.4519 316.609C55.4519 315.487 55.665 314.502 56.0911 313.655C56.522 312.803 57.1233 312.14 57.8951 311.666C58.6668 311.188 59.5736 310.949 60.6152 310.949C61.2876 310.949 61.9221 311.058 62.5186 311.276C63.12 311.489 63.6503 311.82 64.1096 312.27C64.5736 312.72 64.9382 313.293 65.2033 313.989C65.4685 314.68 65.601 315.504 65.601 316.46V317.249H56.6593V315.516H63.1365C63.1318 315.023 63.0253 314.585 62.8169 314.202C62.6086 313.813 62.3174 313.508 61.9434 313.286C61.574 313.063 61.1432 312.952 60.6507 312.952C60.1252 312.952 59.6635 313.08 59.2658 313.335C58.8681 313.586 58.5579 313.918 58.3354 314.33C58.1176 314.737 58.0063 315.184 58.0016 315.672V317.185C58.0016 317.819 58.1176 318.364 58.3496 318.818C58.5816 319.268 58.906 319.614 59.3226 319.855C59.7393 320.092 60.227 320.21 60.7857 320.21C61.1597 320.21 61.4983 320.158 61.8013 320.054C62.1043 319.945 62.3671 319.786 62.5897 319.578C62.8122 319.37 62.9803 319.112 63.0939 318.804L65.4945 319.074C65.343 319.708 65.0542 320.262 64.628 320.736C64.2066 321.205 63.6668 321.569 63.0087 321.83C62.3506 322.085 61.5977 322.213 60.7502 322.213ZM70.9153 322.22C70.224 322.22 69.6014 322.097 69.0474 321.851C68.4982 321.6 68.0626 321.231 67.7406 320.743C67.4234 320.255 67.2647 319.654 67.2647 318.939C67.2647 318.323 67.3784 317.814 67.6056 317.412C67.8329 317.009 68.1431 316.688 68.536 316.446C68.929 316.205 69.3717 316.022 69.8642 315.899C70.3613 315.771 70.8751 315.679 71.4054 315.622C72.0446 315.556 72.563 315.497 72.9608 315.445C73.3585 315.388 73.6473 315.303 73.8272 315.189C74.0119 315.071 74.1042 314.888 74.1042 314.642V314.599C74.1042 314.064 73.9456 313.65 73.6284 313.357C73.3111 313.063 72.8542 312.916 72.2576 312.916C71.6279 312.916 71.1284 313.054 70.7591 313.328C70.3945 313.603 70.1483 313.927 70.0204 314.301L67.6199 313.96C67.8092 313.297 68.1217 312.743 68.5574 312.298C68.993 311.848 69.5256 311.512 70.1554 311.29C70.7851 311.062 71.4811 310.949 72.2434 310.949C72.769 310.949 73.2922 311.01 73.813 311.134C74.3339 311.257 74.8097 311.46 75.2406 311.744C75.6715 312.024 76.0171 312.405 76.2775 312.888C76.5427 313.371 76.6752 313.974 76.6752 314.699V322H74.2037V320.501H74.1184C73.9622 320.804 73.742 321.089 73.4579 321.354C73.1786 321.614 72.8258 321.825 72.3997 321.986C71.9783 322.142 71.4835 322.22 70.9153 322.22ZM71.5829 320.331C72.099 320.331 72.5465 320.229 72.9252 320.026C73.304 319.817 73.5952 319.543 73.7988 319.202C74.0072 318.861 74.1113 318.489 74.1113 318.087V316.801C74.0308 316.867 73.8935 316.929 73.6994 316.986C73.51 317.043 73.2969 317.092 73.0602 317.135C72.8234 317.178 72.5891 317.215 72.3571 317.249C72.1251 317.282 71.9238 317.31 71.7534 317.334C71.3699 317.386 71.0266 317.471 70.7235 317.589C70.4205 317.708 70.1814 317.874 70.0062 318.087C69.831 318.295 69.7434 318.565 69.7434 318.896C69.7434 319.37 69.9163 319.727 70.2619 319.969C70.6075 320.21 71.0479 320.331 71.5829 320.331ZM79.2605 322V311.091H81.7534V312.909H81.867C82.0659 312.279 82.4068 311.794 82.8897 311.453C83.3774 311.107 83.9338 310.935 84.5588 310.935C84.7008 310.935 84.8594 310.942 85.0346 310.956C85.2145 310.965 85.3637 310.982 85.4821 311.006V313.371C85.3732 313.333 85.2003 313.3 84.9636 313.271C84.7316 313.238 84.5067 313.222 84.2889 313.222C83.8201 313.222 83.3987 313.323 83.0247 313.527C82.6554 313.726 82.3642 314.003 82.1511 314.358C81.938 314.713 81.8315 315.123 81.8315 315.587V322H79.2605ZM91.4995 322.213C90.4105 322.213 89.4753 321.974 88.6941 321.496C87.9176 321.018 87.3186 320.357 86.8972 319.514C86.4805 318.667 86.2722 317.691 86.2722 316.588C86.2722 315.48 86.4853 314.502 86.9114 313.655C87.3375 312.803 87.9389 312.14 88.7154 311.666C89.4966 311.188 90.4199 310.949 91.4853 310.949C92.3707 310.949 93.1543 311.112 93.8361 311.439C94.5227 311.761 95.0695 312.218 95.4767 312.81C95.8839 313.397 96.1159 314.083 96.1728 314.869H93.7154C93.6159 314.344 93.3792 313.906 93.0051 313.555C92.6358 313.2 92.141 313.023 91.5208 313.023C90.9952 313.023 90.5336 313.165 90.1358 313.449C89.7381 313.728 89.428 314.131 89.2054 314.656C88.9876 315.182 88.8787 315.812 88.8787 316.545C88.8787 317.289 88.9876 317.928 89.2054 318.463C89.4232 318.993 89.7286 319.403 90.1216 319.692C90.5194 319.976 90.9857 320.118 91.5208 320.118C91.8996 320.118 92.2381 320.047 92.5364 319.905C92.8394 319.758 93.0927 319.547 93.2963 319.273C93.4999 318.998 93.6396 318.664 93.7154 318.271H96.1728C96.1112 319.043 95.8839 319.727 95.4909 320.324C95.098 320.916 94.5629 321.38 93.8858 321.716C93.2087 322.047 92.4133 322.213 91.4995 322.213ZM100.855 315.608V322H98.2839V307.455H100.798V312.945H100.926C101.182 312.329 101.577 311.844 102.112 311.489C102.652 311.129 103.338 310.949 104.172 310.949C104.929 310.949 105.59 311.107 106.153 311.425C106.717 311.742 107.152 312.206 107.46 312.817C107.773 313.428 107.929 314.173 107.929 315.054V322H105.358V315.452C105.358 314.718 105.168 314.147 104.79 313.74C104.416 313.328 103.89 313.122 103.213 313.122C102.758 313.122 102.351 313.222 101.991 313.42C101.636 313.615 101.357 313.896 101.153 314.266C100.954 314.635 100.855 315.082 100.855 315.608ZM121.036 311.091V313.08H114.587V311.091H121.036ZM116.199 322V310.061C116.199 309.327 116.351 308.716 116.654 308.229C116.962 307.741 117.374 307.376 117.89 307.135C118.406 306.893 118.979 306.773 119.608 306.773C120.054 306.773 120.449 306.808 120.795 306.879C121.14 306.95 121.396 307.014 121.562 307.071L121.05 309.06C120.941 309.027 120.804 308.993 120.638 308.96C120.473 308.922 120.288 308.903 120.084 308.903C119.606 308.903 119.268 309.019 119.069 309.251C118.875 309.479 118.778 309.805 118.778 310.232V322H116.199ZM127.398 322.213C126.333 322.213 125.409 321.979 124.628 321.51C123.847 321.041 123.241 320.385 122.81 319.543C122.384 318.7 122.171 317.715 122.171 316.588C122.171 315.461 122.384 314.474 122.81 313.626C123.241 312.779 123.847 312.121 124.628 311.652C125.409 311.183 126.333 310.949 127.398 310.949C128.463 310.949 129.387 311.183 130.168 311.652C130.949 312.121 131.553 312.779 131.979 313.626C132.41 314.474 132.625 315.461 132.625 316.588C132.625 317.715 132.41 318.7 131.979 319.543C131.553 320.385 130.949 321.041 130.168 321.51C129.387 321.979 128.463 322.213 127.398 322.213ZM127.412 320.153C127.99 320.153 128.473 319.995 128.861 319.678C129.249 319.356 129.538 318.925 129.727 318.385C129.922 317.845 130.019 317.244 130.019 316.581C130.019 315.913 129.922 315.31 129.727 314.77C129.538 314.225 129.249 313.792 128.861 313.47C128.473 313.148 127.99 312.987 127.412 312.987C126.82 312.987 126.328 313.148 125.935 313.47C125.547 313.792 125.255 314.225 125.061 314.77C124.872 315.31 124.777 315.913 124.777 316.581C124.777 317.244 124.872 317.845 125.061 318.385C125.255 318.925 125.547 319.356 125.935 319.678C126.328 319.995 126.82 320.153 127.412 320.153ZM134.807 322V311.091H137.3V312.909H137.414C137.613 312.279 137.954 311.794 138.437 311.453C138.924 311.107 139.481 310.935 140.106 310.935C140.248 310.935 140.406 310.942 140.581 310.956C140.761 310.965 140.911 310.982 141.029 311.006V313.371C140.92 313.333 140.747 313.3 140.51 313.271C140.278 313.238 140.054 313.222 139.836 313.222C139.367 313.222 138.946 313.323 138.572 313.527C138.202 313.726 137.911 314.003 137.698 314.358C137.485 314.713 137.378 315.123 137.378 315.587V322H134.807ZM155.716 311.453C155.65 310.833 155.371 310.35 154.878 310.004C154.391 309.659 153.756 309.486 152.975 309.486C152.426 309.486 151.955 309.569 151.562 309.734C151.169 309.9 150.868 310.125 150.66 310.409C150.451 310.693 150.345 311.018 150.34 311.382C150.34 311.685 150.409 311.948 150.546 312.17C150.688 312.393 150.88 312.582 151.121 312.739C151.363 312.89 151.63 313.018 151.924 313.122C152.217 313.226 152.513 313.314 152.812 313.385L154.175 313.726C154.724 313.854 155.252 314.027 155.759 314.244C156.27 314.462 156.727 314.737 157.13 315.068C157.537 315.4 157.859 315.8 158.096 316.268C158.332 316.737 158.451 317.286 158.451 317.916C158.451 318.768 158.233 319.519 157.797 320.168C157.362 320.812 156.732 321.316 155.908 321.68C155.089 322.04 154.097 322.22 152.932 322.22C151.801 322.22 150.818 322.045 149.985 321.695C149.156 321.344 148.508 320.833 148.039 320.161C147.575 319.488 147.324 318.669 147.286 317.703H149.878C149.916 318.21 150.073 318.631 150.347 318.967C150.622 319.304 150.979 319.554 151.42 319.72C151.865 319.886 152.362 319.969 152.911 319.969C153.484 319.969 153.986 319.884 154.417 319.713C154.852 319.538 155.193 319.296 155.439 318.989C155.686 318.676 155.811 318.312 155.816 317.895C155.811 317.516 155.7 317.204 155.482 316.957C155.264 316.706 154.959 316.498 154.566 316.332C154.178 316.162 153.723 316.01 153.202 315.878L151.547 315.452C150.349 315.144 149.403 314.678 148.706 314.053C148.015 313.423 147.67 312.587 147.67 311.545C147.67 310.688 147.902 309.938 148.366 309.294C148.834 308.65 149.471 308.151 150.276 307.795C151.081 307.436 151.992 307.256 153.01 307.256C154.043 307.256 154.947 307.436 155.724 307.795C156.505 308.151 157.118 308.645 157.563 309.28C158.008 309.91 158.238 310.634 158.252 311.453H155.716ZM166.134 311.091V313.08H159.862V311.091H166.134ZM161.411 308.477H163.982V318.719C163.982 319.064 164.034 319.33 164.138 319.514C164.247 319.694 164.389 319.817 164.564 319.884C164.739 319.95 164.933 319.983 165.146 319.983C165.307 319.983 165.454 319.971 165.587 319.947C165.724 319.924 165.828 319.902 165.899 319.884L166.333 321.893C166.195 321.941 165.999 321.993 165.743 322.05C165.492 322.107 165.184 322.14 164.82 322.149C164.176 322.168 163.596 322.071 163.08 321.858C162.564 321.64 162.154 321.304 161.851 320.849C161.553 320.395 161.406 319.827 161.411 319.145V308.477ZM172.925 322.213C171.86 322.213 170.937 321.979 170.155 321.51C169.374 321.041 168.768 320.385 168.337 319.543C167.911 318.7 167.698 317.715 167.698 316.588C167.698 315.461 167.911 314.474 168.337 313.626C168.768 312.779 169.374 312.121 170.155 311.652C170.937 311.183 171.86 310.949 172.925 310.949C173.991 310.949 174.914 311.183 175.695 311.652C176.476 312.121 177.08 312.779 177.506 313.626C177.937 314.474 178.153 315.461 178.153 316.588C178.153 317.715 177.937 318.7 177.506 319.543C177.08 320.385 176.476 321.041 175.695 321.51C174.914 321.979 173.991 322.213 172.925 322.213ZM172.939 320.153C173.517 320.153 174 319.995 174.388 319.678C174.777 319.356 175.065 318.925 175.255 318.385C175.449 317.845 175.546 317.244 175.546 316.581C175.546 315.913 175.449 315.31 175.255 314.77C175.065 314.225 174.777 313.792 174.388 313.47C174 313.148 173.517 312.987 172.939 312.987C172.348 312.987 171.855 313.148 171.462 313.47C171.074 313.792 170.783 314.225 170.589 314.77C170.399 315.31 170.305 315.913 170.305 316.581C170.305 317.244 170.399 317.845 170.589 318.385C170.783 318.925 171.074 319.356 171.462 319.678C171.855 319.995 172.348 320.153 172.939 320.153ZM185.093 322.213C184.004 322.213 183.069 321.974 182.288 321.496C181.511 321.018 180.912 320.357 180.491 319.514C180.074 318.667 179.866 317.691 179.866 316.588C179.866 315.48 180.079 314.502 180.505 313.655C180.931 312.803 181.533 312.14 182.309 311.666C183.09 311.188 184.014 310.949 185.079 310.949C185.964 310.949 186.748 311.112 187.43 311.439C188.116 311.761 188.663 312.218 189.07 312.81C189.478 313.397 189.71 314.083 189.767 314.869H187.309C187.21 314.344 186.973 313.906 186.599 313.555C186.23 313.2 185.735 313.023 185.115 313.023C184.589 313.023 184.127 313.165 183.73 313.449C183.332 313.728 183.022 314.131 182.799 314.656C182.581 315.182 182.472 315.812 182.472 316.545C182.472 317.289 182.581 317.928 182.799 318.463C183.017 318.993 183.322 319.403 183.715 319.692C184.113 319.976 184.579 320.118 185.115 320.118C185.493 320.118 185.832 320.047 186.13 319.905C186.433 319.758 186.686 319.547 186.89 319.273C187.094 318.998 187.233 318.664 187.309 318.271H189.767C189.705 319.043 189.478 319.727 189.085 320.324C188.692 320.916 188.157 321.38 187.48 321.716C186.802 322.047 186.007 322.213 185.093 322.213ZM194.221 318.577L194.214 315.473H194.626L198.547 311.091H201.551L196.729 316.46H196.196L194.221 318.577ZM191.878 322V307.455H194.449V322H191.878ZM198.724 322L195.173 317.036L196.906 315.224L201.8 322H198.724ZM220.789 312.362H218.133C218.057 311.927 217.918 311.541 217.714 311.205C217.51 310.864 217.257 310.575 216.954 310.338C216.651 310.101 216.305 309.924 215.917 309.805C215.534 309.682 215.119 309.621 214.674 309.621C213.883 309.621 213.183 309.82 212.572 310.217C211.961 310.61 211.483 311.188 211.137 311.95C210.792 312.708 210.619 313.634 210.619 314.727C210.619 315.84 210.792 316.777 211.137 317.54C211.488 318.297 211.966 318.87 212.572 319.259C213.183 319.642 213.881 319.834 214.667 319.834C215.103 319.834 215.51 319.777 215.889 319.663C216.272 319.545 216.615 319.372 216.919 319.145C217.226 318.918 217.484 318.638 217.693 318.307C217.906 317.975 218.052 317.597 218.133 317.17L220.789 317.185C220.69 317.876 220.474 318.525 220.143 319.131C219.816 319.737 219.388 320.272 218.857 320.736C218.327 321.195 217.707 321.555 216.997 321.815C216.286 322.071 215.498 322.199 214.632 322.199C213.353 322.199 212.212 321.903 211.208 321.311C210.204 320.719 209.414 319.865 208.836 318.747C208.258 317.63 207.97 316.29 207.97 314.727C207.97 313.16 208.261 311.82 208.843 310.707C209.426 309.59 210.219 308.735 211.222 308.143C212.226 307.552 213.363 307.256 214.632 307.256C215.441 307.256 216.194 307.369 216.89 307.597C217.586 307.824 218.206 308.158 218.751 308.598C219.295 309.034 219.743 309.569 220.093 310.203C220.448 310.833 220.68 311.553 220.789 312.362ZM227.847 322.213C226.782 322.213 225.858 321.979 225.077 321.51C224.296 321.041 223.69 320.385 223.259 319.543C222.833 318.7 222.62 317.715 222.62 316.588C222.62 315.461 222.833 314.474 223.259 313.626C223.69 312.779 224.296 312.121 225.077 311.652C225.858 311.183 226.782 310.949 227.847 310.949C228.912 310.949 229.836 311.183 230.617 311.652C231.398 312.121 232.002 312.779 232.428 313.626C232.859 314.474 233.074 315.461 233.074 316.588C233.074 317.715 232.859 318.7 232.428 319.543C232.002 320.385 231.398 321.041 230.617 321.51C229.836 321.979 228.912 322.213 227.847 322.213ZM227.861 320.153C228.439 320.153 228.922 319.995 229.31 319.678C229.698 319.356 229.987 318.925 230.177 318.385C230.371 317.845 230.468 317.244 230.468 316.581C230.468 315.913 230.371 315.31 230.177 314.77C229.987 314.225 229.698 313.792 229.31 313.47C228.922 313.148 228.439 312.987 227.861 312.987C227.269 312.987 226.777 313.148 226.384 313.47C225.996 313.792 225.705 314.225 225.51 314.77C225.321 315.31 225.226 315.913 225.226 316.581C225.226 317.244 225.321 317.845 225.51 318.385C225.705 318.925 225.996 319.356 226.384 319.678C226.777 319.995 227.269 320.153 227.861 320.153ZM239.305 322.192C238.448 322.192 237.681 321.972 237.004 321.531C236.327 321.091 235.792 320.452 235.399 319.614C235.006 318.776 234.809 317.758 234.809 316.56C234.809 315.348 235.008 314.325 235.406 313.491C235.808 312.653 236.35 312.021 237.032 311.595C237.714 311.164 238.474 310.949 239.312 310.949C239.951 310.949 240.477 311.058 240.889 311.276C241.301 311.489 241.627 311.747 241.869 312.05C242.11 312.348 242.297 312.63 242.43 312.895H242.536V307.455H245.115V322H242.586V320.281H242.43C242.297 320.546 242.106 320.828 241.855 321.126C241.604 321.42 241.272 321.671 240.86 321.879C240.448 322.088 239.93 322.192 239.305 322.192ZM240.022 320.082C240.567 320.082 241.031 319.936 241.414 319.642C241.798 319.344 242.089 318.929 242.288 318.399C242.487 317.869 242.586 317.251 242.586 316.545C242.586 315.84 242.487 315.227 242.288 314.706C242.094 314.185 241.805 313.78 241.421 313.491C241.043 313.203 240.576 313.058 240.022 313.058C239.449 313.058 238.971 313.207 238.588 313.506C238.204 313.804 237.915 314.216 237.721 314.741C237.527 315.267 237.43 315.868 237.43 316.545C237.43 317.227 237.527 317.836 237.721 318.371C237.92 318.901 238.211 319.32 238.595 319.628C238.983 319.931 239.459 320.082 240.022 320.082ZM252.684 322.213C251.59 322.213 250.645 321.986 249.85 321.531C249.059 321.072 248.451 320.423 248.025 319.585C247.599 318.742 247.385 317.75 247.385 316.609C247.385 315.487 247.599 314.502 248.025 313.655C248.456 312.803 249.057 312.14 249.829 311.666C250.6 311.188 251.507 310.949 252.549 310.949C253.221 310.949 253.856 311.058 254.452 311.276C255.054 311.489 255.584 311.82 256.043 312.27C256.507 312.72 256.872 313.293 257.137 313.989C257.402 314.68 257.535 315.504 257.535 316.46V317.249H248.593V315.516H255.07C255.065 315.023 254.959 314.585 254.751 314.202C254.542 313.813 254.251 313.508 253.877 313.286C253.508 313.063 253.077 312.952 252.584 312.952C252.059 312.952 251.597 313.08 251.199 313.335C250.802 313.586 250.492 313.918 250.269 314.33C250.051 314.737 249.94 315.184 249.935 315.672V317.185C249.935 317.819 250.051 318.364 250.283 318.818C250.515 319.268 250.84 319.614 251.256 319.855C251.673 320.092 252.161 320.21 252.719 320.21C253.093 320.21 253.432 320.158 253.735 320.054C254.038 319.945 254.301 319.786 254.523 319.578C254.746 319.37 254.914 319.112 255.028 318.804L257.428 319.074C257.277 319.708 256.988 320.262 256.562 320.736C256.14 321.205 255.6 321.569 254.942 321.83C254.284 322.085 253.531 322.213 252.684 322.213Z" fill="#6D7992"/>
</svg>
