<svg width="20" height="20" viewBox="0 0 20 20" fill="none" xmlns="http://www.w3.org/2000/svg">
<path d="M14.8192 13.6591L18.3332 17.1722L17.1722 18.3332L13.6591 14.8192C12.3519 15.8671 10.7259 16.437 9.05057 16.4346C4.97457 16.4346 1.6665 13.1266 1.6665 9.05057C1.6665 4.97457 4.97457 1.6665 9.05057 1.6665C13.1266 1.6665 16.4346 4.97457 16.4346 9.05057C16.437 10.7259 15.8671 12.3519 14.8192 13.6591ZM13.1733 13.0503C14.2146 11.9795 14.7961 10.5442 14.7937 9.05057C14.7937 5.87707 12.2233 3.30741 9.05057 3.30741C5.87707 3.30741 3.30741 5.87707 3.30741 9.05057C3.30741 12.2233 5.87707 14.7937 9.05057 14.7937C10.5442 14.7961 11.9795 14.2146 13.0503 13.1733L13.1733 13.0503Z" fill="#8E99B2"/>
</svg>
