<svg width="20" height="16" viewBox="0 0 20 16" fill="none" xmlns="http://www.w3.org/2000/svg">
<path d="M19.0522 12.4632L16.3317 9.75339C16.0284 9.44259 15.5 9.66598 15.5 10.0933V11.8319H9.60897C9.07076 11.8319 8.6304 12.2689 8.6304 12.8031C8.6304 13.3373 9.07076 13.7744 9.60897 13.7744H15.4902V15.5129C15.4902 15.9499 16.0186 16.1636 16.322 15.8528L19.0424 13.143C19.2381 12.9585 19.2381 12.6477 19.0522 12.4632Z" fill="#124EB0"/>
<path fill-rule="evenodd" clip-rule="evenodd" d="M17.28 0H1.92C0.864 0 0.00959999 0.874122 0.00959999 1.94249L0 13.5975C0 14.6658 0.864 15.54 1.92 15.54H6.72C6.72 15.54 7.67063 15.4356 7.67063 14.4644C7.67063 13.4931 6.72 13.5975 6.72 13.5975H2.88C2.352 13.5975 1.92 13.1604 1.92 12.6262V3.88499L8.5824 8.1002C9.2064 8.49841 9.9936 8.49841 10.6176 8.1002L17.28 3.88499V8.63689C17.28 8.63689 17.2706 9.60814 18.2306 9.60814C19.1906 9.60814 19.2 8.63689 19.2 8.63689V1.94249C19.2 0.874122 18.336 0 17.28 0ZM9.6 6.79873L1.92 1.94249H17.28L9.6 6.79873Z" fill="#124EB0"/>
</svg>
