<svg width="24" height="24" viewBox="0 0 24 24" fill="none" xmlns="http://www.w3.org/2000/svg">
<path fill-rule="evenodd" clip-rule="evenodd" d="M17.752 4.625V5.5C17.752 5.98325 17.3602 6.375 16.877 6.375C16.3937 6.375 16.002 5.98325 16.002 5.5V4.625C16.002 4.14175 15.6102 3.75 15.127 3.75H8.12695V7.25C8.12695 7.73325 7.7352 8.125 7.25195 8.125H3.75195V20.375C3.75195 20.8582 4.1437 21.25 4.62695 21.25H15.127C15.6102 21.25 16.002 20.8582 16.002 20.375V19.5C16.002 19.0168 16.3937 18.625 16.877 18.625C17.3602 18.625 17.752 19.0168 17.752 19.5V20.375C17.752 21.8247 16.5767 23 15.127 23H4.62695C3.17721 23 2.00195 21.8247 2.00195 20.375V7.25C2.00195 4.35051 4.35246 2 7.25195 2H15.127C16.5767 2 17.752 3.17525 17.752 4.625ZM3.86239 6.37496H6.37712V3.86023C5.14722 4.17679 4.17895 5.14506 3.86239 6.37496ZM19.1395 13.375H9.00195C8.5187 13.375 8.12695 12.9832 8.12695 12.5C8.12695 12.0168 8.5187 11.625 9.00195 11.625H19.1395L17.1332 9.61872C16.7915 9.27701 16.7915 8.72299 17.1332 8.38128C17.4749 8.03957 18.029 8.03957 18.3707 8.38128L21.8707 11.8813C22.2124 12.223 22.2124 12.777 21.8707 13.1187L18.3707 16.6187C18.029 16.9604 17.4749 16.9604 17.1332 16.6187C16.7915 16.277 16.7915 15.723 17.1332 15.3813L19.1395 13.375Z" fill="#124EB0"/>
</svg>
