<svg width="24" height="24" viewBox="0 0 24 24" fill="none" xmlns="http://www.w3.org/2000/svg">
<g clip-path="url(#clip0_28428_20218)">
<path fill-rule="evenodd" clip-rule="evenodd" d="M17 7H15.3333V4.5C15.3333 4.03976 14.9602 3.66667 14.5 3.66667H4.5C4.03976 3.66667 3.66667 4.03976 3.66667 4.5V14.5C3.66667 14.9602 4.03976 15.3333 4.5 15.3333H7V17H4.5C3.11929 17 2 15.8807 2 14.5V4.5C2 3.11929 3.11929 2 4.5 2H14.5C15.8807 2 17 3.11929 17 4.5V7ZM9.5 7H19.5C20.8807 7 22 8.11929 22 9.5V19.5C22 20.8807 20.8807 22 19.5 22H9.5C8.11929 22 7 20.8807 7 19.5V9.5C7 8.11929 8.11929 7 9.5 7ZM9.5 8.66667C9.03976 8.66667 8.66667 9.03976 8.66667 9.5V19.5C8.66667 19.9602 9.03976 20.3333 9.5 20.3333H19.5C19.9602 20.3333 20.3333 19.9602 20.3333 19.5V9.5C20.3333 9.03976 19.9602 8.66667 19.5 8.66667H9.5Z" fill="#124EB0"/>
<path fill-rule="evenodd" clip-rule="evenodd" d="M10.3418 11.1668C10.3418 10.7066 10.7153 10.3335 11.176 10.3335H17.8495C18.3102 10.3335 18.6837 10.7066 18.6837 11.1668V17.4168C18.6837 17.8771 18.3102 18.2502 17.8495 18.2502C17.3888 18.2502 17.0153 17.8771 17.0153 17.4168V12.0002H11.176C10.7153 12.0002 10.3418 11.6271 10.3418 11.1668Z" fill="#124EB0"/>
</g>
<defs>
<clipPath id="clip0_28428_20218">
<rect width="20" height="20" fill="white" transform="translate(2 2)"/>
</clipPath>
</defs>
</svg>
