<svg width="30" height="30" viewBox="0 0 30 30" fill="none" xmlns="http://www.w3.org/2000/svg">
<path d="M19.2856 19.8215L22.8214 23.3572C23.2285 23.7643 23.9142 23.7643 24.3214 23.3572L27.8571 19.8215H19.2856Z" fill="#3958A0"/>
<path d="M22.8214 7.17861L19.2856 10.7143H27.8571L24.3428 7.17861C23.9142 6.75003 23.2499 6.75003 22.8214 7.17861Z" fill="#3958A0"/>
<path d="M12.6838 14.4883C11.5347 13.675 10.0792 13.224 8.57164 13.2142C8.14782 13.2142 7.73352 13.1095 7.38113 12.9133C7.02874 12.7171 6.75408 12.4382 6.5919 12.1119C6.42971 11.7856 6.38727 11.4265 6.46996 11.0801C6.55264 10.7337 6.75673 10.4155 7.05641 10.1658C7.35609 9.91607 7.73791 9.746 8.15359 9.6771C8.56926 9.6082 9.00012 9.64356 9.39167 9.77872C9.78323 9.91387 10.1179 10.1428 10.3534 10.4364C10.5888 10.7301 10.7145 11.0753 10.7145 11.4285H15.0002C14.9965 10.3232 14.5826 9.246 13.8153 8.34446C13.0481 7.44291 11.965 6.7612 10.7145 6.39279V4.28564H6.42878V6.39279C5.01156 6.82132 3.82016 7.65131 3.06284 8.73767C2.30553 9.82402 2.03048 11.0976 2.28578 12.3358C2.54109 13.5741 3.3105 14.6981 4.45951 15.5115C5.60853 16.3249 7.06405 16.7759 8.57164 16.7856C8.99546 16.7856 9.40976 16.8904 9.76215 17.0866C10.1145 17.2828 10.3892 17.5617 10.5514 17.888C10.7136 18.2143 10.756 18.5733 10.6733 18.9197C10.5906 19.2661 10.3865 19.5843 10.0869 19.834C9.78718 20.0838 9.40536 20.2539 8.98969 20.3228C8.57402 20.3917 8.14316 20.3563 7.7516 20.2211C7.36005 20.086 7.02538 19.8571 6.78992 19.5634C6.55446 19.2698 6.42878 18.9245 6.42878 18.5714H2.14307C2.14679 19.6766 2.56066 20.7539 3.32793 21.6554C4.09521 22.5569 5.17832 23.2387 6.42878 23.6071V25.7142H10.7145V23.6071C12.1317 23.1785 13.3231 22.3485 14.0804 21.2622C14.8377 20.1758 15.1128 18.9022 14.8575 17.664C14.6022 16.4258 13.8328 15.3017 12.6838 14.4883Z" fill="#3958A0"/>
</svg>
