<svg width="24" height="24" viewBox="0 0 24 24" fill="none" xmlns="http://www.w3.org/2000/svg">
<path fill-rule="evenodd" clip-rule="evenodd" d="M12.3559 6.17734L13.4226 7.24408C13.748 7.56951 13.748 8.09715 13.4226 8.42259C13.0972 8.74803 12.5695 8.74803 12.2441 8.42259L9.74408 5.92259C9.41864 5.59715 9.41864 5.06951 9.74408 4.74408L12.2441 2.24408C12.5695 1.91864 13.0972 1.91864 13.4226 2.24408C13.748 2.56951 13.748 3.09715 13.4226 3.42259L12.3377 4.50747C16.3231 4.68408 19.5 7.97104 19.5 12C19.5 13.9984 18.7137 15.8747 17.3377 17.2687C17.0144 17.5962 16.4868 17.5996 16.1592 17.2763C15.8317 16.953 15.8283 16.4253 16.1516 16.0978C17.2228 15.0127 17.8333 13.5556 17.8333 12C17.8333 8.89783 15.4118 6.36124 12.3559 6.17734ZM11.6623 19.4923C7.67688 19.3157 4.5 16.0288 4.5 11.9998C4.5 9.99735 5.28945 8.11759 6.67042 6.72291C6.99425 6.39587 7.52188 6.39326 7.84892 6.71709C8.17596 7.04091 8.17857 7.56854 7.85474 7.89558C6.77972 8.98127 6.16667 10.441 6.16667 11.9998C6.16667 15.102 8.5882 17.6386 11.6441 17.8225L10.5774 16.7557C10.252 16.4303 10.252 15.9026 10.5774 15.5772C10.9028 15.2518 11.4305 15.2518 11.7559 15.5772L14.2559 18.0772C14.5814 18.4026 14.5814 18.9303 14.2559 19.2557L11.7559 21.7557C11.4305 22.0812 10.9028 22.0812 10.5774 21.7557C10.252 21.4303 10.252 20.9026 10.5774 20.5772L11.6623 19.4923Z" fill="#124EB0"/>
</svg>
