<svg width="28" height="28" viewBox="0 0 28 28" fill="none" xmlns="http://www.w3.org/2000/svg">
<path d="M14 0C6.28067 0 0 6.28077 0 14C0 21.7192 6.28077 28 14 28C21.7192 28 28 21.7192 28 14C28 6.28077 21.7192 0 14 0ZM14 2.15365C20.5554 2.15365 25.8462 7.44471 25.8462 13.9998C25.8462 20.5549 20.5551 25.846 14 25.846C7.44462 25.846 2.15385 20.5549 2.15385 13.9998C2.15385 7.44442 7.4449 2.15365 14 2.15365ZM14 4.84596C13.405 4.84596 12.9232 5.32823 12.9232 5.92279V13.9997C12.9667 14.4163 13.1388 14.6465 13.3942 14.8914L18.1898 19.704C18.6105 20.1247 19.2836 20.1247 19.7043 19.704C20.1249 19.2833 20.1246 18.6102 19.7043 18.1896L15.0769 13.5622V5.92283C15.0769 5.32788 14.5946 4.846 14 4.846L14 4.84596Z" fill="#4E586D"/>
</svg>
