<svg width="24" height="24" viewBox="0 0 24 24" fill="none" xmlns="http://www.w3.org/2000/svg">
<g clip-path="url(#clip0_15200_101613)">
<path fill-rule="evenodd" clip-rule="evenodd" d="M17.2507 3H20.2507C20.6649 3 21.0007 3.38376 21.0007 3.85714C21.0007 4.33053 20.6649 4.71429 20.2507 4.71429H17.2507C16.8364 4.71429 16.5007 4.33053 16.5007 3.85714C16.5007 3.38376 16.8364 3 17.2507 3ZM17.2505 6.42828H20.2505C20.6647 6.42828 21.0005 6.81204 21.0005 7.28543V8.14257C21.0005 8.61596 20.6647 8.99971 20.2505 8.99971H17.2505C16.8363 8.99971 16.5005 8.61596 16.5005 8.14257V7.28543C16.5005 6.81204 16.8363 6.42828 17.2505 6.42828ZM17.2505 10.7146H20.2505C20.6647 10.7146 21.0005 11.0984 21.0005 11.5717C21.0005 12.0451 20.6647 12.4289 20.2505 12.4289H17.2505C16.8363 12.4289 16.5005 12.0451 16.5005 11.5717C16.5005 11.0984 16.8363 10.7146 17.2505 10.7146ZM17.2505 14.1429H20.2505C20.6647 14.1429 21.0005 14.5266 21.0005 15C21.0005 15.4734 20.6647 15.8572 20.2505 15.8572H17.2505C16.8363 15.8572 16.5005 15.4734 16.5005 15C16.5005 14.5266 16.8363 14.1429 17.2505 14.1429ZM17.2505 17.5717H20.2505C20.6647 17.5717 21.0005 17.9555 21.0005 18.4289V19.286C21.0005 19.7594 20.6647 20.1431 20.2505 20.1431H17.2505C16.8363 20.1431 16.5005 19.7594 16.5005 19.286V18.4289C16.5005 17.9555 16.8363 17.5717 17.2505 17.5717ZM9.11688 17.5716L8.2055 20.4359C8.09772 20.7746 7.81603 21.0001 7.50065 21.0001H3.75065C3.23018 21.0001 2.86794 20.4091 3.04581 19.8501L5.3746 12.531C4.39362 11.758 3.75065 10.4649 3.75065 9.00013C3.75065 6.6332 5.42958 4.71442 7.50065 4.71442H14.2507C14.6649 4.71442 15.0007 5.09817 15.0007 5.57156V12.4287C15.0007 12.9021 14.6649 13.2858 14.2507 13.2858H13.5007V15.0001C13.5007 16.4203 12.4933 17.5716 11.2507 17.5716H9.11688ZM9.66211 15.8568H11.2504C11.6646 15.8568 12.0004 15.4731 12.0004 14.9997V13.2854H10.4803L9.66211 15.8568ZM7.50049 11.5716H9.42971H7.50049Z" fill="#124eb0"/>
</g>
<defs>
<clipPath id="clip0_15200_101613">
<rect width="18" height="18" fill="white" transform="translate(3 3)"/>
</clipPath>
</defs>
</svg>
