<svg width="24" height="24" viewBox="0 0 24 24" fill="none" xmlns="http://www.w3.org/2000/svg">
<path fill-rule="evenodd" clip-rule="evenodd" d="M18.9999 2H22.9999C23.5522 2 23.9999 2.44772 23.9999 3C23.9999 3.55228 23.5522 4 22.9999 4H18.9999C18.4476 4 17.9999 3.55228 17.9999 3C17.9999 2.44772 18.4476 2 18.9999 2ZM18.9999 6H22.9999C23.5522 6 23.9999 6.44772 23.9999 7V8C23.9999 8.55228 23.5522 9 22.9999 9H18.9999C18.4476 9 17.9999 8.55228 17.9999 8V7C17.9999 6.44772 18.4476 6 18.9999 6ZM18.9999 11H22.9999C23.5522 11 23.9999 11.4477 23.9999 12C23.9999 12.5523 23.5522 13 22.9999 13H18.9999C18.4476 13 17.9999 12.5523 17.9999 12C17.9999 11.4477 18.4476 11 18.9999 11ZM18.9999 15H22.9999C23.5522 15 23.9999 15.4477 23.9999 16C23.9999 16.5523 23.5522 17 22.9999 17H18.9999C18.4476 17 17.9999 16.5523 17.9999 16C17.9999 15.4477 18.4476 15 18.9999 15ZM18.9999 19H22.9999C23.5522 19 23.9999 19.4477 23.9999 20V21C23.9999 21.5523 23.5522 22 22.9999 22H18.9999C18.4476 22 17.9999 21.5523 17.9999 21V20C17.9999 19.4477 18.4476 19 18.9999 19ZM8.15486 19L6.93968 22.3417C6.79598 22.7369 6.4204 23 5.99989 23H0.999891C0.305926 23 -0.17706 22.3104 0.0600973 21.6583L3.16516 13.1193C1.85719 12.2175 0.999891 10.7089 0.999891 9C0.999891 6.23858 3.23847 4 5.99989 4H14.9999C15.5522 4 15.9999 4.44772 15.9999 5V13C15.9999 13.5523 15.5522 14 14.9999 14H13.9999V16C13.9999 17.6569 12.6567 19 10.9999 19H8.15486ZM8.88214 17H10.9999C11.5522 17 11.9999 16.5523 11.9999 16V14H9.97305L8.88214 17ZM5.99989 12H8.57219H5.99989Z" fill="#124eb0"/>
</svg>
