<svg width="25" height="24" viewBox="0 0 25 24" fill="none" xmlns="http://www.w3.org/2000/svg">
<g clip-path="url(#clip0_10882_37419)">
<path fill-rule="evenodd" clip-rule="evenodd" d="M5.7889 21C5.7889 21.5523 6.23616 22 6.78787 22H18.7755C19.3272 22 19.7745 21.5523 19.7745 21V9H5.7889V21ZM17.7766 3H19.7745C21.4296 3 22.7714 4.34315 22.7714 6V8C22.7714 8.55229 22.3242 9 21.7724 9V21C21.7724 22.6569 20.4307 24 18.7755 24H6.78787C5.13273 24 3.79096 22.6569 3.79096 21V9C3.23925 9 2.79199 8.55229 2.79199 8V6C2.79199 4.34315 4.13376 3 5.7889 3H7.78685C7.78685 1.34315 9.12861 0 10.7838 0H14.7796C16.4348 0 17.7766 1.34315 17.7766 3ZM7.78685 13C7.78685 12.4477 8.2341 12 8.78582 12C9.33753 12 9.78479 12.4477 9.78479 13V18C9.78479 18.5523 9.33753 19 8.78582 19C8.2341 19 7.78685 18.5523 7.78685 18V13ZM11.7827 13C11.7827 12.4477 12.23 12 12.7817 12C13.3334 12 13.7807 12.4477 13.7807 13V18C13.7807 18.5523 13.3334 19 12.7817 19C12.23 19 11.7827 18.5523 11.7827 18V13ZM15.7786 13C15.7786 12.4477 16.2259 12 16.7776 12C17.3293 12 17.7766 12.4477 17.7766 13V18C17.7766 18.5523 17.3293 19 16.7776 19C16.2259 19 15.7786 18.5523 15.7786 18V13ZM10.7838 2C10.232 2 9.78479 2.44772 9.78479 3H15.7786C15.7786 2.44772 15.3314 2 14.7796 2H10.7838ZM4.78993 7H20.7735V6C20.7735 5.44772 20.3262 5 19.7745 5H5.7889C5.23719 5 4.78993 5.44772 4.78993 6V7Z" fill="#4E586D"/>
</g>
<defs>
<clipPath id="clip0_10882_37419">
<rect width="23.9753" height="24" fill="white" transform="translate(0.794067)"/>
</clipPath>
</defs>
</svg>
