<svg width="11" height="7" viewBox="0 0 11 7" fill="none" xmlns="http://www.w3.org/2000/svg">
<g clip-path="url(#clip0_19468_427553)">
<path fill-rule="evenodd" clip-rule="evenodd" d="M10.707 5.70643C10.5194 5.8939 10.2651 5.99922 9.99997 5.99922C9.73481 5.99922 9.4805 5.8939 9.29297 5.70643L5.99997 2.41343L2.70697 5.70643C2.61472 5.80194 2.50438 5.87812 2.38237 5.93053C2.26037 5.98294 2.12915 6.01053 1.99637 6.01168C1.86359 6.01283 1.73191 5.98753 1.60902 5.93725C1.48612 5.88697 1.37447 5.81272 1.28057 5.71883C1.18668 5.62493 1.11243 5.51328 1.06215 5.39038C1.01187 5.26749 0.986601 5.13581 0.987701 5.00303C0.988901 4.87025 1.01646 4.73903 1.06887 4.61703C1.12128 4.49502 1.19746 4.38468 1.29297 4.29243L5.29297 0.292429C5.4805 0.104959 5.73481 -0.000360472 5.99997 -0.000360449C6.26513 -0.000360426 6.51944 0.10496 6.70697 0.29243L10.707 4.29243C10.8944 4.47996 10.9998 4.73427 10.9998 4.99943C10.9998 5.26459 10.8944 5.5189 10.707 5.70643Z" fill="#4E586D"/>
</g>
<defs>
<clipPath id="clip0_19468_427553">
<rect width="11" height="7" fill="white" transform="translate(11 7) rotate(-180)"/>
</clipPath>
</defs>
</svg>
