<svg width="30" height="30" viewBox="0 0 30 30" fill="none" xmlns="http://www.w3.org/2000/svg">
<path d="M15.0001 29.4C7.04718 29.4 0.600098 22.9529 0.600098 15C0.600098 7.04709 7.04718 0.600006 15.0001 0.600006C22.953 0.600006 29.4001 7.04709 29.4001 15C29.4001 22.9529 22.953 29.4 15.0001 29.4ZM15.0001 26.9999C21.6277 26.9999 26.9999 21.6277 26.9999 15.0001C26.9999 8.37251 21.6277 3.00028 15.0001 3.00028C8.3725 3.00028 3.00027 8.37251 3.00027 15.0001C3.00027 21.6277 8.3725 26.9999 15.0001 26.9999ZM8.99993 12.0003C8.00591 12.0003 7.19993 11.1943 7.19993 10.2003C7.19993 9.20606 8.00591 8.40028 8.99993 8.40028C9.99414 8.40028 10.7999 9.20606 10.7999 10.2003C10.7999 11.1943 9.99414 12.0003 8.99993 12.0003ZM12.0001 10.2003C12.0001 9.53752 12.5356 9.00014 13.197 9.00014H21.603C22.2641 9.00014 22.8001 9.53289 22.8001 10.2003C22.8001 10.863 22.2645 11.4002 21.603 11.4002H13.197C12.5358 11.4002 12.0001 10.8677 12.0001 10.2003ZM8.99993 16.8001C8.00591 16.8001 7.19993 15.9941 7.19993 15.0001C7.19993 14.0061 8.00591 13.2001 8.99993 13.2001C9.99414 13.2001 10.7999 14.0061 10.7999 15.0001C10.7999 15.9941 9.99414 16.8001 8.99993 16.8001ZM12.0001 15.0001C12.0001 14.3373 12.5356 13.8002 13.197 13.8002H21.603C22.2641 13.8002 22.8001 14.3327 22.8001 15.0001C22.8001 15.6629 22.2645 16.2 21.603 16.2H13.197C12.5358 16.2 12.0001 15.6675 12.0001 15.0001ZM8.99993 21.5999C8.00591 21.5999 7.19993 20.7942 7.19993 19.7999C7.19993 18.8059 8.00591 17.9999 8.99993 17.9999C9.99414 17.9999 10.7999 18.8059 10.7999 19.7999C10.7999 20.7942 9.99414 21.5999 8.99993 21.5999ZM12.0001 19.7999C12.0001 19.1372 12.5356 18.6 13.197 18.6H21.603C22.2641 18.6 22.8001 19.1325 22.8001 19.7999C22.8001 20.4627 22.2645 21.0001 21.603 21.0001H13.197C12.5358 21.0001 12.0001 20.4673 12.0001 19.7999Z" fill="#2E374A"/>
</svg>
