<svg width="14" height="12" viewBox="0 0 14 12" fill="none" xmlns="http://www.w3.org/2000/svg">
<path d="M10.9431 8.14261H3.06592C2.97164 8.14261 2.8945 8.22297 2.8945 8.32119L2.89235 9.39267C2.89235 9.49089 2.9695 9.57125 3.06378 9.57125H10.9431C11.0374 9.57125 11.1145 9.49089 11.1145 9.39267V8.32119C11.1145 8.22297 11.0374 8.14261 10.9431 8.14261ZM10.9431 10.2856H3.0595C2.96521 10.2856 2.88807 10.3659 2.88807 10.4642L2.88592 11.5356C2.88592 11.6339 2.96307 11.7142 3.05735 11.7142H10.9431C11.0374 11.7142 11.1145 11.6339 11.1145 11.5356V10.4642C11.1145 10.3659 11.0374 10.2856 10.9431 10.2856ZM10.9431 5.99965H3.07021C2.97592 5.99965 2.89878 6.08001 2.89878 6.17823L2.89664 7.24971C2.89664 7.34793 2.97378 7.42829 3.06807 7.42829H10.9431C11.0374 7.42829 11.1145 7.34793 11.1145 7.24971V6.17823C11.1145 6.08001 11.0374 5.99965 10.9431 5.99965ZM13.2252 2.89682L7.3945 0.367681C7.26917 0.313522 7.13482 0.285645 6.99914 0.285645C6.86346 0.285645 6.72911 0.313522 6.60378 0.367681L0.775209 2.89682C0.393781 3.06424 0.143066 3.45265 0.143066 3.88571V11.5356C0.143066 11.6339 0.220209 11.7142 0.314495 11.7142H2.02878C2.12307 11.7142 2.20021 11.6339 2.20021 11.5356V5.99965C2.20021 5.60678 2.51307 5.28533 2.89878 5.28533H11.1016C11.4874 5.28533 11.8002 5.60678 11.8002 5.99965V11.5356C11.8002 11.6339 11.8774 11.7142 11.9716 11.7142H13.6859C13.7802 11.7142 13.8574 11.6339 13.8574 11.5356V3.88571C13.8574 3.45265 13.6066 3.06424 13.2252 2.89682Z" fill="#1AAF8B"/>
</svg>
