<svg width="16" height="16" viewBox="0 0 16 16" fill="none" xmlns="http://www.w3.org/2000/svg">
<path d="M12.0742 7.18521V1.16669C12.0742 0.890544 11.8503 0.666687 11.5742 0.666687H4.42601C4.14986 0.666687 3.92601 0.890545 3.92601 1.16669V3.92595H1.16675C0.890605 3.92595 0.666748 4.1498 0.666748 4.42595V15.3334H7.18527V12.0741H8.8149V15.3334H15.3334V7.68521C15.3334 7.40906 15.1096 7.18521 14.8334 7.18521H12.0742ZM3.92601 13.7037H2.29638V12.0741H3.92601V13.7037ZM3.92601 10.4445H2.29638V8.81484H3.92601V10.4445ZM3.92601 7.18521H2.29638V5.55558H3.92601V7.18521ZM7.18527 10.4445H5.55564V8.81484H7.18527V10.4445ZM7.18527 7.18521H5.55564V5.55558H7.18527V7.18521ZM7.18527 3.92595H5.55564V2.29632H7.18527V3.92595ZM10.4445 10.4445H8.8149V8.81484H10.4445V10.4445ZM10.4445 7.18521H8.8149V5.55558H10.4445V7.18521ZM10.4445 3.92595H8.8149V2.29632H10.4445V3.92595ZM13.7038 13.7037H12.0742V12.0741H13.7038V13.7037ZM13.7038 10.4445H12.0742V8.81484H13.7038V10.4445Z" fill="#2271B7"/>
</svg>
