<svg width="24" height="24" viewBox="0 0 24 24" fill="none" xmlns="http://www.w3.org/2000/svg">
<g clip-path="url(#clip0_15198_101571)">
<path d="M1 0C0.447715 0 0 0.447715 0 1V7C0 7.55228 0.447715 8 1 8C1.55228 8 2 7.55228 2 7V2H7C7.55228 2 8 1.55228 8 1C8 0.447715 7.55228 0 7 0H1Z" fill="#134C85"/>
<path d="M1 24C0.447715 24 0 23.5523 0 23V17C0 16.4477 0.447715 16 1 16C1.55228 16 2 16.4477 2 17V22H7C7.55228 22 8 22.4477 8 23C8 23.5523 7.55228 24 7 24H1Z" fill="#134C85"/>
<path d="M24 1C24 0.447715 23.5523 0 23 0H17C16.4477 0 16 0.447715 16 1C16 1.55228 16.4477 2 17 2H22V7C22 7.55228 22.4477 8 23 8C23.5523 8 24 7.55228 24 7V1Z" fill="#134C85"/>
<path d="M23 24C23.5523 24 24 23.5523 24 23V17C24 16.4477 23.5523 16 23 16C22.4477 16 22 16.4477 22 17V22H17C16.4477 22 16 22.4477 16 23C16 23.5523 16.4477 24 17 24H23Z" fill="#134C85"/>
<path fill-rule="evenodd" clip-rule="evenodd" d="M8.66667 12.3339H9.33333C9.70152 12.3339 10 12.6323 10 13.0005V14.3339C10 14.7021 9.70152 15.0005 9.33333 15.0005H8.66667C8.29848 15.0005 8 14.7021 8 14.3339V13.0005C8 12.6323 8.29848 12.3339 8.66667 12.3339ZM8.66667 7H9.33333C9.70152 7 10 7.29848 10 7.66667V9C10 9.36819 9.70152 9.66667 9.33333 9.66667H8.66667C8.29848 9.66667 8 9.36819 8 9V7.66667C8 7.29848 8.29848 7 8.66667 7ZM5.99893 12.3339C6.36712 12.3339 6.66559 12.6323 6.66559 13.0005V15.6672C6.66559 16.0354 6.36712 16.3339 5.99893 16.3339C5.63074 16.3339 5.33226 16.0354 5.33226 15.6672V13.0005C5.33226 12.6323 5.63074 12.3339 5.99893 12.3339ZM5.99893 7C6.36712 7 6.66559 7.29848 6.66559 7.66667V9C6.66559 9.36819 6.36712 9.66667 5.99893 9.66667C5.63074 9.66667 5.33226 9.36819 5.33226 9V7.66667C5.33226 7.29848 5.63074 7 5.99893 7ZM4.66667 10.3339H19.3333C19.7015 10.3339 20 10.6323 20 11.0005C20 11.3687 19.7015 11.6672 19.3333 11.6672H4.66667C4.29848 11.6672 4 11.3687 4 11.0005C4 10.6323 4.29848 10.3339 4.66667 10.3339ZM11.9989 12.3339C12.3671 12.3339 12.6656 12.6323 12.6656 13.0005V14.3339C12.6656 14.7021 12.3671 15.0005 11.9989 15.0005C11.6307 15.0005 11.3323 14.7021 11.3323 14.3339V13.0005C11.3323 12.6323 11.6307 12.3339 11.9989 12.3339ZM11.9989 7C12.3671 7 12.6656 7.29848 12.6656 7.66667V9C12.6656 9.36819 12.3671 9.66667 11.9989 9.66667C11.6307 9.66667 11.3323 9.36819 11.3323 9V7.66667C11.3323 7.29848 11.6307 7 11.9989 7ZM14.6667 12.3339H15.3333C15.7015 12.3339 16 12.6323 16 13.0005V14.3339C16 14.7021 15.7015 15.0005 15.3333 15.0005H14.6667C14.2985 15.0005 14 14.7021 14 14.3339V13.0005C14 12.6323 14.2985 12.3339 14.6667 12.3339ZM14.6667 7H15.3333C15.7015 7 16 7.29848 16 7.66667V9C16 9.36819 15.7015 9.66667 15.3333 9.66667H14.6667C14.2985 9.66667 14 9.36819 14 9V7.66667C14 7.29848 14.2985 7 14.6667 7ZM17.9989 12.3339C18.3671 12.3339 18.6656 12.6323 18.6656 13.0005V15.6672C18.6656 16.0354 18.3671 16.3339 17.9989 16.3339C17.6307 16.3339 17.3323 16.0354 17.3323 15.6672V13.0005C17.3323 12.6323 17.6307 12.3339 17.9989 12.3339ZM17.9989 7C18.3671 7 18.6656 7.29848 18.6656 7.66667V9C18.6656 9.36819 18.3671 9.66667 17.9989 9.66667C17.6307 9.66667 17.3323 9.36819 17.3323 9V7.66667C17.3323 7.29848 17.6307 7 17.9989 7Z" fill="#134C85"/>
</g>
<defs>
<clipPath id="clip0_15198_101571">
<rect width="24" height="24" fill="white"/>
</clipPath>
</defs>
</svg>
